<svg width="50" height="39" viewBox="0 0 50 39" fill="none" xmlns="http://www.w3.org/2000/svg"><path d="M24.167 0.864 C 23.915 0.973,18.610 3.392,12.380 6.239 C 4.011 10.063,0.979 11.485,0.776 11.681 C 0.009 12.425,0.133 13.770,1.022 14.339 C 1.170 14.434,3.298 15.427,5.750 16.546 L 10.208 18.579 10.230 24.945 L 10.251 31.311 10.941 31.974 C 13.684 34.607,17.607 36.721,21.417 37.619 C 28.047 39.183,34.571 37.236,39.935 32.094 L 40.750 31.313 40.753 24.719 L 40.756 18.125 41.815 17.645 C 42.398 17.382,42.902 17.166,42.936 17.166 C 42.969 17.166,43.006 20.101,43.019 23.688 C 43.041 30.037,43.046 30.216,43.208 30.491 C 43.443 30.890,43.891 31.224,44.354 31.347 C 45.066 31.535,45.842 31.200,46.263 30.523 L 46.458 30.208 46.500 22.851 L 46.542 15.493 47.667 14.985 C 48.285 14.706,48.910 14.390,49.055 14.282 C 49.886 13.664,49.969 12.403,49.225 11.683 C 49.023 11.487,45.873 10.011,37.247 6.070 C 24.262 0.138,25.083 0.465,24.167 0.864 M34.067 8.468 C 39.049 10.742,43.236 12.660,43.372 12.729 L 43.618 12.856 43.413 13.020 C 43.301 13.110,39.111 15.052,34.104 17.334 L 25.000 21.484 19.437 18.946 C 16.378 17.550,13.536 16.241,13.122 16.037 C 12.708 15.833,12.344 15.667,12.314 15.667 C 12.235 15.667,6.385 12.997,6.320 12.931 C 6.280 12.891,24.803 4.361,24.984 4.337 C 24.998 4.335,29.085 6.194,34.067 8.468 M37.105 29.940 C 36.776 30.305,35.626 31.205,34.632 31.875 C 29.533 35.312,23.675 35.558,17.832 32.579 C 16.719 32.012,15.151 30.996,14.313 30.298 L 13.750 29.830 13.750 25.030 C 13.750 20.498,13.758 20.233,13.896 20.273 C 13.976 20.297,16.348 21.372,19.167 22.663 C 21.985 23.954,24.451 25.053,24.646 25.105 C 24.913 25.178,25.087 25.178,25.354 25.105 C 25.549 25.053,28.296 23.827,31.458 22.383 L 37.208 19.756 37.230 24.766 C 37.250 29.447,37.242 29.788,37.105 29.940 " fill="#A4925A" stroke="none" fill-rule="evenodd"></path></svg>