<svg width="51" height="50" viewBox="0 0 51 50" fill="none" xmlns="http://www.w3.org/2000/svg"><path d="M14.068 0.714 C 12.893 1.085,12.084 1.891,11.728 3.044 C 11.526 3.699,11.516 4.214,11.692 4.891 C 11.863 5.549,12.148 6.026,12.668 6.524 L 13.088 6.928 12.635 7.164 C 10.770 8.141,9.403 10.460,9.209 12.979 L 9.155 13.685 12.804 13.685 L 16.453 13.685 16.778 13.026 C 17.403 11.758,18.108 10.860,19.284 9.832 L 19.741 9.432 19.497 9.078 C 19.046 8.425,18.430 7.820,17.784 7.396 C 17.432 7.165,17.102 6.960,17.050 6.941 C 16.999 6.922,17.115 6.769,17.309 6.600 C 18.698 5.389,18.834 3.097,17.596 1.753 C 16.888 0.985,15.987 0.590,14.966 0.601 C 14.659 0.604,14.255 0.655,14.068 0.714 M34.573 0.682 C 33.665 0.911,32.764 1.638,32.356 2.471 C 31.676 3.862,31.924 5.340,33.026 6.460 L 33.486 6.928 32.999 7.178 C 32.488 7.439,31.086 8.767,30.862 9.201 C 30.742 9.433,30.746 9.439,31.590 10.235 C 32.513 11.106,33.104 11.893,33.650 12.984 L 34.002 13.685 37.663 13.685 L 41.324 13.685 41.266 13.111 C 41.009 10.535,39.961 8.578,38.210 7.407 C 37.865 7.177,37.541 6.975,37.489 6.957 C 37.437 6.940,37.599 6.713,37.850 6.454 C 39.194 5.067,39.215 3.045,37.900 1.654 C 37.256 0.974,36.570 0.665,35.621 0.629 C 35.220 0.614,34.749 0.638,34.573 0.682 M24.064 2.940 C 22.212 3.437,20.871 5.211,20.889 7.140 C 20.901 8.422,21.418 9.569,22.353 10.386 L 22.803 10.781 22.293 11.039 C 20.907 11.738,19.536 13.244,18.798 14.878 C 18.264 16.058,17.852 17.806,17.851 18.891 L 17.850 19.295 25.249 19.295 L 32.647 19.295 32.593 18.636 C 32.478 17.247,32.059 15.658,31.529 14.602 C 30.834 13.217,29.531 11.806,28.324 11.130 L 27.659 10.757 28.043 10.425 C 28.796 9.773,29.235 9.061,29.452 8.140 C 29.997 5.828,28.616 3.536,26.308 2.920 C 25.757 2.773,24.646 2.783,24.064 2.940 M3.125 15.312 C 1.731 15.503,0.609 16.567,0.290 17.999 C 0.169 18.545,0.162 18.730,0.246 19.189 C 0.419 20.127,3.507 28.456,4.950 31.875 C 6.114 34.634,6.537 35.299,8.599 37.613 C 9.183 38.267,10.434 39.614,11.380 40.607 L 13.100 42.411 12.372 45.201 C 11.972 46.736,11.646 48.123,11.647 48.284 C 11.651 48.945,12.246 49.709,12.896 49.890 C 13.335 50.012,22.110 50.012,22.549 49.890 C 22.725 49.841,23.008 49.679,23.178 49.530 C 24.049 48.765,23.984 47.456,23.043 46.793 L 22.681 46.538 19.173 46.495 L 15.665 46.453 16.256 44.200 C 17.063 41.125,17.232 41.647,14.513 38.813 C 12.179 36.379,10.442 34.461,9.720 33.519 C 8.880 32.423,7.479 29.075,4.875 21.941 C 4.340 20.475,3.913 19.264,3.927 19.250 C 3.941 19.237,4.622 20.282,5.440 21.572 C 6.258 22.863,7.162 24.274,7.448 24.709 C 7.941 25.459,7.970 25.531,8.007 26.118 C 8.052 26.811,8.166 27.072,10.630 32.103 C 11.791 34.473,11.914 34.687,12.239 34.902 C 13.153 35.507,14.459 35.117,14.838 34.126 C 15.119 33.388,15.041 33.151,13.395 29.761 C 12.569 28.060,11.910 26.652,11.931 26.631 C 11.999 26.562,16.272 30.873,17.382 32.130 C 17.980 32.808,18.905 33.907,19.438 34.574 C 20.528 35.937,20.815 36.150,21.555 36.143 C 22.939 36.131,23.742 34.610,22.977 33.450 C 22.640 32.939,21.233 31.213,20.142 29.973 C 18.822 28.472,16.573 26.174,14.790 24.504 C 12.862 22.699,12.619 22.568,11.214 22.568 L 10.228 22.568 8.366 19.635 C 7.342 18.022,6.356 16.540,6.174 16.341 C 5.440 15.539,4.293 15.151,3.125 15.312 M46.813 15.302 C 46.084 15.392,45.306 15.811,44.796 16.388 C 44.560 16.654,43.555 18.150,42.563 19.711 L 40.758 22.550 39.738 22.559 C 38.751 22.567,38.700 22.577,38.197 22.850 C 37.563 23.194,35.788 24.823,33.447 27.209 C 27.377 33.396,24.097 38.541,24.036 41.971 C 24.019 42.920,24.354 43.504,25.095 43.813 C 26.290 44.313,27.540 43.372,27.540 41.972 C 27.540 41.450,27.881 40.426,28.426 39.313 C 29.852 36.398,32.976 32.518,37.286 28.308 C 38.249 27.368,39.051 26.613,39.068 26.630 C 39.086 26.647,38.429 28.047,37.610 29.740 C 36.791 31.434,36.090 32.961,36.054 33.134 C 35.834 34.172,36.656 35.185,37.721 35.189 C 38.274 35.190,38.635 35.042,38.988 34.669 C 39.274 34.367,42.541 27.737,42.845 26.841 C 42.936 26.574,43.010 26.146,43.010 25.890 C 43.010 25.634,43.041 25.406,43.079 25.382 C 43.118 25.359,44.025 23.962,45.095 22.279 C 46.166 20.595,47.051 19.227,47.061 19.238 C 47.089 19.266,46.077 22.074,45.095 24.693 C 43.610 28.655,42.286 31.862,41.726 32.854 C 41.267 33.668,39.529 35.634,36.253 39.041 C 35.271 40.062,34.412 41.000,34.343 41.125 C 34.111 41.550,34.202 42.261,34.753 44.328 C 35.040 45.403,35.275 46.330,35.275 46.389 C 35.275 46.472,34.516 46.495,31.761 46.495 L 28.247 46.495 27.872 46.693 C 26.807 47.255,26.637 48.686,27.539 49.501 C 27.720 49.665,28.014 49.839,28.193 49.889 C 28.682 50.025,37.654 50.013,38.113 49.875 C 38.756 49.683,39.355 48.879,39.355 48.207 C 39.355 48.107,39.028 46.779,38.628 45.256 C 38.228 43.733,37.912 42.454,37.926 42.414 C 37.941 42.375,38.798 41.450,39.831 40.360 C 43.914 36.051,44.541 35.248,45.511 33.087 C 46.951 29.879,50.601 20.147,50.740 19.146 C 50.877 18.159,50.485 16.990,49.781 16.286 C 49.334 15.839,48.531 15.410,48.010 15.339 C 47.808 15.312,47.566 15.279,47.473 15.265 C 47.379 15.252,47.082 15.269,46.813 15.302 " fill="#A4925A" stroke="none" fill-rule="evenodd"></path></svg>