<svg width="51" height="51" viewBox="0 0 51 51" fill="none" xmlns="http://www.w3.org/2000/svg"><path d="M47.430 1.252 C 47.360 1.279,37.664 5.291,25.883 10.168 C 5.445 18.628,4.448 19.051,4.152 19.379 C 3.563 20.032,3.541 20.952,4.100 21.630 C 4.470 22.079,7.748 23.715,8.278 23.715 C 8.791 23.715,9.478 23.350,9.756 22.930 C 10.088 22.428,10.117 21.692,9.827 21.127 C 9.708 20.895,9.619 20.699,9.629 20.691 C 9.696 20.638,29.015 12.667,29.033 12.685 C 29.045 12.697,25.362 15.022,20.849 17.850 C 16.336 20.678,12.533 23.094,12.398 23.219 C 11.706 23.858,11.748 25.156,12.481 25.772 C 12.842 26.077,13.280 26.206,13.802 26.163 C 14.201 26.130,14.536 25.941,17.638 23.997 C 19.508 22.826,24.250 19.855,28.178 17.396 L 35.318 12.924 27.568 20.636 C 23.306 24.877,19.760 28.466,19.688 28.612 C 19.591 28.808,19.143 32.049,19.123 32.697 C 19.122 32.736,18.773 31.945,18.349 30.940 C 17.924 29.935,17.483 28.988,17.369 28.835 C 16.965 28.300,16.030 28.043,15.380 28.291 C 15.036 28.422,14.628 28.807,14.437 29.180 C 14.090 29.861,14.130 29.986,16.453 35.486 C 18.585 40.535,18.774 40.913,19.299 41.184 C 20.167 41.633,21.286 41.234,21.683 40.333 C 21.789 40.093,21.963 38.845,22.271 36.125 C 22.512 33.998,22.719 32.248,22.731 32.236 C 22.743 32.224,25.293 33.661,28.398 35.430 C 31.502 37.199,34.173 38.691,34.331 38.745 C 34.764 38.894,35.099 38.866,35.588 38.638 C 35.880 38.502,36.101 38.323,36.241 38.108 C 36.357 37.929,39.409 30.075,43.022 20.655 C 49.455 3.881,49.591 3.515,49.594 2.926 C 49.597 2.413,49.564 2.275,49.369 1.980 C 48.989 1.406,48.001 1.035,47.430 1.252 M38.642 22.269 C 36.065 29.000,33.933 34.508,33.903 34.509 C 33.873 34.509,31.665 33.265,28.995 31.744 L 24.141 28.977 29.899 23.269 C 33.066 20.130,37.360 15.867,39.440 13.796 C 41.520 11.725,43.246 10.030,43.274 10.030 C 43.302 10.030,41.218 15.537,38.642 22.269 M7.786 29.154 C 7.477 29.252,7.257 29.428,5.041 31.347 C 3.099 33.029,2.888 33.289,2.892 34.006 C 2.898 35.324,4.401 36.212,5.485 35.538 C 5.624 35.452,6.641 34.596,7.744 33.635 C 9.921 31.741,10.030 31.605,10.030 30.782 C 10.030 30.213,9.736 29.686,9.254 29.387 C 8.835 29.127,8.190 29.025,7.786 29.154 M10.982 38.101 C 10.483 38.374,2.019 46.342,1.848 46.700 C 1.618 47.183,1.586 47.554,1.736 48.005 C 2.058 48.974,3.116 49.463,4.067 49.083 C 4.562 48.885,13.067 40.887,13.324 40.378 C 14.061 38.916,12.417 37.317,10.982 38.101 M26.753 38.846 C 26.578 38.878,26.307 38.995,26.152 39.108 C 25.805 39.359,18.802 46.673,18.591 47.005 C 18.507 47.136,18.416 47.438,18.388 47.676 C 18.226 49.045,19.689 50.059,20.913 49.426 C 21.147 49.305,28.157 42.051,28.541 41.533 C 29.467 40.282,28.324 38.564,26.753 38.846 " fill="#A4925A" stroke="none" fill-rule="evenodd"></path></svg>