<svg width="14" height="12" viewBox="0 0 14 12" fill="none" xmlns="http://www.w3.org/2000/svg"><path d="M2.100 0.769 C 1.426 0.859,0.872 1.339,0.660 2.018 L 0.595 2.228 0.588 5.927 C 0.582 9.246,0.586 9.644,0.619 9.812 C 0.695 10.191,0.836 10.449,1.120 10.733 C 1.346 10.959,1.571 11.092,1.878 11.181 L 2.065 11.235 7.000 11.235 L 11.935 11.235 12.122 11.181 C 12.435 11.090,12.653 10.960,12.892 10.722 C 13.130 10.483,13.260 10.265,13.351 9.952 L 13.405 9.765 13.405 5.997 L 13.405 2.228 13.351 2.042 C 13.179 1.447,12.733 0.998,12.130 0.812 L 11.958 0.759 7.093 0.756 C 4.418 0.754,2.171 0.760,2.100 0.769 M10.848 3.137 C 11.220 3.329,11.295 3.818,10.994 4.088 C 10.947 4.130,10.029 4.699,8.954 5.351 L 6.999 6.537 5.092 5.389 C 4.043 4.758,3.150 4.209,3.107 4.168 C 2.977 4.046,2.929 3.931,2.930 3.745 C 2.931 3.571,2.960 3.493,3.072 3.359 C 3.217 3.188,3.518 3.124,3.730 3.220 C 3.786 3.246,4.529 3.687,5.381 4.201 C 6.234 4.715,6.945 5.141,6.962 5.147 C 6.979 5.154,7.760 4.697,8.698 4.133 C 9.636 3.569,10.427 3.102,10.457 3.095 C 10.548 3.076,10.777 3.100,10.848 3.137 " fill="#222222" stroke="none" fill-rule="evenodd"></path></svg>