<svg width="46" height="46" viewBox="0 0 46 46" fill="none" xmlns="http://www.w3.org/2000/svg"><path d="M22.148 0.460 C 17.591 0.890,13.758 3.990,12.431 8.320 C 12.049 9.567,11.934 10.333,11.931 11.653 C 11.929 13.038,12.100 14.072,12.544 15.351 C 13.504 18.116,15.523 20.410,18.161 21.732 C 18.921 22.113,20.345 22.581,21.237 22.743 C 22.220 22.921,24.084 22.920,25.070 22.741 C 30.062 21.831,33.808 17.811,34.344 12.787 C 34.450 11.794,34.442 11.242,34.308 10.236 C 33.577 4.744,29.143 0.694,23.575 0.434 C 23.153 0.414,22.511 0.426,22.148 0.460 M23.878 4.859 C 24.474 5.180,24.490 5.252,24.533 7.897 L 24.572 10.235 25.990 10.273 C 27.480 10.314,27.566 10.333,27.921 10.708 C 28.176 10.977,28.290 11.268,28.290 11.653 C 28.290 12.213,27.967 12.714,27.468 12.928 C 27.157 13.061,22.984 13.081,22.641 12.952 C 22.350 12.841,22.095 12.594,21.919 12.251 C 21.783 11.985,21.773 11.762,21.773 8.844 C 21.773 5.843,21.779 5.709,21.932 5.394 C 22.173 4.896,22.798 4.571,23.345 4.659 C 23.471 4.679,23.711 4.769,23.878 4.859 M2.917 8.440 C 1.782 8.663,0.889 9.619,0.694 10.821 C 0.593 11.439,0.586 35.630,0.686 36.320 C 0.872 37.612,1.778 38.563,3.031 38.783 C 3.282 38.827,4.196 38.882,5.060 38.904 C 10.651 39.050,15.837 40.076,19.072 41.675 C 20.037 42.152,20.329 42.337,20.731 42.728 C 21.193 43.175,21.225 43.230,21.304 43.697 C 21.413 44.342,21.712 44.820,22.191 45.116 C 22.523 45.322,22.634 45.348,23.153 45.348 C 23.673 45.348,23.783 45.322,24.115 45.117 C 24.636 44.794,24.895 44.395,25.025 43.711 C 25.111 43.257,25.182 43.096,25.388 42.879 C 26.315 41.911,28.904 40.779,31.817 40.067 C 34.715 39.359,37.863 38.959,41.822 38.798 C 42.982 38.751,43.528 38.697,43.777 38.607 C 44.533 38.332,45.229 37.625,45.515 36.840 C 45.648 36.474,45.656 35.838,45.676 23.810 C 45.689 15.474,45.669 11.022,45.618 10.744 C 45.507 10.142,45.261 9.680,44.815 9.235 C 44.004 8.426,43.323 8.283,40.920 8.417 C 40.024 8.467,39.167 8.543,39.015 8.586 C 38.012 8.871,37.422 10.111,37.829 11.078 C 37.989 11.459,38.352 11.845,38.755 12.063 C 39.042 12.218,39.151 12.227,40.461 12.208 L 41.860 12.188 41.860 23.608 L 41.860 35.027 41.534 35.067 C 41.355 35.089,40.728 35.126,40.141 35.151 C 34.792 35.373,29.057 36.601,25.857 38.208 C 25.468 38.404,25.132 38.563,25.110 38.563 C 25.088 38.563,25.070 36.305,25.070 33.545 C 25.070 30.208,25.042 28.397,24.986 28.137 C 24.621 26.432,22.238 26.160,21.456 27.734 L 21.275 28.098 21.252 33.331 C 21.240 36.209,21.216 38.563,21.199 38.563 C 21.182 38.563,20.830 38.395,20.416 38.190 C 18.026 37.001,14.260 36.003,10.273 35.501 C 9.103 35.354,6.884 35.162,5.271 35.069 L 4.447 35.022 4.447 23.561 L 4.447 12.100 5.002 12.143 C 6.742 12.277,6.940 12.277,7.325 12.147 C 7.976 11.926,8.356 11.519,8.557 10.829 C 8.785 10.048,8.430 9.199,7.696 8.769 C 7.345 8.563,7.287 8.555,5.450 8.461 C 3.301 8.351,3.372 8.351,2.917 8.440 " fill="#A4925A" stroke="none" fill-rule="evenodd"></path></svg>