<svg width="50" height="41" viewBox="0 0 50 41" fill="none" xmlns="http://www.w3.org/2000/svg"><path d="M22.811 0.499 C 20.007 0.771,17.731 1.395,15.375 2.540 C 13.320 3.538,11.847 4.580,10.138 6.246 C 5.271 10.989,2.455 18.329,2.034 27.375 L 1.976 28.625 1.160 29.765 C -0.085 31.504,0.046 30.900,0.017 35.042 C -0.001 37.590,0.020 38.726,0.089 38.976 C 0.211 39.414,0.661 39.949,1.113 40.190 L 1.458 40.375 25.000 40.375 L 48.542 40.375 48.887 40.190 C 49.324 39.957,49.778 39.430,49.903 39.012 C 50.049 38.527,50.031 31.816,49.883 31.402 C 49.823 31.234,49.380 30.559,48.898 29.902 L 48.023 28.708 47.965 27.417 C 47.560 18.329,44.718 10.950,39.781 6.163 C 38.172 4.603,36.659 3.534,34.708 2.575 C 32.737 1.607,30.801 1.009,28.531 0.666 C 27.227 0.469,24.072 0.377,22.811 0.499 M27.958 4.624 C 29.846 4.922,31.356 5.384,32.894 6.135 C 38.265 8.760,41.949 14.401,43.363 22.167 C 43.535 23.111,43.675 24.198,43.869 26.104 L 43.901 26.417 41.463 26.417 L 39.026 26.417 38.972 25.053 C 38.808 20.886,37.824 17.370,36.100 14.792 C 35.430 13.789,33.986 12.309,33.069 11.684 C 32.323 11.177,31.041 10.523,30.205 10.225 C 28.827 9.734,26.777 9.417,24.982 9.417 C 16.640 9.417,11.448 15.284,11.026 25.188 L 10.974 26.417 8.525 26.417 L 6.076 26.417 6.118 26.146 C 6.141 25.997,6.182 25.613,6.209 25.292 C 6.416 22.859,7.015 19.944,7.764 17.722 C 9.626 12.207,12.841 8.220,17.106 6.135 C 19.010 5.205,20.591 4.787,23.417 4.465 C 24.065 4.391,27.168 4.500,27.958 4.624 M26.625 13.509 C 29.911 13.910,32.134 15.457,33.496 18.292 C 34.359 20.088,34.820 22.272,34.968 25.271 L 35.025 26.417 32.513 26.417 L 30.000 26.417 30.000 25.550 C 30.000 24.421,29.867 23.134,29.661 22.253 C 29.088 19.816,27.390 18.420,25.000 18.420 C 22.609 18.420,20.918 19.811,20.337 22.256 C 20.121 23.165,20.003 24.298,20.001 25.479 L 20.000 26.417 17.488 26.417 L 14.975 26.417 15.033 25.313 C 15.405 18.211,18.265 14.168,23.383 13.512 C 24.218 13.404,25.760 13.403,26.625 13.509 M45.157 31.574 L 46.000 32.731 46.000 34.574 L 46.000 36.417 25.000 36.417 L 4.000 36.417 4.000 34.557 L 4.000 32.697 4.810 31.557 L 5.619 30.417 24.966 30.417 L 44.313 30.417 45.157 31.574 " fill="#A4925A" stroke="none" fill-rule="evenodd"></path></svg>