<svg width="44" height="44" viewBox="0 0 44 44" fill="none" xmlns="http://www.w3.org/2000/svg"><path d="M11.257 0.549 C 9.722 0.821,7.995 1.559,6.820 2.446 C 2.764 5.506,1.822 10.852,4.598 15.060 C 5.109 15.833,6.428 17.128,7.256 17.669 C 9.702 19.267,12.551 19.779,15.363 19.127 C 19.213 18.235,22.124 15.282,22.854 11.529 C 23.005 10.749,23.022 9.204,22.887 8.433 C 22.207 4.549,19.229 1.545,15.143 0.620 C 14.414 0.455,12.035 0.412,11.257 0.549 M30.891 3.556 C 28.232 4.038,25.957 5.712,24.795 8.041 C 23.751 10.134,23.743 12.578,24.775 14.703 C 25.920 17.062,28.060 18.669,30.837 19.253 C 31.567 19.407,33.192 19.428,33.953 19.294 C 38.042 18.574,40.993 15.266,40.993 11.403 C 40.993 7.621,38.168 4.358,34.226 3.587 C 33.375 3.421,31.723 3.406,30.891 3.556 M14.658 4.111 C 16.546 4.553,18.136 5.830,18.952 7.560 C 19.760 9.272,19.651 11.125,18.641 12.866 C 18.292 13.468,17.177 14.568,16.532 14.948 C 14.562 16.109,12.080 16.211,10.006 15.216 C 8.742 14.609,7.783 13.684,7.151 12.461 C 5.750 9.748,6.770 6.476,9.528 4.838 C 10.337 4.358,11.172 4.096,12.430 3.929 C 12.860 3.872,14.052 3.970,14.658 4.111 M33.727 7.046 C 35.348 7.393,36.700 8.554,37.270 10.088 C 37.503 10.717,37.503 12.090,37.270 12.718 C 36.388 15.091,33.720 16.401,31.130 15.732 C 29.196 15.233,27.698 13.574,27.527 11.742 C 27.345 9.774,28.837 7.745,30.908 7.147 C 31.806 6.887,32.820 6.851,33.727 7.046 M3.807 22.552 C 2.402 22.893,1.200 23.864,0.543 25.190 C -0.005 26.297,-0.013 26.388,0.020 30.872 C 0.045 34.289,0.065 34.868,0.178 35.347 C 0.682 37.500,1.454 38.921,2.932 40.418 C 4.606 42.111,6.564 43.067,8.915 43.340 C 9.415 43.397,11.003 43.415,13.970 43.394 C 18.124 43.366,18.326 43.359,19.028 43.201 C 22.994 42.311,25.879 39.427,26.811 35.420 C 26.923 34.941,26.943 34.349,26.967 30.850 C 26.994 26.996,26.989 26.806,26.845 26.230 C 26.602 25.258,26.242 24.625,25.522 23.907 C 24.802 23.189,24.161 22.811,23.279 22.586 C 22.725 22.444,22.458 22.440,13.463 22.446 C 5.948 22.451,4.140 22.471,3.807 22.552 M28.470 22.823 C 29.190 23.529,29.678 24.411,29.866 25.343 L 29.969 25.850 34.693 25.887 C 39.859 25.927,39.597 25.904,40.053 26.360 C 40.486 26.793,40.495 26.859,40.463 29.321 C 40.434 31.512,40.428 31.587,40.236 32.216 C 39.602 34.287,38.087 35.874,36.097 36.551 C 35.187 36.860,34.677 36.902,32.105 36.875 L 29.706 36.850 29.523 37.437 C 29.331 38.049,28.830 39.134,28.491 39.672 C 28.248 40.057,28.253 40.062,29.185 40.238 C 29.778 40.350,30.289 40.370,32.560 40.370 C 34.876 40.370,35.320 40.352,35.858 40.236 C 37.979 39.779,39.618 38.901,41.065 37.446 C 42.512 35.990,43.375 34.372,43.831 32.257 C 43.944 31.731,43.963 31.276,43.963 29.077 C 43.963 26.187,43.959 26.153,43.389 25.043 C 43.171 24.620,42.934 24.304,42.534 23.907 C 41.910 23.288,41.401 22.960,40.615 22.673 L 40.077 22.477 34.076 22.456 L 28.076 22.436 28.470 22.823 M22.770 26.143 C 23.006 26.289,23.184 26.474,23.300 26.693 L 23.474 27.023 23.448 30.837 C 23.418 35.150,23.440 34.963,22.809 36.263 C 22.016 37.899,20.610 39.088,18.806 39.650 L 18.150 39.854 13.752 39.877 C 9.923 39.897,9.277 39.884,8.766 39.781 C 6.311 39.283,4.435 37.533,3.722 35.074 C 3.560 34.514,3.557 34.431,3.557 30.685 L 3.557 26.866 3.733 26.608 C 3.932 26.319,4.281 26.056,4.594 25.961 C 4.709 25.927,8.766 25.904,13.609 25.911 L 22.415 25.923 22.770 26.143 " fill="#A4925A" stroke="none" fill-rule="evenodd"></path></svg>