<svg width="50" height="44" viewBox="0 0 50 44" fill="none" xmlns="http://www.w3.org/2000/svg"><path d="M13.278 0.508 C 7.401 1.193,2.397 5.345,0.679 10.961 C 0.021 13.110,0.001 13.429,0.001 21.933 C -0.000 29.971,0.019 30.385,0.473 32.125 C 2.073 38.255,7.175 42.636,13.518 43.328 C 14.629 43.450,35.371 43.450,36.482 43.328 C 42.825 42.636,47.927 38.255,49.527 32.125 C 49.981 30.385,50.000 29.971,49.999 21.933 C 49.999 17.424,49.965 14.250,49.913 13.795 C 49.106 6.746,43.670 1.309,36.625 0.504 C 35.716 0.400,14.173 0.404,13.278 0.508 M37.256 4.143 C 39.514 4.639,41.351 5.617,42.965 7.184 C 44.342 8.519,45.280 9.995,45.867 11.750 C 46.472 13.560,46.458 13.319,46.458 21.875 C 46.458 29.019,46.448 29.598,46.302 30.375 C 45.848 32.797,44.804 34.788,43.088 36.505 C 41.369 38.225,39.390 39.263,36.958 39.719 C 36.170 39.867,35.525 39.875,25.000 39.875 C 14.475 39.875,13.830 39.867,13.042 39.719 C 10.611 39.263,8.632 38.226,6.911 36.505 C 5.191 34.785,4.154 32.806,3.698 30.375 C 3.552 29.598,3.542 29.019,3.542 21.875 C 3.542 13.319,3.528 13.560,4.133 11.750 C 4.720 9.995,5.658 8.519,7.035 7.184 C 8.954 5.321,11.268 4.254,14.000 3.971 C 14.160 3.954,19.279 3.947,25.375 3.954 C 36.301 3.968,36.470 3.971,37.256 4.143 M20.650 13.121 L 19.625 14.242 17.625 14.247 C 15.707 14.251,15.608 14.260,15.205 14.447 C 14.705 14.680,14.151 15.279,14.015 15.734 C 13.943 15.974,13.917 17.962,13.917 23.176 L 13.918 30.292 14.114 30.713 C 14.222 30.945,14.470 31.271,14.665 31.438 C 15.361 32.033,14.755 32.000,25.000 32.000 C 35.245 32.000,34.639 32.033,35.335 31.438 C 35.530 31.271,35.778 30.945,35.886 30.713 L 36.082 30.292 36.083 23.176 C 36.083 17.962,36.057 15.974,35.985 15.734 C 35.849 15.279,35.295 14.680,34.795 14.447 C 34.392 14.260,34.293 14.251,32.375 14.247 L 30.375 14.242 29.350 13.121 L 28.324 12.000 25.000 12.000 L 21.676 12.000 20.650 13.121 M26.366 17.748 C 28.334 18.251,29.932 19.870,30.384 21.817 C 30.535 22.468,30.550 23.638,30.417 24.312 C 30.275 25.028,29.654 26.227,29.119 26.818 C 28.505 27.497,27.575 28.107,26.726 28.388 C 26.128 28.585,25.910 28.614,25.000 28.614 C 24.090 28.614,23.872 28.585,23.274 28.388 C 21.872 27.924,20.685 26.879,20.041 25.542 C 19.620 24.669,19.483 24.075,19.483 23.125 C 19.483 21.487,20.059 20.165,21.264 19.038 C 22.600 17.789,24.574 17.289,26.366 17.748 M23.917 19.740 C 23.310 19.934,22.878 20.218,22.390 20.741 C 21.136 22.086,21.135 24.103,22.388 25.497 C 23.776 27.041,26.224 27.041,27.612 25.497 C 28.865 24.103,28.864 22.086,27.610 20.741 C 27.119 20.215,26.750 19.975,26.093 19.753 C 25.463 19.541,24.552 19.535,23.917 19.740 " fill="#A4925A" stroke="none" fill-rule="evenodd"></path></svg>