<svg width="47" height="51" viewBox="0 0 47 51" fill="none" xmlns="http://www.w3.org/2000/svg"><path d="M22.913 0.627 C 22.644 0.711,5.026 10.803,4.649 11.089 C 3.913 11.647,3.883 12.980,4.592 13.646 C 4.800 13.841,21.972 23.651,22.678 23.978 C 23.033 24.143,23.591 24.169,23.965 24.038 C 24.265 23.934,41.758 14.010,42.116 13.741 C 42.898 13.154,42.923 11.752,42.164 11.114 C 42.042 11.011,37.900 8.607,32.959 5.772 C 24.672 1.016,23.943 0.613,23.562 0.585 C 23.334 0.567,23.042 0.586,22.913 0.627 M30.511 8.401 C 34.259 10.551,37.351 12.334,37.381 12.363 C 37.411 12.392,34.277 14.210,30.417 16.403 C 25.005 19.477,23.370 20.373,23.273 20.315 C 23.204 20.274,20.054 18.484,16.274 16.338 C 12.493 14.192,9.401 12.414,9.403 12.387 C 9.405 12.360,12.551 10.535,16.394 8.332 C 22.348 4.920,23.406 4.339,23.539 4.409 C 23.625 4.454,26.763 6.250,30.511 8.401 M2.174 16.244 C 1.545 16.478,1.167 16.880,1.021 17.468 C 0.957 17.728,0.963 20.539,1.041 28.122 C 1.145 38.209,1.151 38.430,1.308 38.782 C 1.396 38.979,1.605 39.255,1.772 39.394 C 2.136 39.697,19.506 49.830,19.889 49.963 C 20.276 50.097,20.671 50.073,21.072 49.892 C 21.510 49.693,21.744 49.478,21.961 49.076 L 22.129 48.763 22.129 38.148 L 22.129 27.534 21.961 27.221 C 21.868 27.049,21.709 26.831,21.608 26.738 C 21.453 26.595,4.383 16.812,3.500 16.360 C 3.104 16.157,2.541 16.107,2.174 16.244 M43.925 16.215 C 43.577 16.320,25.800 26.549,25.568 26.777 C 25.114 27.226,25.088 27.389,25.037 30.119 C 25.011 31.498,24.982 36.242,24.972 40.662 L 24.954 48.697 25.151 49.082 C 25.515 49.795,26.400 50.196,27.131 49.978 C 27.621 49.833,45.169 39.581,45.485 39.255 C 45.983 38.742,45.960 39.196,46.064 27.905 C 46.171 16.278,46.213 17.206,45.544 16.617 C 45.072 16.202,44.468 16.052,43.925 16.215 M11.691 25.047 L 18.643 29.013 18.643 37.112 C 18.643 42.364,18.616 45.202,18.567 45.185 C 18.524 45.171,15.374 43.344,11.566 41.125 L 4.641 37.092 4.591 30.237 C 4.564 26.467,4.520 22.839,4.493 22.176 C 4.447 21.017,4.451 20.971,4.592 21.025 C 4.673 21.056,7.868 22.866,11.691 25.047 M42.584 24.264 C 42.558 26.062,42.514 29.687,42.487 32.318 L 42.437 37.103 35.495 41.147 L 28.553 45.192 28.533 37.252 C 28.522 32.885,28.542 29.233,28.577 29.137 C 28.625 29.010,30.547 27.867,35.569 24.981 C 39.379 22.792,42.527 20.999,42.564 20.997 C 42.603 20.995,42.612 22.406,42.584 24.264 " fill="#A4925A" stroke="none" fill-rule="evenodd"></path></svg>