<svg width="49" height="45" viewBox="0 0 49 45" fill="none" xmlns="http://www.w3.org/2000/svg"><path d="M10.086 1.127 C 9.639 1.282,8.509 1.991,7.677 2.638 C 5.128 4.621,3.112 7.305,1.930 10.290 C 1.055 12.500,0.654 14.628,0.654 17.068 C 0.654 20.017,1.257 22.616,2.531 25.153 C 2.981 26.050,8.641 35.716,9.297 36.709 C 10.333 38.275,12.050 40.078,13.614 41.239 C 16.906 43.683,21.019 44.960,25.112 44.810 C 27.874 44.708,30.149 44.132,32.642 42.904 C 33.873 42.297,34.404 41.875,34.678 41.286 C 34.894 40.824,34.938 40.071,34.777 39.600 C 34.630 39.168,28.761 29.230,28.472 28.923 C 27.775 28.183,27.399 28.198,24.789 29.067 C 23.634 29.451,22.550 29.763,22.288 29.787 C 21.401 29.868,20.425 29.501,19.773 28.842 C 19.522 28.588,18.648 27.221,17.158 24.749 C 15.928 22.707,14.845 20.870,14.751 20.665 C 14.507 20.132,14.515 18.926,14.767 18.287 C 15.001 17.691,15.284 17.372,16.682 16.124 C 18.043 14.908,18.153 14.791,18.433 14.251 C 18.686 13.761,18.770 12.936,18.625 12.356 C 18.563 12.108,17.446 10.111,15.587 6.923 C 12.403 1.465,12.348 1.387,11.510 1.116 C 10.978 0.945,10.604 0.947,10.086 1.127 M12.775 9.060 L 15.013 12.903 13.905 13.904 C 12.293 15.358,11.690 16.237,11.258 17.762 C 11.109 18.287,11.072 18.625,11.070 19.477 C 11.068 20.576,11.143 20.997,11.517 21.997 C 11.679 22.429,15.329 28.581,16.370 30.176 C 17.553 31.990,19.429 33.110,21.573 33.284 C 22.527 33.361,23.249 33.234,24.937 32.690 C 26.353 32.234,26.397 32.225,26.509 32.379 C 26.734 32.686,30.870 39.758,30.870 39.834 C 30.870 39.934,29.406 40.518,28.502 40.778 C 26.302 41.412,23.641 41.490,21.356 40.987 C 17.559 40.151,14.176 37.819,12.129 34.627 C 11.411 33.506,6.019 24.286,5.636 23.522 C 5.135 22.523,4.642 21.064,4.408 19.886 C 4.182 18.746,4.102 16.566,4.242 15.350 C 4.691 11.439,6.788 7.713,9.838 5.404 C 10.291 5.061,10.416 5.000,10.470 5.096 C 10.507 5.162,11.544 6.946,12.775 9.060 M21.987 8.748 C 20.930 9.271,20.677 10.580,21.463 11.452 C 22.041 12.092,21.193 12.041,32.120 12.087 L 41.903 12.127 35.515 17.109 C 32.002 19.849,29.068 22.133,28.996 22.185 C 28.885 22.264,28.292 21.832,25.314 19.499 C 23.362 17.970,21.607 16.618,21.415 16.494 C 20.960 16.201,20.485 16.133,19.975 16.286 C 19.188 16.523,18.614 17.388,18.737 18.153 C 18.853 18.882,18.929 18.952,23.437 22.480 C 25.796 24.327,27.881 25.925,28.071 26.032 C 28.543 26.299,29.194 26.299,29.667 26.033 C 29.857 25.927,33.437 23.168,37.624 19.902 C 41.810 16.637,45.255 13.965,45.280 13.965 C 45.305 13.965,45.325 18.136,45.325 23.234 L 45.325 32.503 40.788 32.503 C 37.584 32.503,36.139 32.532,35.870 32.599 C 35.326 32.736,34.766 33.309,34.633 33.866 C 34.445 34.648,34.821 35.445,35.550 35.808 L 35.965 36.015 41.646 36.015 C 45.426 36.014,47.431 35.985,47.640 35.927 C 48.053 35.812,48.607 35.253,48.736 34.821 C 48.876 34.354,48.883 10.259,48.743 9.794 C 48.616 9.367,48.220 8.911,47.822 8.730 C 47.503 8.585,46.970 8.579,34.913 8.577 L 22.336 8.575 21.987 8.748 " fill="#A4925A" stroke="none" fill-rule="evenodd"></path></svg>