<svg width="51" height="51" viewBox="0 0 51 51" fill="none" xmlns="http://www.w3.org/2000/svg"><path d="M14.173 10.083 C 9.659 10.736,5.402 13.360,2.963 16.991 C 1.586 19.041,0.954 20.897,0.873 23.130 C 0.803 25.055,1.083 26.424,1.910 28.188 C 3.891 32.412,8.723 35.428,14.365 35.962 C 17.536 36.261,22.766 35.335,25.746 33.947 C 26.185 33.742,26.558 33.575,26.575 33.575 C 26.591 33.575,26.605 33.805,26.605 34.086 L 26.605 34.597 29.176 34.575 L 31.748 34.553 31.769 29.941 L 31.791 25.330 32.641 25.330 L 33.490 25.330 33.490 30.685 L 33.490 36.040 32.172 36.040 L 30.855 36.040 30.855 38.463 L 30.855 40.885 36.848 40.885 L 42.840 40.885 42.840 38.463 L 42.840 36.040 41.480 36.040 L 40.120 36.040 40.120 30.685 L 40.120 25.330 43.170 25.330 L 46.220 25.330 46.366 26.159 C 46.447 26.615,46.539 27.121,46.571 27.285 L 46.630 27.583 48.730 27.605 L 50.830 27.628 50.830 23.759 L 50.830 19.890 35.785 19.890 L 20.740 19.890 20.740 23.758 L 20.740 27.625 22.823 27.625 C 23.968 27.625,24.905 27.611,24.905 27.594 C 24.905 27.577,25.001 27.055,25.118 26.435 C 25.234 25.815,25.330 25.293,25.330 25.276 C 25.330 25.259,25.751 25.245,26.265 25.245 C 26.779 25.245,27.200 25.276,27.200 25.315 C 27.200 25.731,26.533 27.225,26.060 27.870 C 25.698 28.362,24.730 29.295,24.225 29.638 C 20.691 32.037,14.796 31.727,11.102 28.947 C 8.407 26.919,7.630 23.586,9.095 20.346 C 10.585 17.049,14.730 14.882,18.763 15.291 C 21.532 15.572,23.901 16.522,25.909 18.158 L 26.366 18.530 28.738 18.530 L 31.110 18.530 31.110 14.323 L 31.110 10.115 28.688 10.115 L 26.265 10.115 26.265 11.305 C 26.265 11.960,26.249 12.495,26.230 12.495 C 26.211 12.495,25.927 12.340,25.599 12.152 C 23.895 11.169,21.406 10.374,19.099 10.075 C 17.855 9.914,15.316 9.918,14.173 10.083 " fill="#A4925A" stroke="none" fill-rule="evenodd"></path></svg>