<svg width="43" height="51" viewBox="0 0 43 51" fill="none" xmlns="http://www.w3.org/2000/svg"><path d="M1.980 0.822 C 1.575 0.966,1.208 1.293,1.004 1.690 L 0.824 2.039 0.824 24.114 L 0.824 46.189 1.027 46.763 C 1.327 47.613,1.609 48.060,2.252 48.701 C 2.918 49.365,3.556 49.734,4.415 49.954 C 4.958 50.093,5.289 50.095,23.234 50.095 C 43.415 50.095,41.757 50.134,42.274 49.643 C 42.588 49.346,42.855 48.776,42.856 48.402 C 42.858 47.740,42.484 47.126,41.905 46.838 L 41.539 46.655 23.639 46.655 C 10.558 46.655,5.638 46.633,5.361 46.574 C 4.695 46.431,4.211 45.754,4.328 45.129 C 4.385 44.827,4.623 44.464,4.896 44.261 L 5.099 44.111 23.315 44.075 L 41.531 44.039 41.907 43.831 C 42.675 43.405,43.018 42.587,42.772 41.768 C 42.662 41.398,42.216 40.900,41.828 40.712 L 41.519 40.562 23.071 40.582 C 12.924 40.592,4.550 40.629,4.461 40.662 L 4.300 40.723 4.300 22.476 L 4.300 4.228 7.091 4.228 L 9.882 4.228 9.904 7.942 L 9.926 11.656 10.141 12.075 C 10.506 12.785,11.195 13.133,11.999 13.012 C 12.417 12.949,12.684 12.759,13.950 11.619 C 14.535 11.092,15.053 10.646,15.099 10.628 C 15.146 10.610,15.711 11.069,16.354 11.649 C 17.634 12.803,18.018 13.042,18.601 13.043 C 19.058 13.044,19.626 12.772,19.926 12.410 C 20.343 11.905,20.353 11.797,20.353 7.834 L 20.353 4.228 29.849 4.228 L 39.344 4.228 39.362 20.120 L 39.381 36.013 39.536 36.299 C 39.738 36.674,40.022 36.938,40.420 37.118 C 41.234 37.486,42.220 37.127,42.666 36.299 L 42.821 36.013 42.821 18.992 L 42.821 1.971 42.666 1.684 C 42.485 1.349,42.204 1.073,41.853 0.886 C 41.611 0.757,40.971 0.752,21.930 0.737 C 5.329 0.725,2.214 0.738,1.980 0.822 M11.970 15.523 C 10.852 15.825,10.100 16.740,9.950 17.983 C 9.911 18.298,9.892 20.902,9.904 24.014 L 9.926 29.491 10.093 29.905 C 10.406 30.682,11.061 31.331,11.789 31.587 C 12.124 31.704,12.786 31.713,21.858 31.713 L 31.569 31.713 31.984 31.545 C 32.830 31.204,33.504 30.359,33.677 29.424 C 33.729 29.139,33.755 27.194,33.754 23.547 C 33.752 17.645,33.741 17.448,33.365 16.807 C 33.105 16.362,32.458 15.803,31.981 15.610 L 31.569 15.444 21.966 15.430 C 13.680 15.418,12.309 15.431,11.970 15.523 M30.243 23.578 L 30.243 28.237 21.858 28.237 L 13.473 28.237 13.473 23.578 L 13.473 18.920 21.858 18.920 L 30.243 18.920 30.243 23.578 " fill="#A4925A" stroke="none" fill-rule="evenodd"></path></svg>