<svg width="51" height="51" viewBox="0 0 51 51" fill="none" xmlns="http://www.w3.org/2000/svg"><path d="M8.965 0.560 C 8.920 0.572,8.737 0.605,8.559 0.635 C 8.174 0.700,7.592 1.190,7.425 1.591 C 7.334 1.807,7.310 2.681,7.310 5.730 L 7.310 9.596 4.781 11.527 C 1.585 13.969,1.472 14.063,1.266 14.468 C 0.608 15.758,1.820 17.299,3.203 16.929 C 3.421 16.870,3.756 16.708,3.946 16.568 L 4.293 16.313 4.314 26.317 L 4.336 36.321 4.144 36.448 C 3.775 36.692,2.670 37.872,2.343 38.370 C 1.934 38.993,1.522 39.961,1.310 40.800 C 1.190 41.277,1.151 41.716,1.157 42.543 C 1.167 43.890,1.346 44.644,1.933 45.815 C 2.155 46.259,2.347 46.642,2.359 46.666 C 2.371 46.690,2.192 46.777,1.961 46.859 C 0.605 47.341,0.410 49.150,1.627 49.955 L 1.985 50.193 24.913 50.193 L 47.840 50.193 48.205 49.936 C 48.827 49.499,49.104 48.820,48.951 48.106 C 48.781 47.314,48.057 46.755,47.196 46.752 L 46.750 46.750 46.750 40.672 C 46.750 37.330,46.771 34.595,46.796 34.595 C 46.821 34.595,47.086 34.782,47.384 35.011 C 47.683 35.240,48.069 35.474,48.241 35.531 C 48.922 35.756,49.762 35.465,50.193 34.856 C 50.419 34.536,50.448 34.426,50.448 33.886 C 50.448 33.403,50.408 33.214,50.257 32.971 C 50.127 32.762,47.615 30.777,42.352 26.725 C 38.109 23.458,34.505 20.718,34.343 20.635 C 33.961 20.440,33.272 20.441,32.886 20.638 C 32.721 20.722,29.174 23.405,25.003 26.599 C 18.906 31.268,17.378 32.478,17.209 32.765 C 16.775 33.507,17.018 34.552,17.743 35.056 C 18.203 35.375,18.918 35.444,19.399 35.214 C 19.573 35.131,22.836 32.672,26.649 29.750 C 30.462 26.828,33.602 24.444,33.627 24.451 C 33.652 24.458,35.851 26.139,38.513 28.187 C 41.741 30.669,43.340 31.949,43.310 32.027 C 43.285 32.091,43.265 35.430,43.265 39.447 L 43.265 46.750 41.480 46.750 L 39.695 46.750 39.695 40.521 C 39.695 35.022,39.680 34.271,39.563 34.104 L 39.430 33.915 33.745 33.915 L 28.060 33.915 27.927 34.104 C 27.810 34.271,27.795 35.022,27.795 40.521 L 27.795 46.750 24.726 46.750 C 21.837 46.750,21.660 46.741,21.715 46.601 C 22.101 45.616,22.214 45.117,22.251 44.237 C 22.283 43.467,22.258 43.168,22.110 42.583 C 21.649 40.761,20.584 39.422,18.937 38.593 C 17.969 38.106,17.212 37.963,15.860 38.013 L 14.748 38.054 14.377 37.593 C 13.555 36.570,11.902 35.544,10.498 35.184 C 10.043 35.068,9.500 35.004,8.862 34.994 L 7.907 34.977 7.885 24.279 L 7.863 13.580 12.735 9.848 C 15.415 7.795,17.641 6.107,17.681 6.097 C 17.722 6.086,19.974 7.780,22.686 9.860 L 27.617 13.643 27.622 16.660 C 27.627 19.667,27.627 19.679,27.832 20.118 C 28.349 21.229,29.824 21.465,30.636 20.566 C 30.807 20.376,30.984 20.125,31.029 20.008 C 31.073 19.890,31.110 19.030,31.110 18.096 C 31.110 16.180,31.035 16.311,31.813 16.869 C 32.531 17.384,33.368 17.349,34.000 16.778 C 34.618 16.219,34.768 15.270,34.346 14.587 C 34.213 14.373,31.779 12.448,26.440 8.337 C 22.197 5.070,18.606 2.336,18.462 2.261 C 18.147 2.098,17.359 2.082,17.027 2.231 C 16.897 2.290,15.451 3.362,13.814 4.614 L 10.838 6.890 10.794 4.359 C 10.771 2.967,10.717 1.751,10.676 1.658 C 10.525 1.320,10.186 0.932,9.919 0.793 C 9.646 0.650,9.119 0.522,8.965 0.560 M12.923 13.679 C 12.865 13.788,12.835 15.882,12.835 19.880 L 12.835 25.915 13.024 26.048 C 13.189 26.163,13.782 26.180,17.765 26.180 C 21.748 26.180,22.341 26.163,22.506 26.048 L 22.695 25.915 22.695 19.849 C 22.695 14.447,22.680 13.768,22.561 13.649 C 22.443 13.530,21.886 13.515,17.719 13.515 C 13.151 13.515,13.008 13.520,12.923 13.679 M19.210 19.848 L 19.210 22.695 17.765 22.695 L 16.320 22.695 16.320 19.848 L 16.320 17.000 17.765 17.000 L 19.210 17.000 19.210 19.848 M36.125 42.033 L 36.125 46.665 33.745 46.665 L 31.365 46.665 31.365 42.033 L 31.365 37.400 33.745 37.400 L 36.125 37.400 36.125 42.033 M9.690 38.602 C 10.683 38.826,11.752 39.695,12.231 40.667 C 12.925 42.077,13.709 42.381,15.068 41.767 C 15.703 41.481,15.793 41.462,16.396 41.498 C 17.390 41.558,18.116 42.035,18.550 42.917 C 18.840 43.506,18.822 44.509,18.511 45.103 C 18.212 45.674,17.600 46.207,17.057 46.368 C 16.440 46.551,8.348 46.554,7.661 46.372 C 6.514 46.066,5.499 45.218,4.990 44.140 C 4.729 43.586,4.718 43.519,4.718 42.500 C 4.718 41.452,4.722 41.429,5.026 40.800 C 5.396 40.035,5.794 39.559,6.395 39.164 C 7.406 38.500,8.451 38.322,9.690 38.602 " fill="#A4925A" stroke="none" fill-rule="evenodd"></path></svg>