<svg width="51" height="46" viewBox="0 0 51 46" fill="none" xmlns="http://www.w3.org/2000/svg"><path d="M19.795 0.202 C 19.305 0.378,18.988 0.649,18.795 1.060 C 18.622 1.428,18.615 1.564,18.615 4.468 L 18.615 7.494 18.254 7.633 C 18.055 7.709,17.656 7.896,17.367 8.047 L 16.842 8.322 14.562 6.497 C 13.308 5.493,12.127 4.596,11.937 4.504 C 11.536 4.308,10.991 4.286,10.601 4.450 C 10.451 4.513,10.174 4.733,9.987 4.939 C 9.424 5.556,2.859 13.846,2.702 14.138 C 2.503 14.508,2.508 15.226,2.713 15.622 C 2.940 16.062,3.303 16.388,5.844 18.439 C 7.071 19.430,8.072 20.286,8.069 20.341 C 8.065 20.397,7.998 20.802,7.920 21.240 L 7.778 22.038 4.800 23.113 C 3.163 23.704,1.680 24.276,1.505 24.384 C 0.992 24.701,0.738 25.102,0.698 25.657 C 0.665 26.116,0.733 26.314,2.208 30.005 C 3.058 32.132,3.847 34.034,3.961 34.231 C 4.266 34.756,4.829 35.063,5.483 35.059 C 6.441 35.053,7.047 34.526,7.121 33.631 C 7.155 33.222,7.063 32.943,5.945 30.065 C 5.278 28.349,4.753 26.924,4.777 26.900 C 4.801 26.875,6.070 26.400,7.597 25.844 C 9.123 25.288,10.503 24.752,10.663 24.653 C 11.139 24.358,11.279 23.934,11.344 22.586 C 11.374 21.942,11.454 21.235,11.521 21.014 C 11.864 19.887,11.848 19.224,11.467 18.689 C 11.379 18.565,10.235 17.578,8.926 16.495 C 7.616 15.413,6.545 14.508,6.545 14.486 C 6.545 14.464,7.639 13.107,8.976 11.472 L 11.407 8.499 11.930 8.912 C 14.540 10.977,15.810 11.943,16.041 12.040 C 16.642 12.292,17.288 12.147,18.233 11.547 C 18.776 11.201,19.702 10.744,20.527 10.413 C 21.374 10.074,21.704 9.816,21.939 9.308 C 22.081 9.000,22.096 8.716,22.098 6.354 L 22.100 3.740 25.996 3.740 L 29.893 3.740 29.946 6.371 C 30.005 9.253,30.029 9.400,30.533 9.920 C 30.685 10.077,31.141 10.344,31.609 10.549 C 32.403 10.898,33.609 11.579,33.704 11.733 C 33.814 11.910,34.554 12.155,34.980 12.155 C 35.348 12.155,35.504 12.104,35.856 11.867 C 36.222 11.621,38.718 9.684,39.836 8.778 L 40.190 8.492 42.575 11.525 C 43.887 13.193,44.942 14.589,44.919 14.626 C 44.896 14.663,43.832 15.553,42.555 16.604 C 40.814 18.036,40.192 18.596,40.074 18.841 C 39.836 19.335,39.815 20.110,40.018 20.887 C 40.114 21.250,40.217 21.968,40.248 22.483 C 40.330 23.847,40.493 24.425,40.920 24.861 C 41.241 25.190,41.463 25.289,43.860 26.175 C 45.286 26.702,46.479 27.158,46.512 27.188 C 46.545 27.218,46.076 28.524,45.469 30.090 C 44.863 31.656,44.344 33.091,44.317 33.278 C 44.213 33.994,44.710 34.886,45.366 35.160 C 46.139 35.484,47.215 35.096,47.591 34.356 C 47.679 34.184,48.386 32.363,49.163 30.310 C 50.639 26.407,50.691 26.218,50.486 25.479 C 50.434 25.292,50.283 25.070,50.119 24.939 C 49.948 24.803,48.656 24.283,46.788 23.598 L 43.737 22.480 43.591 21.631 C 43.511 21.164,43.443 20.718,43.440 20.640 C 43.437 20.553,44.449 19.659,46.024 18.357 C 48.204 16.556,48.644 16.154,48.805 15.822 C 49.043 15.331,49.050 14.674,48.823 14.248 C 48.643 13.909,41.863 5.247,41.551 4.955 C 41.127 4.560,40.344 4.392,39.832 4.586 C 39.714 4.631,38.546 5.477,37.237 6.465 L 34.856 8.263 34.550 8.074 C 34.382 7.969,34.061 7.796,33.838 7.689 L 33.432 7.493 33.376 6.070 C 33.345 5.288,33.320 3.975,33.320 3.153 C 33.319 2.320,33.277 1.507,33.225 1.318 C 33.102 0.874,32.531 0.303,32.087 0.180 C 31.565 0.035,20.206 0.056,19.795 0.202 M24.634 15.981 C 22.025 16.395,19.806 17.926,18.579 20.159 C 18.191 20.865,17.847 21.846,17.788 22.416 C 17.750 22.784,17.781 22.939,17.974 23.334 C 18.694 24.804,20.677 24.563,21.209 22.940 C 21.642 21.617,22.636 20.421,23.737 19.898 C 25.977 18.834,28.532 19.558,29.824 21.623 C 29.967 21.852,30.186 22.345,30.310 22.719 C 30.688 23.852,31.356 24.381,32.296 24.291 C 32.886 24.234,33.330 23.921,33.607 23.364 C 33.886 22.804,33.888 22.431,33.617 21.623 C 33.178 20.315,32.516 19.239,31.579 18.310 C 30.515 17.255,29.219 16.516,27.795 16.154 C 26.976 15.945,25.403 15.859,24.634 15.981 M14.153 26.550 C 12.804 26.995,11.870 28.083,11.658 29.453 C 11.467 30.690,11.981 32.078,12.887 32.769 L 13.194 33.003 12.697 33.268 C 10.861 34.245,9.343 36.924,9.248 39.355 L 9.223 39.992 12.963 39.992 L 16.703 39.992 17.177 39.085 C 17.437 38.585,17.816 37.958,18.018 37.691 C 18.532 37.009,19.538 35.965,19.822 35.819 C 19.953 35.751,20.060 35.645,20.060 35.583 C 20.060 35.379,19.218 34.353,18.692 33.915 C 18.408 33.679,17.979 33.387,17.737 33.265 C 17.495 33.144,17.286 33.034,17.272 33.022 C 17.258 33.010,17.455 32.791,17.710 32.536 C 18.742 31.504,19.059 29.996,18.532 28.618 C 18.269 27.929,17.499 27.119,16.762 26.756 C 16.259 26.508,16.116 26.478,15.347 26.459 C 14.809 26.445,14.366 26.479,14.153 26.550 M35.172 26.566 C 34.532 26.770,33.754 27.355,33.363 27.926 C 32.861 28.660,32.697 29.253,32.741 30.174 C 32.772 30.827,32.817 31.007,33.089 31.556 C 33.291 31.965,33.554 32.331,33.834 32.593 C 34.071 32.815,34.254 33.007,34.239 33.018 C 34.225 33.030,33.964 33.169,33.660 33.327 C 33.042 33.649,31.855 34.772,31.579 35.296 L 31.411 35.615 31.749 35.883 C 32.786 36.704,33.840 38.035,34.382 39.209 C 34.542 39.555,34.727 39.883,34.792 39.937 C 34.881 40.011,35.883 40.031,38.600 40.015 L 42.288 39.992 42.263 39.245 C 42.180 36.766,40.681 34.180,38.789 33.252 C 38.539 33.130,38.335 33.009,38.336 32.984 C 38.336 32.958,38.468 32.848,38.629 32.738 C 39.003 32.483,39.305 32.086,39.594 31.470 C 39.800 31.029,39.823 30.888,39.823 30.005 C 39.823 29.071,39.810 29.002,39.542 28.453 C 39.185 27.724,38.583 27.121,37.854 26.762 C 37.337 26.508,37.200 26.479,36.427 26.459 C 35.847 26.445,35.444 26.479,35.172 26.566 M24.574 28.859 C 23.582 29.137,22.598 29.881,21.999 30.806 C 20.845 32.588,21.199 35.166,22.791 36.572 L 23.270 36.995 22.791 37.246 C 20.198 38.604,18.384 41.672,18.136 45.114 L 18.080 45.900 25.755 45.900 L 33.429 45.900 33.371 45.124 C 33.110 41.665,31.438 38.724,28.929 37.312 C 28.656 37.158,28.418 37.021,28.401 37.007 C 28.383 36.993,28.574 36.794,28.826 36.564 C 30.669 34.877,30.771 31.807,29.041 30.096 C 28.496 29.557,27.976 29.207,27.370 28.972 C 26.751 28.732,25.245 28.671,24.574 28.859 " fill="#A4925A" stroke="none" fill-rule="evenodd"></path></svg>