<svg width="45" height="46" viewBox="0 0 45 46" fill="none" xmlns="http://www.w3.org/2000/svg"><path d="M3.337 0.447 C 3.090 0.476,2.752 0.543,2.587 0.596 C 1.748 0.867,0.887 1.591,0.465 2.383 C -0.031 3.314,0.002 1.848,0.002 22.875 C 0.002 43.746,-0.026 42.391,0.432 43.336 C 0.701 43.892,1.492 44.692,2.025 44.948 C 2.979 45.405,1.528 45.375,22.500 45.375 C 43.472 45.375,42.021 45.405,42.975 44.948 C 43.508 44.692,44.299 43.892,44.568 43.336 C 45.026 42.391,44.998 43.743,44.999 22.897 C 45.000 9.351,44.976 3.717,44.918 3.435 C 44.642 2.102,43.642 1.001,42.300 0.551 C 41.904 0.418,41.136 0.412,22.837 0.403 C 12.360 0.398,3.585 0.418,3.337 0.447 M40.504 4.200 C 40.651 4.241,40.870 4.378,40.992 4.504 L 41.212 4.735 41.232 22.769 C 41.253 42.631,41.288 41.167,40.786 41.473 C 40.539 41.624,40.460 41.624,22.500 41.624 C 4.540 41.624,4.461 41.624,4.214 41.473 C 3.714 41.168,3.750 42.610,3.750 22.870 C 3.750 6.446,3.760 4.913,3.872 4.677 C 3.996 4.418,4.144 4.303,4.496 4.196 C 4.789 4.107,40.184 4.111,40.504 4.200 M9.879 7.952 C 9.167 8.073,8.401 8.715,8.130 9.417 C 7.999 9.757,7.987 10.013,7.987 12.563 C 7.987 15.044,8.002 15.379,8.123 15.725 C 8.295 16.220,8.724 16.706,9.236 16.990 L 9.637 17.212 22.500 17.212 L 35.362 17.212 35.742 17.012 C 36.196 16.773,36.632 16.310,36.852 15.834 C 37.007 15.499,37.012 15.391,37.012 12.600 L 37.012 9.713 36.817 9.295 C 36.572 8.773,36.159 8.361,35.625 8.108 L 35.212 7.912 22.725 7.902 C 15.857 7.896,10.076 7.919,9.879 7.952 M9.020 21.072 C 8.677 21.155,8.295 21.468,8.129 21.802 C 8.016 22.030,7.987 22.254,7.987 22.912 C 7.987 23.851,8.070 24.071,8.576 24.480 L 8.864 24.712 14.351 24.735 C 18.025 24.750,19.927 24.731,20.109 24.679 C 20.476 24.572,20.750 24.344,20.927 23.996 C 21.047 23.761,21.075 23.554,21.075 22.902 C 21.075 21.893,20.939 21.553,20.412 21.243 L 20.063 21.037 14.662 21.025 C 11.692 21.019,9.153 21.040,9.020 21.072 M25.162 21.036 C 25.121 21.050,24.995 21.082,24.883 21.107 C 24.608 21.168,24.151 21.578,24.026 21.878 C 23.963 22.029,23.926 22.410,23.927 22.891 C 23.929 23.968,24.120 24.363,24.769 24.635 C 25.009 24.735,25.760 24.750,30.487 24.750 C 36.482 24.750,36.219 24.770,36.654 24.275 C 36.971 23.914,37.073 23.499,37.036 22.721 C 36.999 21.946,36.837 21.585,36.381 21.262 L 36.062 21.037 30.650 21.023 C 27.673 21.016,25.204 21.021,25.162 21.036 M8.811 27.705 C 8.532 27.826,8.122 28.283,8.045 28.558 C 8.013 28.670,7.987 29.100,7.987 29.512 C 7.987 30.174,8.009 30.301,8.174 30.589 C 8.289 30.789,8.491 30.991,8.699 31.114 L 9.037 31.313 14.385 31.333 C 18.039 31.347,19.827 31.328,20.033 31.273 C 20.426 31.167,20.902 30.732,21.007 30.383 C 21.053 30.227,21.078 29.747,21.063 29.279 C 21.039 28.506,21.023 28.432,20.827 28.174 C 20.711 28.023,20.485 27.831,20.324 27.749 C 20.039 27.604,19.878 27.600,14.534 27.603 C 10.161 27.605,8.991 27.626,8.811 27.705 M24.660 27.753 C 24.508 27.834,24.288 28.023,24.173 28.175 C 23.977 28.432,23.961 28.506,23.937 29.279 C 23.922 29.747,23.947 30.227,23.993 30.383 C 24.096 30.725,24.569 31.164,24.951 31.270 C 25.369 31.386,35.516 31.380,35.979 31.263 C 36.699 31.082,37.050 30.477,37.050 29.423 C 37.049 28.758,36.946 28.408,36.653 28.074 C 36.219 27.579,36.487 27.600,30.434 27.603 C 25.131 27.607,24.928 27.612,24.660 27.753 M8.898 34.234 C 8.738 34.291,8.510 34.432,8.390 34.547 C 7.808 35.105,7.801 36.889,8.379 37.443 C 8.845 37.889,8.649 37.875,14.550 37.875 C 19.244 37.875,19.991 37.860,20.231 37.760 C 20.890 37.484,21.075 37.105,21.075 36.027 C 21.075 35.058,20.944 34.709,20.454 34.377 L 20.137 34.163 14.662 34.146 C 10.140 34.132,9.137 34.147,8.898 34.234 M24.957 34.200 C 24.564 34.318,24.236 34.581,24.080 34.902 C 23.953 35.164,23.925 35.364,23.927 36.005 C 23.929 37.130,24.179 37.597,24.891 37.804 C 25.074 37.857,26.964 37.876,30.649 37.860 L 36.136 37.837 36.424 37.605 C 36.881 37.236,37.001 36.964,37.036 36.222 C 37.091 35.070,36.759 34.409,36.021 34.205 C 35.680 34.110,25.271 34.105,24.957 34.200 " fill="#A4925A" stroke="none" fill-rule="evenodd"></path></svg>