<svg width="49" height="44" viewBox="0 0 49 44" fill="none" xmlns="http://www.w3.org/2000/svg"><path d="M2.271 0.767 C 1.521 0.970,0.861 1.536,0.501 2.287 L 0.286 2.736 0.262 19.968 C 0.245 32.130,0.264 37.385,0.327 37.830 C 0.535 39.298,1.086 40.386,2.157 41.446 C 2.921 42.203,3.482 42.587,4.311 42.921 C 5.485 43.396,4.095 43.365,24.380 43.365 C 37.036 43.365,43.164 43.337,43.493 43.279 C 45.937 42.846,47.584 41.345,48.371 38.832 C 48.765 37.575,48.765 37.560,48.739 22.091 L 48.714 7.554 48.500 7.105 C 48.129 6.327,47.494 5.808,46.652 5.593 C 46.231 5.485,45.740 5.467,43.835 5.487 C 41.547 5.512,41.524 5.514,41.164 5.717 C 40.120 6.302,39.952 7.728,40.832 8.524 C 41.006 8.681,41.289 8.848,41.460 8.896 C 41.635 8.944,42.537 8.983,43.509 8.983 L 45.246 8.983 45.224 23.173 L 45.203 37.362 45.016 37.879 C 44.645 38.904,44.088 39.512,43.313 39.738 C 41.885 40.153,40.386 39.346,39.625 37.752 L 39.322 37.117 39.282 19.968 L 39.241 2.817 39.010 2.318 C 38.723 1.696,38.244 1.220,37.608 0.923 L 37.117 0.694 19.886 0.679 C 6.171 0.667,2.576 0.685,2.271 0.767 M35.770 20.610 L 35.770 37.056 35.967 37.831 C 36.075 38.258,36.293 38.887,36.451 39.230 L 36.739 39.853 21.371 39.853 L 6.002 39.853 5.507 39.619 C 4.600 39.190,4.082 38.571,3.868 37.660 C 3.779 37.285,3.759 34.132,3.758 20.682 L 3.757 4.165 19.763 4.165 L 35.770 4.165 35.770 20.610 M8.085 8.052 C 7.447 8.328,7.023 8.961,7.023 9.636 C 7.023 10.357,7.333 10.878,7.962 11.217 L 8.289 11.393 18.861 11.414 C 30.791 11.439,29.944 11.482,30.534 10.812 C 31.311 9.930,31.076 8.651,30.043 8.136 L 29.613 7.922 18.992 7.925 C 9.686 7.928,8.335 7.943,8.085 8.052 M21.028 16.077 C 20.367 16.378,19.957 17.079,20.026 17.792 C 20.098 18.540,20.509 19.069,21.213 19.320 C 21.627 19.468,29.131 19.486,29.709 19.341 C 30.253 19.204,30.812 18.631,30.946 18.074 C 31.135 17.286,30.768 16.501,30.043 16.139 L 29.613 15.925 25.484 15.927 C 21.668 15.928,21.331 15.940,21.028 16.077 M11.107 16.528 C 9.632 16.856,8.402 18.103,8.094 19.584 C 7.652 21.700,8.944 23.740,11.077 24.295 C 12.814 24.748,14.744 23.835,15.566 22.172 C 17.050 19.169,14.388 15.800,11.107 16.528 M21.028 24.081 C 20.367 24.381,19.957 25.083,20.026 25.796 C 20.098 26.543,20.509 27.072,21.213 27.323 C 21.627 27.471,29.131 27.490,29.709 27.344 C 30.249 27.208,30.812 26.634,30.944 26.084 C 31.136 25.281,30.778 24.509,30.043 24.143 L 29.613 23.928 25.484 23.930 C 21.668 23.932,21.331 23.943,21.028 24.081 M8.104 26.633 C 7.674 26.846,7.244 27.335,7.118 27.755 C 6.996 28.164,6.993 30.880,7.114 31.458 C 7.379 32.719,8.252 33.942,9.422 34.691 C 10.529 35.399,12.207 35.595,13.516 35.169 C 15.138 34.642,16.402 33.294,16.825 31.638 C 17.038 30.806,17.062 28.187,16.862 27.707 C 16.660 27.223,16.351 26.880,15.923 26.663 L 15.522 26.460 11.987 26.460 C 8.554 26.460,8.443 26.465,8.104 26.633 M21.029 32.086 C 19.727 32.689,19.657 34.450,20.907 35.186 L 21.274 35.402 25.276 35.427 C 28.046 35.444,29.391 35.423,29.645 35.360 C 30.521 35.141,31.121 34.261,30.982 33.398 C 30.904 32.910,30.493 32.345,30.053 32.122 L 29.686 31.936 25.521 31.936 C 21.638 31.935,21.334 31.946,21.029 32.086 " fill="#A4925A" stroke="none" fill-rule="evenodd"></path></svg>