<svg width="14" height="14" viewBox="0 0 14 14" fill="none" xmlns="http://www.w3.org/2000/svg"><path d="M1.948 0.338 C 1.153 0.523,0.460 0.691,0.408 0.711 C 0.272 0.762,0.160 0.864,0.081 1.007 L 0.012 1.132 0.014 1.633 C 0.023 3.527,0.587 5.642,1.553 7.402 C 2.869 9.799,4.983 11.761,7.446 12.870 C 9.020 13.579,10.780 13.978,12.367 13.986 C 12.842 13.988,12.873 13.986,12.964 13.937 C 13.117 13.856,13.200 13.774,13.263 13.643 C 13.328 13.509,14.000 10.643,14.000 10.498 C 14.000 10.329,13.933 10.173,13.806 10.047 C 13.688 9.931,13.638 9.908,12.057 9.232 L 10.429 8.535 10.247 8.543 C 9.948 8.557,9.941 8.563,9.124 9.561 L 8.413 10.428 8.059 10.245 C 6.177 9.269,4.635 7.702,3.679 5.795 L 3.572 5.581 4.440 4.869 C 4.918 4.477,5.331 4.122,5.358 4.079 C 5.431 3.966,5.465 3.841,5.463 3.693 C 5.462 3.577,5.391 3.399,4.768 1.944 C 4.258 0.753,4.054 0.300,3.995 0.232 C 3.951 0.180,3.861 0.111,3.795 0.078 C 3.567 -0.038,3.551 -0.036,1.948 0.338 " fill="#222222" stroke="none" fill-rule="evenodd"></path></svg>