<svg width="39" height="45" viewBox="0 0 39 45" fill="none" xmlns="http://www.w3.org/2000/svg"><path d="M18.363 0.657 C 17.359 0.802,16.050 1.316,15.134 1.925 C 14.533 2.324,13.610 3.209,13.132 3.843 C 12.391 4.826,11.845 6.042,11.559 7.348 C 11.413 8.012,11.410 8.110,11.409 11.765 L 11.408 15.503 11.563 15.846 C 11.772 16.309,12.256 16.739,12.721 16.874 C 13.567 17.120,14.438 16.681,14.844 15.803 C 14.979 15.511,14.984 15.403,15.020 11.830 C 15.061 7.754,15.051 7.857,15.519 6.910 C 15.984 5.971,16.700 5.261,17.634 4.817 C 18.325 4.489,18.742 4.394,19.500 4.394 C 20.202 4.394,20.652 4.486,21.245 4.752 C 22.462 5.298,23.382 6.373,23.800 7.736 L 23.950 8.223 23.970 14.105 C 23.987 19.306,23.977 20.048,23.885 20.508 C 23.685 21.503,23.230 22.343,22.513 23.043 C 21.742 23.794,20.827 24.191,19.606 24.302 C 19.009 24.356,18.853 24.394,18.601 24.551 C 17.337 25.332,17.425 27.270,18.755 27.917 C 19.116 28.093,19.871 28.119,20.680 27.984 C 22.396 27.697,23.814 26.961,25.059 25.712 C 26.338 24.429,27.119 22.912,27.471 21.027 C 27.584 20.422,27.593 19.961,27.593 14.300 C 27.593 7.523,27.604 7.717,27.135 6.315 C 26.122 3.288,23.550 1.068,20.577 0.655 C 19.999 0.574,18.929 0.575,18.363 0.657 M3.627 11.074 C 2.262 11.450,1.816 13.290,2.849 14.278 C 2.992 14.415,3.705 14.886,4.432 15.324 C 5.967 16.248,6.228 16.339,6.837 16.162 C 7.361 16.009,7.724 15.708,7.978 15.218 C 8.156 14.875,8.190 14.738,8.190 14.371 C 8.190 13.827,8.055 13.418,7.762 13.076 C 7.559 12.839,5.619 11.591,4.835 11.194 C 4.492 11.020,4.001 10.971,3.627 11.074 M34.537 11.050 C 34.207 11.119,31.836 12.528,31.397 12.917 C 30.576 13.644,30.561 14.984,31.365 15.726 C 31.844 16.167,32.415 16.322,32.988 16.168 C 33.474 16.037,35.890 14.543,36.234 14.160 C 36.918 13.399,36.857 12.203,36.098 11.503 C 35.644 11.084,35.115 10.931,34.537 11.050 M18.150 17.777 C 15.306 18.293,12.904 20.388,11.903 23.225 C 11.792 23.539,11.637 24.080,11.558 24.427 C 11.418 25.044,11.415 25.171,11.391 30.518 C 11.374 34.331,11.389 36.172,11.441 36.623 C 11.855 40.227,14.248 43.085,17.603 43.981 C 18.454 44.208,19.906 44.266,20.768 44.107 C 22.510 43.786,23.950 43.010,25.181 41.726 C 26.123 40.745,26.752 39.689,27.163 38.397 C 27.565 37.136,27.590 36.858,27.591 33.703 C 27.592 31.124,27.581 30.810,27.477 30.510 C 27.222 29.780,26.571 29.314,25.808 29.316 C 25.068 29.317,24.484 29.698,24.167 30.387 C 24.020 30.707,24.017 30.761,23.981 33.638 C 23.940 36.898,23.939 36.904,23.468 37.863 C 22.830 39.164,21.684 40.052,20.277 40.337 C 17.951 40.808,15.614 39.158,15.115 36.693 C 15.023 36.233,15.012 35.530,15.029 30.680 L 15.048 25.188 15.230 24.668 C 15.878 22.822,17.405 21.595,19.204 21.474 C 19.935 21.424,20.313 21.290,20.676 20.951 C 21.637 20.052,21.422 18.424,20.267 17.848 C 19.968 17.699,19.855 17.681,19.276 17.686 C 18.917 17.689,18.410 17.730,18.150 17.777 M1.718 19.686 C 0.492 20.252,0.208 21.859,1.165 22.817 C 1.649 23.300,1.823 23.335,3.738 23.335 C 5.045 23.335,5.431 23.315,5.668 23.234 C 6.593 22.919,7.124 21.743,6.768 20.800 C 6.597 20.348,6.315 20.004,5.926 19.776 L 5.623 19.598 3.803 19.581 C 2.138 19.565,1.960 19.574,1.718 19.686 M33.180 19.719 C 32.013 20.262,31.743 21.863,32.662 22.789 C 33.187 23.316,33.331 23.345,35.370 23.322 C 37.295 23.300,37.358 23.287,37.851 22.794 C 38.224 22.421,38.376 22.035,38.378 21.450 C 38.380 21.044,38.350 20.899,38.199 20.590 C 38.099 20.386,37.898 20.117,37.753 19.993 C 37.291 19.597,37.100 19.565,35.202 19.566 C 33.561 19.566,33.497 19.571,33.180 19.719 M5.991 26.715 C 5.671 26.790,3.138 28.328,2.823 28.639 C 2.139 29.310,2.097 30.498,2.732 31.219 C 3.057 31.589,3.326 31.758,3.733 31.849 C 4.300 31.976,4.600 31.863,6.095 30.965 C 7.581 30.072,7.913 29.786,8.101 29.233 C 8.594 27.791,7.410 26.379,5.991 26.715 M31.991 26.774 C 30.738 27.207,30.356 28.990,31.318 29.918 C 31.450 30.045,32.069 30.462,32.695 30.843 C 34.052 31.671,34.211 31.756,34.607 31.856 C 35.308 32.032,36.203 31.540,36.536 30.796 C 36.851 30.090,36.694 29.158,36.170 28.635 C 35.891 28.356,33.394 26.847,33.030 26.737 C 32.645 26.622,32.408 26.630,31.991 26.774 " fill="#A4925A" stroke="none" fill-rule="evenodd"></path></svg>