<svg width="48" height="49" viewBox="0 0 48 49" fill="none" xmlns="http://www.w3.org/2000/svg"><path d="M12.151 0.605 C 11.701 0.743,11.171 1.285,11.047 1.732 C 10.989 1.937,10.961 3.925,10.960 7.700 C 10.960 10.813,10.932 13.360,10.898 13.360 C 10.675 13.360,8.765 13.625,8.000 13.762 C 5.443 14.221,1.602 15.400,0.760 15.985 C 0.584 16.107,0.350 16.368,0.240 16.564 L 0.040 16.920 0.040 31.566 L 0.040 46.213 0.281 46.603 C 0.457 46.887,0.639 47.054,0.950 47.216 C 1.496 47.501,1.962 47.507,2.677 47.238 C 3.985 46.746,6.564 46.126,8.309 45.884 C 9.761 45.683,11.585 45.601,12.793 45.683 C 15.842 45.888,19.789 46.958,22.640 48.350 C 23.813 48.923,24.074 48.919,25.485 48.307 C 28.522 46.989,32.347 46.031,35.326 45.842 C 38.474 45.642,42.651 46.206,45.148 47.167 C 46.092 47.531,46.531 47.534,47.120 47.180 C 47.446 46.984,47.602 46.822,47.756 46.522 L 47.960 46.124 47.960 31.682 L 47.960 17.240 47.733 16.854 C 47.482 16.426,46.923 16.021,45.944 15.555 C 44.787 15.006,43.234 14.531,42.255 14.429 L 41.760 14.377 41.760 12.523 C 41.760 11.036,41.735 10.594,41.633 10.295 C 41.471 9.822,40.937 9.333,40.444 9.209 C 38.714 8.774,32.436 10.094,29.136 11.588 C 27.765 12.208,26.268 13.094,25.092 13.979 C 24.835 14.172,24.616 14.319,24.607 14.305 C 24.597 14.291,24.433 13.884,24.243 13.400 C 23.309 11.022,21.597 8.013,20.017 5.970 C 17.797 3.100,15.141 0.940,13.376 0.569 C 12.840 0.456,12.611 0.463,12.151 0.605 M15.840 6.469 C 16.764 7.466,17.304 8.146,18.072 9.280 C 19.846 11.898,21.184 14.726,21.783 17.120 C 21.950 17.792,21.953 17.916,21.975 27.600 L 21.998 37.400 21.739 37.081 C 20.491 35.543,18.831 33.858,17.560 32.838 C 16.853 32.271,15.359 31.271,14.860 31.031 L 14.480 30.848 14.480 18.017 L 14.480 5.187 14.803 5.442 C 14.980 5.583,15.447 6.045,15.840 6.469 M38.240 25.756 L 38.240 38.793 37.940 38.843 C 35.614 39.234,33.415 39.810,31.696 40.480 C 30.578 40.916,27.666 42.331,26.370 43.070 C 25.935 43.317,25.566 43.520,25.549 43.520 C 25.533 43.520,25.529 37.807,25.540 30.824 L 25.560 18.127 26.240 17.538 C 28.025 15.989,30.371 14.701,32.743 13.965 C 34.308 13.481,37.433 12.758,38.100 12.727 C 38.233 12.720,38.240 13.392,38.240 25.756 M10.978 24.660 L 11.000 32.440 11.171 32.760 C 11.416 33.215,11.548 33.314,12.629 33.841 C 14.340 34.676,15.840 35.816,17.432 37.493 C 18.891 39.030,19.955 40.480,20.683 41.925 C 20.982 42.520,21.520 43.847,21.520 43.992 C 21.520 44.035,21.205 43.962,20.820 43.831 C 19.016 43.216,16.500 42.615,14.440 42.307 C 13.319 42.140,9.676 42.163,8.320 42.346 C 7.039 42.518,5.459 42.815,4.386 43.085 C 3.960 43.192,3.591 43.280,3.566 43.280 C 3.540 43.280,3.520 37.720,3.520 30.924 L 3.520 18.568 4.533 18.239 C 6.342 17.650,9.531 16.958,10.738 16.892 L 10.957 16.880 10.978 24.660 M43.110 18.202 C 43.474 18.316,43.931 18.479,44.126 18.562 L 44.480 18.714 44.480 31.006 C 44.480 42.609,44.472 43.294,44.342 43.244 C 43.694 42.996,39.881 42.400,38.935 42.400 C 38.300 42.400,38.589 42.258,39.340 42.201 C 40.689 42.099,41.222 41.832,41.571 41.083 L 41.758 40.680 41.759 29.289 L 41.760 17.898 42.104 17.945 C 42.293 17.971,42.746 18.087,43.110 18.202 " fill="#B3A369" stroke="none" fill-rule="evenodd"></path></svg>