<svg width="24" height="24" viewBox="0 0 24 24" fill="none" xmlns="http://www.w3.org/2000/svg"><path d="M8.814 3.041 C 7.332 3.197,5.999 3.839,4.917 4.918 C 3.949 5.883,3.345 7.030,3.094 8.380 C 2.991 8.937,2.991 10.063,3.094 10.620 C 3.345 11.968,3.947 13.112,4.918 14.082 C 5.888 15.053,7.032 15.655,8.380 15.906 C 8.925 16.007,10.104 16.008,10.620 15.907 C 11.671 15.702,12.582 15.303,13.389 14.694 L 13.732 14.436 13.866 14.566 L 14.000 14.696 14.000 15.098 L 14.000 15.500 16.500 18.000 L 19.000 20.500 19.750 19.750 L 20.500 19.000 18.000 16.500 L 15.500 14.000 15.098 14.000 L 14.696 14.000 14.566 13.866 L 14.436 13.732 14.694 13.389 C 15.303 12.582,15.702 11.671,15.907 10.620 C 16.008 10.104,16.007 8.925,15.906 8.380 C 15.655 7.032,15.053 5.888,14.082 4.918 C 12.673 3.509,10.778 2.834,8.814 3.041 M10.420 5.100 C 12.976 5.634,14.542 8.244,13.814 10.756 C 13.537 11.713,12.913 12.597,12.120 13.156 C 9.284 15.155,5.394 13.395,5.030 9.947 C 4.836 8.106,5.833 6.303,7.511 5.464 C 7.830 5.303,8.402 5.123,8.791 5.059 C 9.223 4.989,9.979 5.008,10.420 5.100 " stroke="none" fill-rule="evenodd"></path></svg>