<svg width="46" height="42" viewBox="0 0 46 42" fill="none" xmlns="http://www.w3.org/2000/svg"><path d="M13.673 0.459 C 13.255 0.522,12.780 0.843,12.516 1.241 C 12.321 1.536,12.305 1.618,12.305 2.333 C 12.305 2.757,12.322 3.174,12.343 3.258 C 12.381 3.410,12.334 3.412,7.283 3.450 L 2.185 3.488 1.754 3.690 C 0.960 4.063,0.361 4.763,0.120 5.600 C 0.010 5.984,0.000 7.628,0.018 22.582 L 0.038 39.138 0.282 39.652 C 0.591 40.306,1.094 40.809,1.748 41.118 L 2.262 41.362 23.000 41.362 L 43.738 41.362 44.252 41.118 C 44.906 40.809,45.409 40.306,45.718 39.652 L 45.962 39.138 45.982 22.582 C 46.000 7.628,45.990 5.984,45.880 5.600 C 45.639 4.763,45.040 4.063,44.246 3.690 L 43.815 3.488 38.717 3.450 C 33.666 3.412,33.619 3.410,33.657 3.258 C 33.678 3.174,33.695 2.754,33.695 2.326 C 33.695 1.582,33.684 1.531,33.463 1.216 C 33.102 0.703,32.630 0.449,32.031 0.446 C 31.451 0.442,31.043 0.618,30.687 1.024 C 30.284 1.482,30.154 2.189,30.307 3.086 L 30.369 3.450 23.000 3.450 L 15.631 3.450 15.693 3.086 C 15.846 2.189,15.716 1.482,15.313 1.024 C 14.904 0.557,14.330 0.360,13.673 0.459 M42.473 8.778 L 42.473 10.657 23.000 10.657 L 3.527 10.657 3.527 8.778 L 3.527 6.900 23.000 6.900 L 42.473 6.900 42.473 8.778 M42.473 26.067 L 42.473 37.950 23.000 37.950 L 3.527 37.950 3.527 26.067 L 3.527 14.183 23.000 14.183 L 42.473 14.183 42.473 26.067 M18.362 17.453 C 16.285 17.787,14.641 19.223,14.151 21.133 C 13.982 21.790,13.996 22.841,14.182 23.571 C 14.422 24.507,14.805 25.137,15.678 26.034 C 17.506 27.908,21.850 32.044,22.165 32.209 C 22.630 32.453,23.367 32.455,23.829 32.213 C 24.254 31.989,30.736 25.712,31.081 25.189 C 31.704 24.244,31.970 23.378,31.970 22.290 C 31.970 20.816,31.365 19.551,30.196 18.578 C 29.255 17.796,28.244 17.449,26.910 17.453 C 25.572 17.456,24.496 17.814,23.499 18.588 C 23.252 18.780,23.027 18.937,23.000 18.937 C 22.973 18.937,22.748 18.780,22.501 18.588 C 21.960 18.168,21.142 17.766,20.489 17.599 C 19.995 17.472,18.767 17.388,18.362 17.453 " fill="#A4925A" stroke="none" fill-rule="evenodd"></path></svg>