<svg width="50" height="41" viewBox="0 0 50 41" fill="none" xmlns="http://www.w3.org/2000/svg"><path d="M27.625 0.718 C 26.895 0.794,25.504 1.023,24.833 1.178 C 21.355 1.981,17.787 4.045,15.256 6.720 C 14.616 7.397,13.480 8.801,13.196 9.268 C 13.157 9.332,12.806 9.470,12.417 9.575 C 8.202 10.712,4.592 13.703,2.701 17.625 C 1.698 19.704,1.270 21.433,1.192 23.729 C 1.115 25.982,1.421 27.874,2.175 29.802 L 2.515 30.672 1.622 33.590 C 0.753 36.431,0.730 36.525,0.766 37.150 C 0.840 38.415,1.639 39.446,2.869 39.861 C 3.690 40.139,3.974 40.083,7.068 39.039 C 9.785 38.123,9.927 38.085,10.152 38.201 C 10.652 38.459,12.380 39.004,13.350 39.209 C 16.125 39.794,18.822 39.623,21.458 38.694 C 22.054 38.484,22.654 38.310,22.792 38.308 C 22.929 38.305,23.492 38.438,24.042 38.602 C 25.870 39.148,26.926 39.287,29.250 39.289 C 30.559 39.290,31.516 39.251,31.917 39.182 C 34.030 38.815,35.464 38.406,37.141 37.692 L 37.824 37.401 41.558 38.712 C 45.101 39.955,45.324 40.022,45.917 40.023 C 47.736 40.023,49.167 38.523,49.167 36.614 C 49.167 36.066,49.048 35.619,48.000 32.211 C 47.358 30.125,46.833 28.365,46.833 28.300 C 46.833 28.235,46.963 27.879,47.121 27.509 C 47.749 26.042,48.207 24.399,48.472 22.667 C 48.674 21.345,48.673 18.652,48.471 17.333 C 47.427 10.516,43.114 4.891,36.875 2.212 C 34.505 1.194,32.391 0.754,29.667 0.711 C 28.727 0.696,27.808 0.699,27.625 0.718 M30.982 4.255 C 36.198 4.824,40.790 7.929,43.271 12.563 C 44.535 14.927,45.105 17.241,45.103 20.000 C 45.101 22.705,44.534 25.073,43.374 27.223 L 43.006 27.904 44.298 32.087 C 45.009 34.387,45.580 36.298,45.566 36.334 C 45.553 36.369,43.746 35.768,41.552 34.998 L 37.563 33.598 36.761 33.998 C 34.353 35.199,32.342 35.725,29.828 35.809 C 27.768 35.878,26.171 35.649,24.260 35.010 C 18.877 33.210,14.910 28.682,13.739 23.000 C 13.563 22.145,13.542 21.822,13.542 20.000 C 13.542 18.178,13.563 17.855,13.739 17.000 C 14.741 12.139,17.742 8.156,22.083 5.926 C 24.373 4.750,26.575 4.205,29.149 4.178 C 29.712 4.172,30.537 4.206,30.982 4.255 M25.074 13.954 C 24.439 14.129,23.823 14.509,23.242 15.082 C 21.854 16.453,21.539 18.490,22.433 20.316 C 22.672 20.804,23.080 21.257,25.642 23.885 C 27.312 25.597,28.701 26.954,28.864 27.031 C 29.229 27.204,29.770 27.204,30.135 27.032 C 30.296 26.955,31.696 25.588,33.356 23.886 C 36.585 20.576,36.698 20.427,36.970 19.148 C 37.450 16.895,36.044 14.524,33.887 13.950 C 33.248 13.779,32.120 13.802,31.488 13.997 C 30.913 14.175,30.094 14.632,29.729 14.980 L 29.500 15.198 29.271 14.980 C 28.906 14.632,28.087 14.175,27.512 13.997 C 26.895 13.806,25.687 13.785,25.074 13.954 M10.617 14.996 C 9.704 18.327,9.735 21.952,10.706 25.326 C 11.660 28.639,13.482 31.631,16.009 34.034 C 16.480 34.482,17.175 35.079,17.553 35.361 C 18.181 35.830,18.225 35.881,18.058 35.948 C 17.957 35.988,17.294 36.023,16.583 36.026 C 14.599 36.034,12.933 35.643,10.903 34.692 L 10.098 34.315 7.339 35.253 C 5.821 35.769,4.564 36.175,4.545 36.156 C 4.526 36.137,4.908 34.820,5.394 33.229 L 6.279 30.337 5.813 29.356 C 5.063 27.778,4.775 26.615,4.692 24.833 C 4.540 21.559,5.667 18.544,7.914 16.219 C 8.351 15.767,8.915 15.238,9.167 15.043 C 9.587 14.718,10.854 13.909,10.887 13.943 C 10.895 13.952,10.773 14.425,10.617 14.996 " fill="#A4925A" stroke="none" fill-rule="evenodd"></path></svg>