<svg width="50" height="44" viewBox="0 0 50 44" fill="none" xmlns="http://www.w3.org/2000/svg"><path d="M13.278 0.508 C 7.401 1.193,2.397 5.345,0.679 10.961 C 0.021 13.110,0.001 13.429,0.001 21.933 C -0.000 29.971,0.019 30.385,0.473 32.125 C 2.073 38.255,7.175 42.636,13.518 43.328 C 14.629 43.450,35.371 43.450,36.482 43.328 C 42.825 42.636,47.927 38.255,49.527 32.125 C 49.981 30.385,50.000 29.971,49.999 21.933 C 49.999 17.424,49.965 14.250,49.913 13.795 C 49.106 6.746,43.670 1.309,36.625 0.504 C 35.716 0.400,14.173 0.404,13.278 0.508 M37.256 4.143 C 39.514 4.639,41.351 5.617,42.965 7.184 C 44.342 8.519,45.280 9.995,45.867 11.750 C 46.472 13.560,46.458 13.319,46.458 21.875 C 46.458 29.019,46.448 29.598,46.302 30.375 C 45.848 32.797,44.804 34.788,43.088 36.505 C 41.369 38.225,39.390 39.263,36.958 39.719 C 36.170 39.867,35.525 39.875,25.000 39.875 C 14.475 39.875,13.830 39.867,13.042 39.719 C 10.611 39.263,8.632 38.226,6.911 36.505 C 5.191 34.785,4.154 32.806,3.698 30.375 C 3.552 29.598,3.542 29.019,3.542 21.875 C 3.542 13.319,3.528 13.560,4.133 11.750 C 4.720 9.995,5.658 8.519,7.035 7.184 C 8.954 5.321,11.268 4.254,14.000 3.971 C 14.160 3.954,19.279 3.947,25.375 3.954 C 36.301 3.968,36.470 3.971,37.256 4.143 M14.000 21.417 L 14.000 29.417 22.000 29.417 L 30.000 29.417 30.000 26.583 C 30.000 25.025,30.013 23.750,30.029 23.750 C 30.046 23.750,31.836 24.777,34.009 26.032 L 37.958 28.314 37.980 24.865 C 37.992 22.968,37.992 19.862,37.980 17.961 L 37.958 14.505 34.000 16.789 L 30.042 19.073 30.020 16.245 L 29.998 13.417 21.999 13.417 L 14.000 13.417 14.000 21.417 " fill="#A4925A" stroke="none" fill-rule="evenodd"></path></svg>