<svg width="50" height="39" viewBox="0 0 50 39" fill="none" xmlns="http://www.w3.org/2000/svg">
<path fill-rule="evenodd" clip-rule="evenodd" d="M24.2732 0.811122C24.7348 0.600394 25.2652 0.600394 25.7268 0.811122L48.7268 11.3111C49.3501 11.5957 49.75 12.2179 49.75 12.9031C49.75 13.5883 49.3501 14.2105 48.7268 14.495L46.5 15.5116V29.6531C46.5 30.6196 45.7165 31.4031 44.75 31.4031C43.7835 31.4031 43 30.6196 43 29.6531V17.1094L40.75 18.1366V31.319L40.2224 31.834C34.4162 37.5021 28.2319 38.7643 22.8628 37.911C17.5955 37.074 13.2288 34.2269 10.7776 31.834L10.25 31.319V18.5931L1.27324 14.495C0.649907 14.2105 0.25 13.5883 0.25 12.9031C0.25 12.2179 0.649907 11.5957 1.27324 11.3111L24.2732 0.811122ZM13.1133 16.0528C12.8815 15.8615 12.5996 15.7286 12.2902 15.677L6.2139 12.9031L25 4.32681L43.612 12.8236C43.5152 12.9065 43.4276 12.9998 43.3508 13.1018L25 21.4793L13.1133 16.0528ZM13.75 20.1909V29.8201C15.8772 31.709 19.3597 33.8104 23.4122 34.4544C27.5665 35.1146 32.4282 34.2682 37.25 29.8297V19.7344L25.7268 24.995C25.2652 25.2058 24.7348 25.2058 24.2732 24.995L13.75 20.1909Z" fill="#A4925A"/>
</svg>
