<svg width="51" height="50" viewBox="0 0 51 50" fill="none" xmlns="http://www.w3.org/2000/svg">
<path fill-rule="evenodd" clip-rule="evenodd" d="M37.3356 6.91159C38.2709 6.29353 38.8879 5.23265 38.8879 4.02765C38.8879 2.11994 37.3414 0.573441 35.4337 0.573441C33.526 0.573441 31.9795 2.11994 31.9795 4.02765C31.9795 5.23272 32.5966 6.29366 33.532 6.9117C32.3981 7.38902 31.4218 8.28127 30.7239 9.44037C30.7978 9.52006 30.9293 9.6335 31.0971 9.77829C31.5283 10.1503 32.1995 10.7295 32.7514 11.4753C33.3296 12.2567 33.6626 12.9649 33.858 13.3807L33.858 13.3807C33.9217 13.5162 33.9708 13.6206 34.009 13.6864H41.282C41.282 10.5462 39.6319 7.87808 37.3356 6.91159ZM27.6258 10.7707C28.8066 9.99047 29.5856 8.65116 29.5856 7.1299C29.5856 4.72157 27.6332 2.76924 25.2249 2.76924C22.8166 2.76924 20.8643 4.72157 20.8643 7.1299C20.8643 8.65114 21.6432 9.99044 22.824 10.7707C19.9252 11.9908 17.842 15.3591 17.842 19.3232H32.6077C32.6077 15.3591 30.5245 11.9909 27.6258 10.7707ZM44.404 16.8562C45.3261 15.4056 47.1723 14.8503 48.7416 15.5515C50.381 16.2839 51.1965 18.1533 50.5945 19.8583C49.698 22.3971 48.4834 25.7419 47.3502 28.6575C46.7842 30.114 46.2331 31.4771 45.7488 32.5843C45.2888 33.6361 44.8244 34.6113 44.4282 35.1752C43.7297 36.1691 42.3394 37.7246 40.9716 39.1893C39.8908 40.3468 38.7658 41.5089 37.8808 42.4067L39.2894 47.7896C39.4266 48.3142 39.313 48.8728 38.9816 49.302C38.6503 49.7312 38.1386 49.9826 37.5964 49.9826H28.6907C27.7242 49.9826 26.9407 49.1991 26.9407 48.2326C26.9407 47.2661 27.7242 46.4826 28.6907 46.4826H35.3295L34.2419 42.3262C34.0845 41.7249 34.2579 41.0853 34.6974 40.6458C35.606 39.7372 37.0486 38.2623 38.4135 36.8006C39.8081 35.3072 41.0287 33.9253 41.5645 33.1628C41.7265 32.9324 42.0614 32.281 42.5421 31.1818C42.9986 30.138 43.5299 28.8255 44.088 27.3896C45.1569 24.6394 46.3049 21.4864 47.1819 19.0104L43.2864 25.1387C43.2069 25.2638 43.1141 25.3753 43.0111 25.4727C43.0775 26.08 42.9785 26.7101 42.6964 27.293L39.3331 34.244C38.9121 35.114 37.8656 35.478 36.9956 35.057C36.1256 34.636 35.7616 33.5895 36.1825 32.7195L39.1897 26.5047C36.9238 28.578 34.103 31.4109 31.7829 34.2869C30.5121 35.8621 29.4226 37.4122 28.6564 38.8286C27.8715 40.2794 27.5181 41.4235 27.5117 42.2297C27.5039 43.1961 26.7142 43.9734 25.7477 43.9656C24.7813 43.9579 24.004 43.1681 24.0118 42.2017C24.025 40.5477 24.6925 38.8001 25.5779 37.1633C26.482 35.4921 27.7122 33.7586 29.0588 32.0893C31.7536 28.7489 35.0388 25.514 37.4852 23.3271C38.3941 22.5146 39.63 22.2969 40.72 22.6518L44.404 16.8562ZM6.58273 16.8562C5.66063 15.4056 3.81443 14.8503 2.24506 15.5515C0.605713 16.2839 -0.209839 18.1533 0.392216 19.8583C1.28873 22.3971 2.50329 25.7419 3.63647 28.6575C4.20255 30.114 4.75359 31.4771 5.23787 32.5843C5.69789 33.6361 6.16231 34.6113 6.55853 35.1752C7.25701 36.1691 8.64733 37.7246 10.0151 39.1893C11.096 40.3468 12.2209 41.5089 13.1059 42.4067L11.6973 47.7896C11.5601 48.3142 11.6737 48.8728 12.0051 49.302C12.3365 49.7312 12.8481 49.9826 13.3903 49.9826H22.0598C23.0263 49.9826 23.8098 49.1991 23.8098 48.2326C23.8098 47.2661 23.0263 46.4826 22.0598 46.4826H15.6572L16.7448 42.3262C16.9022 41.7249 16.7288 41.0853 16.2893 40.6458C15.3807 39.7372 13.9381 38.2623 12.5732 36.8006C11.1786 35.3072 9.95799 33.9253 9.4222 33.1628C9.26023 32.9324 8.92535 32.281 8.44457 31.1818C7.98806 30.138 7.45682 28.8255 6.89874 27.3896C5.82985 24.6394 4.68183 21.4864 3.80478 19.0104L7.70029 25.1387C7.77978 25.2637 7.87251 25.3753 7.97549 25.4727C7.90913 26.08 8.00815 26.7101 8.29019 27.293L11.6536 34.244C12.0745 35.114 13.1211 35.478 13.9911 35.057C14.8611 34.636 15.2251 33.5895 14.8041 32.7195L11.7969 26.5047C14.3825 28.8705 17.6798 32.2155 20.1351 35.4811C20.7159 36.2536 21.813 36.409 22.5855 35.8282C23.358 35.2474 23.5134 34.1503 22.9326 33.3778C20.0835 29.5884 16.2535 25.7871 13.5012 23.3269C12.592 22.5142 11.3563 22.2969 10.2667 22.6517L6.58273 16.8562ZM11.5623 4.02765C11.5623 5.23265 12.1793 6.29353 13.1146 6.91159C10.8183 7.87808 9.16815 10.5462 9.16815 13.6864H16.4412C16.4794 13.6206 16.5285 13.5162 16.5922 13.3807L16.5922 13.3807C16.7876 12.965 17.1206 12.2567 17.6988 11.4753C18.2507 10.7295 18.9219 10.1503 19.3531 9.77829C19.5209 9.6335 19.6524 9.52006 19.7263 9.44037C19.0284 8.28127 18.0521 7.38902 16.9182 6.9117C17.8536 6.29366 18.4707 5.23272 18.4707 4.02765C18.4707 2.11994 16.9242 0.573441 15.0165 0.573441C13.1088 0.573441 11.5623 2.11994 11.5623 4.02765Z" fill="#A4925A"/>
</svg>
