<svg width="51" height="51" viewBox="0 0 51 51" fill="none" xmlns="http://www.w3.org/2000/svg">
<path fill-rule="evenodd" clip-rule="evenodd" d="M49.1396 1.68013C49.6406 2.16788 49.8032 2.90707 49.5531 3.56005L36.4721 37.7097C36.2895 38.1864 35.9079 38.5596 35.4272 38.7315C34.9465 38.9034 34.4148 38.8569 33.9713 38.6041L22.7103 32.1857L21.8453 39.8337C21.7558 40.6248 21.1438 41.2557 20.3558 41.3692C19.5679 41.4827 18.8027 41.0501 18.4936 40.3164L14.3988 30.5955C14.0236 29.7048 14.4415 28.6786 15.3322 28.3034C16.2229 27.9282 17.2491 28.3461 17.6243 29.2368L19.1199 32.7873L19.5309 29.1537C19.5757 28.7573 19.7545 28.3882 20.0378 28.1075L35.4733 12.8068L14.5459 25.9343C13.7271 26.4479 12.647 26.2005 12.1335 25.3818C11.6199 24.563 11.8672 23.483 12.686 22.9694L29.3377 12.524L9.54642 20.7209C10.0629 21.2379 10.2182 22.0462 9.87501 22.7368C9.44485 23.6023 8.39452 23.9552 7.52902 23.5251L4.65558 22.0969C4.04123 21.7916 3.66196 21.1555 3.68548 20.4698C3.709 19.7842 4.13099 19.1755 4.76482 18.913L47.2492 1.31725C47.8953 1.04969 48.6385 1.19237 49.1396 1.68013ZM43.3761 9.90121L24.1383 28.971L33.933 34.5537L43.3761 9.90121ZM9.63052 29.683C10.2634 30.4135 10.1843 31.5187 9.45382 32.1516L5.77318 35.3405C5.04271 35.9734 3.9375 35.8942 3.30462 35.1638C2.67175 34.4333 2.75086 33.3281 3.48133 32.6952L7.16197 29.5063C7.89244 28.8735 8.99765 28.9526 9.63052 29.683ZM13.0457 38.4402C13.7067 39.1453 13.671 40.2527 12.9659 40.9138L4.59267 48.7639C3.88759 49.4249 2.78012 49.3892 2.11909 48.6841C1.45805 47.979 1.49376 46.8716 2.19884 46.2105L10.5721 38.3604C11.2772 37.6994 12.3846 37.7351 13.0457 38.4402ZM28.3333 39.2718C29.0317 39.9399 29.0563 41.0477 28.3882 41.7461L21.371 49.0817C20.7029 49.7802 19.5951 49.8047 18.8967 49.1366C18.1983 48.4686 18.1737 47.3608 18.8418 46.6624L25.859 39.3267C26.5271 38.6283 27.6349 38.6037 28.3333 39.2718Z" fill="#A4925A"/>
</svg>
