<svg width="14" height="12" viewBox="0 0 14 12" fill="none" xmlns="http://www.w3.org/2000/svg">
<path d="M11.6668 0.75C12.6307 0.75 13.4168 1.53617 13.4168 2.5V9.5C13.4168 10.4638 12.6307 11.25 11.6668 11.25H2.3335C1.36966 11.25 0.583496 10.4638 0.583496 9.49951L0.589329 2.5C0.589329 1.53595 1.36986 0.75 2.3335 0.75H11.6668ZM10.3037 3.16711L6.98266 5.16758L3.8013 3.25079C3.54506 3.0964 3.21766 3.16204 3.03907 3.39315L3.0006 3.44939C2.83434 3.72534 2.92325 4.08382 3.1992 4.25009L7.00232 6.54157L7.006 6.53492L10.9084 4.16703C11.1832 4.00026 11.2713 3.64263 11.1054 3.36731L11.1044 3.3657C10.9382 3.08976 10.5797 3.00084 10.3037 3.16711Z" fill="#222222"/>
</svg>
