<svg width="46" height="46" viewBox="0 0 46 46" fill="none" xmlns="http://www.w3.org/2000/svg">
<path fill-rule="evenodd" clip-rule="evenodd" d="M29.4074 21.007C27.5573 22.2432 25.3823 22.903 23.1572 22.903C20.1735 22.903 17.3121 21.7177 15.2023 19.608C13.0925 17.4982 11.9072 14.6367 11.9072 11.653C11.9072 9.42797 12.567 7.2529 13.8032 5.40285C15.0394 3.55279 16.7964 2.11085 18.852 1.25937C20.9077 0.407882 23.1697 0.185095 25.352 0.619178C27.5343 1.05326 29.5388 2.12472 31.1122 3.69806C32.6855 5.2714 33.757 7.27596 34.1911 9.45824C34.6251 11.6405 34.4024 13.9025 33.5509 15.9582C32.6994 18.0139 31.2574 19.7709 29.4074 21.007ZM22.1629 5.03364C21.8991 5.29736 21.751 5.65505 21.751 6.02801V11.653C21.7558 12.0245 21.9056 12.3793 22.1682 12.642C22.4309 12.9047 22.7858 13.0544 23.1572 13.0593H26.9072C27.2802 13.0593 27.6379 12.9111 27.9016 12.6474C28.1653 12.3837 28.3135 12.026 28.3135 11.653C28.3135 11.28 28.1653 10.9224 27.9016 10.6586C27.6379 10.3949 27.2802 10.2468 26.9072 10.2468H24.5635V6.02801C24.5635 5.65505 24.4153 5.29736 24.1516 5.03364C23.8879 4.76992 23.5302 4.62176 23.1572 4.62176C22.7843 4.62176 22.4266 4.76992 22.1629 5.03364ZM42.7885 8.37176C43.5368 8.36856 44.2567 8.65788 44.7947 9.17801C45.069 9.43888 45.287 9.7531 45.4353 10.1013C45.5837 10.4496 45.6592 10.8245 45.6572 11.203V36.028C45.6332 36.7561 45.3294 37.4469 44.8091 37.9568C44.2887 38.4666 43.5919 38.7563 42.8635 38.7655C31.1072 38.953 25.0322 42.178 25.0322 43.528C25.0322 44.0253 24.8347 44.5022 24.4831 44.8539C24.1314 45.2055 23.6545 45.403 23.1572 45.403C22.6599 45.403 22.183 45.2055 21.8314 44.8539C21.4798 44.5022 21.2822 44.0253 21.2822 43.528C21.2822 42.178 15.2072 38.953 3.45098 38.8405C2.71135 38.826 2.00635 38.5244 1.485 37.9996C0.963658 37.4747 0.666818 36.7677 0.657227 36.028V11.203C0.661128 10.4433 0.964281 9.71573 1.50098 9.17801C1.77195 8.91593 2.09193 8.70983 2.44261 8.57149C2.79329 8.43314 3.1678 8.36528 3.54473 8.37176C4.04505 8.38024 4.54538 8.4079 5.04744 8.43565C5.65547 8.46926 6.26603 8.50301 6.88223 8.50301C7.37951 8.53782 7.84259 8.76875 8.16961 9.145C8.49663 9.52124 8.66079 10.012 8.62598 10.5093C8.59117 11.0065 8.36024 11.4696 7.98399 11.7966C7.60775 12.1237 7.11701 12.2878 6.61973 12.253C5.88848 12.1405 5.13848 12.1405 4.40723 12.1405V35.0343C10.801 35.2218 17.326 36.403 21.2822 38.6155V28.528C21.2822 28.0307 21.4798 27.5538 21.8314 27.2022C22.183 26.8506 22.6599 26.653 23.1572 26.653C23.6545 26.653 24.1314 26.8506 24.4831 27.2022C24.8347 27.5538 25.0322 28.0307 25.0322 28.528V38.6155C28.9885 36.403 35.5135 35.2218 41.9072 35.053V12.1405C41.5706 12.1489 41.2378 12.1724 40.9071 12.1958C40.5009 12.2245 40.0978 12.253 39.6947 12.253C39.1974 12.2878 38.7067 12.1237 38.3305 11.7966C37.9542 11.4696 37.7233 11.0065 37.6885 10.5093C37.6537 10.012 37.8178 9.52124 38.1448 9.145C38.4719 8.76875 38.9349 8.53782 39.4322 8.50301C40.5385 8.37176 41.6447 8.37176 42.7885 8.37176Z" fill="#A4925A"/>
</svg>
