<svg width="50" height="41" viewBox="0 0 50 41" fill="none" xmlns="http://www.w3.org/2000/svg">
<path fill-rule="evenodd" clip-rule="evenodd" d="M6.10152 26.403C6.50962 20.4747 8.14145 15.2931 10.8759 11.4758C14.0096 7.10108 18.6608 4.40302 25 4.40302C31.3392 4.40302 35.9904 7.10108 39.1241 11.4758C41.8586 15.2931 43.4904 20.4747 43.8985 26.403H39C39 22.0767 38.2266 17.8534 36.0206 14.6597C33.7272 11.3395 30.0737 9.40302 25 9.40302C20.144 9.40302 16.5202 11.3623 14.1846 14.6345C11.9186 17.8092 11 22.0231 11 26.403H6.10152ZM32.7294 16.9331C34.2734 19.1683 35 22.445 35 26.403H30C30 24.8279 29.9829 22.9554 29.4459 21.4778C29.1561 20.6803 28.6724 19.8637 27.8502 19.2614C27.0187 18.6522 26.0338 18.403 25 18.403C23.9662 18.403 22.9813 18.6522 22.1498 19.2614C21.3276 19.8637 20.8439 20.6803 20.5541 21.4778C20.0171 22.9554 20 24.8279 20 26.403H15C15 22.4987 15.8314 19.2126 17.4404 16.9583C18.9798 14.8016 21.356 13.403 25 13.403C28.9263 13.403 31.2728 14.8244 32.7294 16.9331ZM2.00665 28.5937C2.12908 21.1672 3.94415 14.2837 7.6241 9.14646C11.4904 3.7491 17.3392 0.403015 25 0.403015C32.6608 0.403015 38.5096 3.7491 42.3759 9.14646C46.0697 14.303 47.8845 21.2189 47.9947 28.6773L49.611 30.8742C49.8637 31.2177 50 31.633 50 32.0595V38.403C50 39.5076 49.1046 40.403 48 40.403H2C0.895432 40.403 0 39.5076 0 38.403V32.0439C0 31.6271 0.130246 31.2207 0.372533 30.8815L2.00665 28.5937ZM44.2984 30.403L46 32.7159V36.403H4V32.6849L5.6299 30.403H44.2984Z" fill="#A4925A"/>
</svg>
