<svg width="44" height="44" viewBox="0 0 44 44" fill="none" xmlns="http://www.w3.org/2000/svg">
<path fill-rule="evenodd" clip-rule="evenodd" d="M19.5 9.90302C19.5 13.0497 16.7612 15.903 13 15.903C9.23881 15.903 6.5 13.0497 6.5 9.90302C6.5 6.7563 9.23881 3.90302 13 3.90302C16.7612 3.90302 19.5 6.7563 19.5 9.90302ZM23 9.90302C23 15.1497 18.5228 19.403 13 19.403C7.47715 19.403 3 15.1497 3 9.90302C3 4.65631 7.47715 0.403015 13 0.403015C18.5228 0.403015 23 4.65631 23 9.90302ZM37.5 11.403C37.5 13.6914 35.4643 15.903 32.5 15.903C29.5357 15.903 27.5 13.6914 27.5 11.403C27.5 9.1146 29.5357 6.90302 32.5 6.90302C35.4643 6.90302 37.5 9.1146 37.5 11.403ZM41 11.403C41 15.8213 37.1944 19.403 32.5 19.403C27.8056 19.403 24 15.8213 24 11.403C24 6.98474 27.8056 3.40302 32.5 3.40302C37.1944 3.40302 41 6.98474 41 11.403ZM22 25.903H5C4.17157 25.903 3.5 26.5746 3.5 27.403V33.403C3.5 36.9929 6.41015 39.903 10 39.903H17C20.5899 39.903 23.5 36.9929 23.5 33.403V27.403C23.5 26.5746 22.8284 25.903 22 25.903ZM5 22.403C2.23858 22.403 0 24.6416 0 27.403V33.403C0 38.9259 4.47715 43.403 10 43.403H17C22.5228 43.403 27 38.9259 27 33.403V27.403C27 24.6416 24.7614 22.403 22 22.403H5ZM31 40.403C30.0537 40.403 29.1382 40.2716 28.2705 40.026C28.9339 39.0522 29.4297 37.9552 29.7167 36.7764C30.1315 36.8594 30.5607 36.903 31 36.903H34C37.5899 36.903 40.5 33.9929 40.5 30.403V27.403C40.5 26.5746 39.8284 25.903 39 25.903H29.9753C29.8334 24.4735 29.0894 23.2211 28.0005 22.403H39C41.7614 22.403 44 24.6416 44 27.403V30.403C44 35.9259 39.5228 40.403 34 40.403H31Z" fill="#A4925A"/>
</svg>
