<svg width="50" height="44" viewBox="0 0 50 44" fill="none" xmlns="http://www.w3.org/2000/svg">
<path fill-rule="evenodd" clip-rule="evenodd" d="M35 3.92302H15C8.65977 3.92302 3.52 9.06279 3.52 15.403V28.403C3.52 34.7432 8.65977 39.883 15 39.883H35C41.3402 39.883 46.48 34.7432 46.48 28.403V15.403C46.48 9.06279 41.3402 3.92302 35 3.92302ZM15 0.403015C6.71573 0.403015 0 7.11874 0 15.403V28.403C0 36.6873 6.71573 43.403 15 43.403H35C43.2843 43.403 50 36.6873 50 28.403V15.403C50 7.11874 43.2843 0.403015 35 0.403015H15ZM24.9999 26.6667C26.9636 26.6667 28.5554 25.0748 28.5554 23.1111C28.5554 21.1474 26.9636 19.5555 24.9999 19.5555C23.0362 19.5555 21.4443 21.1474 21.4443 23.1111C21.4443 25.0748 23.0362 26.6667 24.9999 26.6667ZM19.6331 14.2222L21.6664 12H28.3331L30.3664 14.2222H33.8887C35.1109 14.2222 36.1109 15.2222 36.1109 16.4444V29.7778C36.1109 31 35.1109 32 33.8887 32H16.1109C14.8887 32 13.8887 31 13.8887 29.7778V16.4444C13.8887 15.2222 14.8887 14.2222 16.1109 14.2222H19.6331ZM19.4442 23.1111C19.4442 26.1778 21.9331 28.6667 24.9998 28.6667C28.0664 28.6667 30.5553 26.1778 30.5553 23.1111C30.5553 20.0444 28.0664 17.5556 24.9998 17.5556C21.9331 17.5556 19.4442 20.0444 19.4442 23.1111Z" fill="#A4925A"/>
</svg>
