<svg width="47" height="51" viewBox="0 0 47 51" fill="none" xmlns="http://www.w3.org/2000/svg">
<path fill-rule="evenodd" clip-rule="evenodd" d="M22.529 0.782157C23.0684 0.472598 23.7316 0.472598 24.2711 0.782157L41.8711 10.8822C42.4159 11.1948 42.7514 11.7755 42.75 12.4037C42.7487 13.0319 42.4108 13.6112 41.8646 13.9215L24.2646 23.9215C23.7285 24.2261 23.0716 24.2261 22.5355 23.9215L4.93553 13.9215C4.38935 13.6112 4.0514 13.0319 4.05005 12.4037C4.04871 11.7755 4.38417 11.1948 4.92902 10.8822L22.529 0.782157ZM9.32918 12.3924L23.4 20.3872L37.4709 12.3924L23.4 4.31767L9.32918 12.3924ZM45.2844 16.39C45.8259 16.7071 46.1561 17.2899 46.1499 17.9174L45.9499 38.1173C45.9438 38.7338 45.6138 39.3015 45.0812 39.6119L27.5812 49.812C27.0386 50.1282 26.3681 50.1295 25.8243 49.8152C25.2806 49.501 24.9469 48.9194 24.95 48.2914L25.05 27.9914C25.053 27.3676 25.3879 26.7927 25.9289 26.4822L43.5289 16.3822C44.0732 16.0699 44.743 16.0728 45.2844 16.39ZM28.545 29.0163L28.465 45.2457L42.4599 37.0887L42.6198 20.9393L28.545 29.0163ZM3.56727 16.3801C3.02293 16.0695 2.35404 16.0737 1.81364 16.3911C1.27324 16.7085 0.943833 17.2907 0.950037 17.9174L1.15004 38.1173C1.15614 38.7338 1.48612 39.3015 2.01871 39.6119L19.5187 49.812C20.06 50.1274 20.7286 50.1295 21.2718 49.8174C21.815 49.5052 22.15 48.9265 22.15 48.3V28C22.15 27.3716 21.813 26.7915 21.2673 26.4801L3.56727 16.3801ZM4.64002 37.0887L4.48004 20.9306L18.65 29.0163V45.2545L4.64002 37.0887Z" fill="#A4925A"/>
</svg>
