<svg width="49" height="45" viewBox="0 0 49 45" fill="none" xmlns="http://www.w3.org/2000/svg">
<path fill-rule="evenodd" clip-rule="evenodd" d="M9.63262 1.30462C0.932555 6.42499 -1.96937 17.6287 3.151 26.3287L8.74039 35.8257C13.8613 44.5268 25.0663 47.4291 33.7674 42.3081C34.8626 41.6635 35.2279 40.2531 34.5833 39.1579L28.7348 29.2206C28.3171 28.5109 27.461 28.1884 26.6789 28.4461L23.0604 29.6384C21.6209 30.1127 20.0447 29.5291 19.2612 28.2317L14.999 21.1735C14.1921 19.8371 14.4493 18.1158 15.6116 17.0736L17.8119 15.101C18.7837 14.2297 19.0092 12.7953 18.3516 11.6679L12.7873 2.12831C12.1452 1.02757 10.7308 0.658277 9.63262 1.30462ZM6.16736 24.5535C2.23304 17.8686 4.15667 9.3556 10.3948 4.9733L15.0202 12.9032L13.2752 14.4676C10.8611 16.6321 10.3269 20.2072 12.0029 22.9827L16.2651 30.0409C17.8923 32.7356 21.1661 33.9477 24.1558 32.9626L26.4341 32.2119L30.9345 39.8586C24.073 43.1887 15.6925 40.7378 11.7568 34.0505L6.16736 24.5535ZM22.7495 8.55667C21.783 8.55667 20.9995 9.34017 20.9995 10.3067C20.9995 11.2732 21.783 12.0567 22.7495 12.0567H41.9906L28.874 22.2849L21.5552 16.562C20.7939 15.9667 19.694 16.1012 19.0987 16.8626C18.5033 17.624 18.6379 18.7238 19.3993 19.3192L27.7945 25.8839C28.4271 26.3785 29.3153 26.3791 29.9486 25.8853L45.3307 13.8905V32.5215H36.331C35.3645 32.5215 34.581 33.305 34.581 34.2715C34.581 35.238 35.3645 36.0215 36.331 36.0215H47.0807C48.0472 36.0215 48.8307 35.238 48.8307 34.2715V10.3067C48.8307 9.34017 48.0472 8.55667 47.0807 8.55667H22.7495Z" fill="#A4925A"/>
</svg>
