<svg width="51" height="51" viewBox="0 0 51 51" fill="none" xmlns="http://www.w3.org/2000/svg">
<g clip-path="url(#clip0_4316_117442)">
<path d="M20.7308 19.8507V27.5981H24.8936L25.3337 25.271H27.2094C26.5219 28.8176 22.9834 31.2738 18.4984 31.2738C18.1906 31.2796 17.8799 31.2681 17.5721 31.2365C15.0865 31.0472 12.8023 30.2495 11.1395 28.9898C9.3041 27.6039 8.34036 25.7473 8.34899 23.6269C8.36338 21.3485 9.35876 19.185 11.0848 17.69C12.8483 16.1692 15.0836 15.2998 17.4139 15.2281H17.8684C20.8085 15.274 23.645 16.3098 25.9235 18.1635C26.0357 18.2582 26.0616 18.2783 26.0903 18.2983C26.1479 18.3385 26.1997 18.3816 26.2514 18.4275L26.3147 18.4791H31.1046V10.1262H26.2371V12.5193C24.1916 11.2138 20.6963 9.89669 16.6141 9.89669H16.5508C12.0917 9.91678 7.82541 11.7016 4.6868 14.8579C2.1667 17.4404 0.788708 20.5594 0.828984 23.69C0.875013 27.0529 2.49754 30.1863 5.406 32.5134C8.18501 34.7401 11.9565 36.017 15.7453 36.017C16.2142 36.017 16.6889 35.9969 17.1549 35.9596C20.9092 35.6526 24.2377 34.8118 26.588 33.5436V34.5765H31.7462V25.2854H33.524V36.0629H30.8371V40.9093H42.8277V36.0629H40.1407V25.2825H46.2137L46.6366 27.6096H50.8281V19.8622L20.7308 19.8507Z" fill="#A4925A"/>
</g>
<defs>
<clipPath id="clip0_4316_117442">
<rect width="50" height="50" fill="white" transform="translate(0.828125 0.403015)"/>
</clipPath>
</defs>
</svg>
