<svg width="43" height="51" viewBox="0 0 43 51" fill="none" xmlns="http://www.w3.org/2000/svg">
<path fill-rule="evenodd" clip-rule="evenodd" d="M0.806885 2.45406C0.806885 1.48756 1.59039 0.704056 2.55688 0.704056H41.0996C42.0661 0.704056 42.8496 1.48756 42.8496 2.45406V35.5052C42.8496 36.4717 42.0661 37.2552 41.0996 37.2552C40.1331 37.2552 39.3496 36.4717 39.3496 35.5052V4.20406H20.3347V11.2854C20.3347 11.9763 19.9282 12.6026 19.2972 12.8838C18.6661 13.1651 17.9286 13.0488 17.4148 12.5869L15.1344 10.5369L12.854 12.5869C12.3402 13.0488 11.6027 13.1651 10.9716 12.8838C10.3406 12.6026 9.93408 11.9763 9.93408 11.2854V4.20406H4.30688V40.7031C4.71638 40.589 5.148 40.5281 5.59385 40.5281H41.0996C42.0661 40.5281 42.8496 41.3116 42.8496 42.2781C42.8496 43.2446 42.0661 44.0281 41.0996 44.0281H5.59385C4.88308 44.0281 4.30688 44.6043 4.30688 45.3151C4.30688 46.0258 4.88308 46.602 5.59385 46.602H41.0996C42.0661 46.602 42.8496 47.3855 42.8496 48.352C42.8496 49.3185 42.0661 50.102 41.0996 50.102H5.59385C2.96315 50.102 0.828086 47.98 0.807042 45.3542L0.806885 45.3305V45.3151V2.45406ZM12.6841 15.402C11.1653 15.402 9.93408 16.6332 9.93408 18.152V28.9657C9.93408 30.4845 11.1653 31.7157 12.6841 31.7157H30.9725C32.4913 31.7157 33.7225 30.4845 33.7225 28.9657V18.152C33.7225 16.6332 32.4913 15.402 30.9725 15.402H12.6841ZM13.4341 28.2157V18.902H30.2225V28.2157H13.4341Z" fill="#A4925A"/>
</svg>
