<svg width="51" height="51" viewBox="0 0 51 51" fill="none" xmlns="http://www.w3.org/2000/svg">
<path fill-rule="evenodd" clip-rule="evenodd" d="M10.783 2.29034C10.783 1.32385 9.99946 0.540344 9.03296 0.540344C8.06646 0.540344 7.28296 1.32385 7.28296 2.29034L7.28296 9.6131L1.75157 13.8503C0.984313 14.438 0.838784 15.5365 1.42652 16.3037C2.01426 17.071 3.1127 17.2165 3.87996 16.6288L4.38135 16.2447L4.38135 36.2761C2.41344 37.6341 1.12378 39.9048 1.12378 42.4767C1.12378 44.058 1.61121 45.5254 2.44406 46.7367C1.52795 46.7926 0.802246 47.5533 0.802246 48.4835C0.802246 49.45 1.58575 50.2335 2.55225 50.2335H47.252C48.2185 50.2335 49.002 49.45 49.002 48.4835C49.002 47.517 48.2185 46.7335 47.252 46.7335H46.7478V34.5242L47.6947 35.2531C48.4605 35.8427 49.5593 35.6999 50.1489 34.934C50.7385 34.1682 50.5956 33.0694 49.8298 32.4798L34.6819 20.818C34.0539 20.3345 33.1793 20.3335 32.5502 20.8154L17.6515 32.2282C16.8842 32.816 16.7387 33.9144 17.3264 34.6817C17.9142 35.4489 19.0126 35.5944 19.7799 35.0067L33.6117 24.4112L43.3416 31.9019C43.2808 32.0797 43.2478 32.2703 43.2478 32.4687V46.7335H39.6609V34.3665C39.6609 34.0903 39.437 33.8665 39.1609 33.8665H28.3169C28.0408 33.8665 27.8169 34.0903 27.8169 34.3665V46.7335H21.626C22.052 45.9068 22.2925 44.9689 22.2925 43.9749C22.2925 40.6444 19.5926 37.9445 16.2621 37.9445C15.7571 37.9445 15.2657 38.0069 14.7957 38.1245C13.4326 36.2038 11.1905 34.9482 8.65234 34.9482C8.39205 34.9482 8.13484 34.9614 7.88135 34.9872L7.88135 13.9945C7.88135 13.8582 7.86576 13.7255 7.83627 13.5981L17.7118 6.03323L27.667 13.6974C27.6504 13.7939 27.6418 13.8932 27.6418 13.9945V19.373C27.6418 20.3395 28.4253 21.123 29.3918 21.123C30.3583 21.123 31.1418 20.3395 31.1418 19.373V16.3725L31.7948 16.8752C32.5606 17.4648 33.6594 17.3219 34.249 16.5561C34.8386 15.7902 34.6957 14.6915 33.9299 14.1019L18.782 2.44008C18.154 1.9566 17.2794 1.95554 16.6503 2.43751L10.783 6.93201V2.29034ZM8.65234 38.4482C6.42743 38.4482 4.62378 40.2518 4.62378 42.4767C4.62378 44.6575 6.35715 46.4342 8.52043 46.5032L8.54257 46.5041L8.56709 46.5053H16.262C17.6595 46.5053 18.7925 45.3724 18.7925 43.9749C18.7925 42.5774 17.6596 41.4445 16.2621 41.4445C15.773 41.4445 15.3213 41.5815 14.9371 41.8184C14.4976 42.0895 13.9608 42.1525 13.4704 41.9908C12.98 41.8291 12.5861 41.459 12.3941 40.9797C11.7985 39.4931 10.3453 38.4482 8.65234 38.4482ZM31.3169 46.6465V37.3665H36.1609V46.6465H31.3169ZM16.3176 16.9721V22.6689H19.206V16.9721H16.3176ZM13.3176 13.4721C13.0415 13.4721 12.8176 13.6959 12.8176 13.9721V25.6689C12.8176 25.9451 13.0415 26.1689 13.3176 26.1689H22.206C22.4821 26.1689 22.706 25.9451 22.706 25.6689V13.9721C22.706 13.6959 22.4821 13.4721 22.206 13.4721H13.3176Z" fill="#A4925A"/>
</svg>
