<svg width="51" height="46" viewBox="0 0 51 46" fill="none" xmlns="http://www.w3.org/2000/svg">
<path fill-rule="evenodd" clip-rule="evenodd" d="M4.6999 26.9L6.9999 32.8C7.3999 33.7 6.9999 34.7 6.0999 35C5.1999 35.3 4.1999 34.9 3.7999 34L0.799902 26.5C0.599902 26 0.599902 25.5 0.799902 25.1C0.999902 24.7 1.3999 24.4 1.7999 24.2L7.83673 22.02C7.85128 21.7772 7.87158 21.5266 7.8999 21.3C7.9643 20.9136 8.02871 20.5687 8.09311 20.2652L3.1999 16.3C2.3999 15.6 2.2999 14.5 2.8999 13.8L9.8999 5.00001C10.4999 4.20001 11.4999 4.10001 12.2999 4.70001L16.8523 8.3419C16.9015 8.31152 16.9507 8.28076 16.9999 8.25001C17.1999 8.12501 17.3999 8.00001 17.5999 7.90001C17.9441 7.76232 18.2883 7.62464 18.5999 7.48696V1.80001C18.5999 1.40001 18.7999 0.900006 19.0999 0.600006C19.3999 0.300006 19.7999 0.100006 20.2999 0.100006H31.5999C32.4999 0.100006 33.2999 0.800006 33.2999 1.80001L33.3832 7.46241C33.4789 7.50828 33.5783 7.55415 33.6777 7.60001C33.8221 7.66668 33.9666 7.73334 34.0999 7.80001C34.3464 7.95405 34.6118 8.11759 34.8612 8.27015L39.2999 4.90001C39.6999 4.60001 40.0999 4.40001 40.5999 4.50001C41.0999 4.60001 41.4999 4.80001 41.7999 5.20001L48.6999 14C49.1999 14.7 49.0999 15.8 48.3999 16.4L43.4177 20.5232C43.4508 20.8545 43.5254 21.2273 43.5999 21.6C43.6347 21.8433 43.6694 22.1592 43.7 22.4677L49.4999 24.6C49.9999 24.7 50.3999 25.1 50.4999 25.5C50.5999 25.9 50.6999 26.4 50.4999 26.8L47.6999 34.2C47.2999 35.1 46.2999 35.5 45.3999 35.2C44.4999 34.8 44.0999 33.8 44.3999 32.9L46.5999 27.2L41.4999 25.3C40.8999 25.1 40.4999 24.5 40.3999 23.8C40.3999 23.8 40.2999 23.5 40.2999 23.1C40.2999 22.8856 40.2712 22.6426 40.2445 22.4169C40.2214 22.2215 40.1999 22.0392 40.1999 21.9C40.1999 21.7 40.1999 21.4 40.0999 21.1C39.9999 20.8 39.8999 20.5 39.8999 20.3V20.1C39.7999 19.4 39.9999 18.7 40.4999 18.3L44.9999 14.6L40.1999 8.50001L35.9999 11.8C35.3999 12.3 34.5999 12.3 33.9999 11.9C33.9999 11.9 33.8999 11.9 33.7999 11.8C33.6999 11.7 33.5999 11.6 33.3999 11.5C33.2499 11.4 33.0749 11.3 32.8999 11.2C32.7249 11.1 32.5499 11 32.3999 10.9C32.2329 10.8165 31.9963 10.7156 31.7699 10.6191C31.454 10.4844 31.1582 10.3583 31.0999 10.3C30.4999 10.1 29.9999 9.40001 29.9999 8.70001L29.8999 3.70001H22.0999V8.70001C22.0999 9.40001 21.5999 10 20.8999 10.3H20.7999C20.6999 10.35 20.6249 10.375 20.5499 10.4C20.4749 10.425 20.3999 10.45 20.2999 10.5C20.1329 10.5835 19.966 10.6496 19.8063 10.7127C19.5834 10.8009 19.3747 10.8835 19.1999 11C18.7999 11.2 18.0999 11.6 17.7999 11.8C17.6999 11.9 17.5999 11.9 17.5999 11.9C16.9999 12.3 16.1999 12.3 15.5999 11.8L11.3999 8.50001L6.4999 14.5L11.0999 18.3C11.6999 18.8 11.8999 19.5 11.6999 20.2V20.3C11.6999 20.35 11.6749 20.425 11.6499 20.5C11.6249 20.575 11.5999 20.65 11.5999 20.7C11.4999 21 11.3999 21.4 11.3999 21.6C11.3999 21.8144 11.3712 22.0574 11.3445 22.2831C11.3214 22.4785 11.2999 22.6608 11.2999 22.8V23.4C11.2999 24.1 10.8999 24.7 10.1999 24.9L4.6999 26.9ZM25.8 19.4C23.6 19.4 21.7 21 21.2 23C21 23.9 20 24.5 19.1 24.3C18.2 24.1 17.6 23.1 17.8 22.2C18.6 18.6 21.9 15.9 25.8 15.9C29.7 15.9 32.9 18.6 33.8 22.2C34 23.1 33.4 24.1 32.5 24.3C31.6 24.5 30.6 23.9 30.4 23C29.9 20.9 28.1 19.4 25.8 19.4ZM11.6 30C11.6 31.3 12.2 32.4 13.2 33C10.9 34 9.19995 36.8 9.19995 40H16.7C16.75 39.95 16.775 39.9 16.8 39.85C16.825 39.8 16.85 39.75 16.9 39.7C17.1 39.2 17.4 38.5 18 37.7C18.4651 37.0798 18.9903 36.5798 19.3893 36.2L19.3893 36.2C19.505 36.0899 19.61 35.9899 19.7 35.9C19.9 35.8 20 35.7 20.1 35.6C19.4 34.4 18.4 33.5 17.2 33C18.2 32.3 18.7999 31.2 18.7999 30C18.7999 28 17.2 26.4 15.2 26.4C13.2 26.4 11.6 28 11.6 30ZM38.2999 33C39.2999 32.4 39.8999 31.3 39.8999 30C39.8999 28 38.2999 26.4 36.2999 26.4C34.2999 26.4 32.6999 28 32.6999 30C32.6999 31.2 33.2999 32.3 34.2999 33C33.0999 33.5 32.0999 34.4 31.3999 35.6C31.4999 35.7 31.5999 35.8 31.7999 35.9C31.8898 35.9899 31.9949 36.0899 32.1105 36.2C32.5095 36.5798 33.0348 37.0798 33.4999 37.7C34.0999 38.5 34.3999 39.2 34.5999 39.7C34.6499 39.75 34.6749 39.8 34.6999 39.85C34.7249 39.9 34.7499 39.95 34.7999 40H42.2999C42.3999 36.8 40.6999 34 38.2999 33ZM28.2999 37C29.4999 36.2 30.2999 34.8 30.2999 33.2C30.2999 30.7 28.2999 28.7 25.7999 28.7C23.2999 28.7 21.2999 30.7 21.2999 33.2C21.2999 34.8 22.0999 36.2 23.2999 37C20.2999 38.3 18.0999 41.8 18.0999 45.9H33.3999C33.3999 41.8 31.2999 38.3 28.2999 37Z" fill="#A4925A"/>
</svg>
