<svg width="45" height="46" viewBox="0 0 45 46" fill="none" xmlns="http://www.w3.org/2000/svg">
<path fill-rule="evenodd" clip-rule="evenodd" d="M3.75 0.402962H41.25C42.2446 0.402962 43.1984 0.79805 43.9016 1.50131C44.6049 2.20457 45 3.1584 45 4.15296V41.653C45 42.6475 44.6049 43.6013 43.9016 44.3046C43.1984 45.0079 42.2446 45.403 41.25 45.403H3.75C2.75544 45.403 1.80161 45.0079 1.09835 44.3046C0.395088 43.6013 0 42.6475 0 41.653V4.15296C0 3.1584 0.395088 2.20457 1.09835 1.50131C1.80161 0.79805 2.75544 0.402962 3.75 0.402962ZM40.9754 41.3784C41.1512 41.2026 41.25 40.9641 41.25 40.7155V5.09046C41.2515 4.96751 41.2272 4.8456 41.1788 4.73258C41.1304 4.61956 41.0588 4.51792 40.9688 4.43421C40.885 4.34414 40.7834 4.27259 40.6704 4.22415C40.5574 4.17571 40.4355 4.15146 40.3125 4.15296H4.6875C4.43886 4.15296 4.2004 4.25173 4.02459 4.42755C3.84877 4.60336 3.75 4.84182 3.75 5.09046V40.7155C3.75 40.9641 3.84877 41.2026 4.02459 41.3784C4.2004 41.5542 4.43886 41.653 4.6875 41.653H40.3125C40.5611 41.653 40.7996 41.5542 40.9754 41.3784ZM10.3171 7.90311H34.6921C35.9866 7.90311 37.0359 8.95244 37.0359 10.2469V14.9344C37.0359 16.2288 35.9866 17.2781 34.6921 17.2781H10.3171C9.02272 17.2781 7.97339 16.2288 7.97339 14.9344V10.2469C7.97339 8.95244 9.02272 7.90311 10.3171 7.90311ZM19.6921 21.0278H9.37964C8.60299 21.0278 7.97339 21.6574 7.97339 22.4341V23.3716C7.97339 24.1482 8.60299 24.7778 9.37964 24.7778H19.6921C20.4688 24.7778 21.0984 24.1482 21.0984 23.3716V22.4341C21.0984 21.6574 20.4688 21.0278 19.6921 21.0278ZM9.37964 27.5906H19.6921C20.4688 27.5906 21.0984 28.2202 21.0984 28.9969V29.9344C21.0984 30.711 20.4688 31.3406 19.6921 31.3406H9.37964C8.60299 31.3406 7.97339 30.711 7.97339 29.9344V28.9969C7.97339 28.2202 8.60299 27.5906 9.37964 27.5906ZM19.6921 34.153H9.37964C8.60299 34.153 7.97339 34.7826 7.97339 35.5592V36.4967C7.97339 37.2734 8.60299 37.903 9.37964 37.903H19.6921C20.4688 37.903 21.0984 37.2734 21.0984 36.4967V35.5592C21.0984 34.7826 20.4688 34.153 19.6921 34.153ZM25.3125 34.153H35.625C36.4017 34.153 37.0313 34.7826 37.0313 35.5592V36.4967C37.0313 37.2734 36.4017 37.903 35.625 37.903H25.3125C24.5359 37.903 23.9062 37.2734 23.9062 36.4967V35.5592C23.9062 34.7826 24.5359 34.153 25.3125 34.153ZM35.625 21.028H25.3125C24.5359 21.028 23.9062 21.6576 23.9062 22.4342V23.3717C23.9062 24.1484 24.5359 24.778 25.3125 24.778H35.625C36.4017 24.778 37.0313 24.1484 37.0313 23.3717V22.4342C37.0313 21.6576 36.4017 21.028 35.625 21.028ZM25.3125 27.5905H35.625C36.4017 27.5905 37.0313 28.2201 37.0313 28.9967V29.9342C37.0313 30.7109 36.4017 31.3405 35.625 31.3405H25.3125C24.5359 31.3405 23.9062 30.7109 23.9062 29.9342V28.9967C23.9062 28.2201 24.5359 27.5905 25.3125 27.5905Z" fill="#A4925A"/>
</svg>
