<svg width="49" height="44" viewBox="0 0 49 44" fill="none" xmlns="http://www.w3.org/2000/svg">
<path fill-rule="evenodd" clip-rule="evenodd" d="M3.75 4.15308V36.7707C3.75 37.9193 4.1735 38.608 4.65017 39.0535C5.14543 39.5163 5.75366 39.7601 6.15358 39.8442H36.7644C36.1136 38.7163 35.75 37.4303 35.75 36.1678V4.15308H3.75ZM42.5 39.8442C43.4007 39.8442 44.0168 39.5129 44.4427 38.9896C44.9003 38.4274 45.25 37.4964 45.25 36.1678V8.97661H42C41.0335 8.97661 40.25 8.1931 40.25 7.22661C40.25 6.26011 41.0335 5.47661 42 5.47661H46C47.5188 5.47661 48.75 6.70782 48.75 8.22661V36.1678C48.75 38.0745 48.2497 39.8567 47.1573 41.1989C46.0332 42.58 44.3993 43.3442 42.5 43.3442H6.07494C5.94696 43.3442 5.79581 43.3357 5.6286 43.3068C4.66946 43.1408 3.3593 42.6375 2.26052 41.6107C1.11246 40.5379 0.25 38.9381 0.25 36.7707V3.40241C0.25 1.88211 1.48274 0.653076 3 0.653076H36.5C38.0188 0.653076 39.25 1.88429 39.25 3.40308V36.1678C39.25 38.1398 40.8579 39.8442 42.5 39.8442ZM7 9.65308C7 8.68658 7.7835 7.90308 8.75 7.90308H29.25C30.2165 7.90308 31 8.68658 31 9.65308C31 10.6196 30.2165 11.4031 29.25 11.4031H8.75C7.7835 11.4031 7 10.6196 7 9.65308ZM21.75 15.9031C20.7835 15.9031 20 16.6866 20 17.6531C20 18.6196 20.7835 19.4031 21.75 19.4031H29.25C30.2165 19.4031 31 18.6196 31 17.6531C31 16.6866 30.2165 15.9031 29.25 15.9031H21.75ZM20 25.6531C20 24.6866 20.7835 23.9031 21.75 23.9031H29.25C30.2165 23.9031 31 24.6866 31 25.6531C31 26.6196 30.2165 27.4031 29.25 27.4031H21.75C20.7835 27.4031 20 26.6196 20 25.6531ZM21.75 31.9031C20.7835 31.9031 20 32.6866 20 33.6531C20 34.6196 20.7835 35.4031 21.75 35.4031H29.25C30.2165 35.4031 31 34.6196 31 33.6531C31 32.6866 30.2165 31.9031 29.25 31.9031H21.75ZM16 20.4031C16 22.6122 14.2091 24.4031 12 24.4031C9.79086 24.4031 8 22.6122 8 20.4031C8 18.1939 9.79086 16.4031 12 16.4031C14.2091 16.4031 16 18.1939 16 20.4031ZM9 26.4031C7.89543 26.4031 7 27.2985 7 28.4031V30.4031C7 33.1645 9.23858 35.4031 12 35.4031C14.7614 35.4031 17 33.1645 17 30.4031V28.4031C17 27.2985 16.1046 26.4031 15 26.4031H9Z" fill="#A4925A"/>
</svg>
