<svg width="39" height="45" viewBox="0 0 39 45" fill="none" xmlns="http://www.w3.org/2000/svg">
<path fill-rule="evenodd" clip-rule="evenodd" d="M13.7654 3.07662C15.2848 1.47542 17.3442 0.573657 19.4929 0.568642C21.6417 0.573657 23.7011 1.47542 25.2205 3.07662C26.7399 4.67782 27.5956 6.84807 27.6004 9.11251V19.555C27.5956 21.8194 26.7399 23.9897 25.2205 25.5909C23.7011 27.1921 21.6417 28.0939 19.4929 28.0989C19.0151 28.0989 18.5569 27.8988 18.219 27.5428C17.8811 27.1867 17.6913 26.7038 17.6913 26.2002C17.6913 25.6967 17.8811 25.2138 18.219 24.8577C18.5569 24.5016 19.0151 24.3016 19.4929 24.3016C20.6875 24.3016 21.8332 23.8015 22.6778 22.9114C23.5225 22.0212 23.9971 20.8139 23.9971 19.555V9.11251C23.9971 7.85363 23.5225 6.64632 22.6778 5.75616C21.8332 4.866 20.6875 4.36591 19.4929 4.36591C18.2984 4.36591 17.1527 4.866 16.308 5.75616C15.4633 6.64632 14.9888 7.85363 14.9888 9.11251V15.0552C14.9888 15.5588 14.799 16.0417 14.4611 16.3978C14.1232 16.7538 13.665 16.9539 13.1872 16.9539C12.7093 16.9539 12.2511 16.7538 11.9132 16.3978C11.5753 16.0417 11.3855 15.5588 11.3855 15.0552V9.11251C11.3903 6.84807 12.246 4.67782 13.7654 3.07662ZM24.5248 29.8511C24.8626 29.4951 25.3209 29.295 25.7987 29.295C26.2766 29.295 26.7348 29.4951 27.0727 29.8511C27.4106 30.2072 27.6004 30.6901 27.6004 31.1937V35.6934C27.6004 37.9594 26.7462 40.1326 25.2258 41.7348C23.7053 43.3371 21.6432 44.2373 19.4929 44.2373C17.3427 44.2373 15.2806 43.3371 13.7601 41.7348C12.2397 40.1326 11.3855 37.9594 11.3855 35.6934V26.2002C11.3903 23.9358 12.246 21.7656 13.7654 20.1644C15.2848 18.5632 17.3442 17.6614 19.4929 17.6564C19.9708 17.6564 20.429 17.8564 20.7669 18.2125C21.1048 18.5685 21.2946 19.0515 21.2946 19.555C21.2946 20.0586 21.1048 20.5415 20.7669 20.8975C20.429 21.2536 19.9708 21.4536 19.4929 21.4536C18.2984 21.4536 17.1527 21.9537 16.308 22.8439C15.4633 23.734 14.9888 24.9414 14.9888 26.2002V35.6934C14.9888 36.9523 15.4633 38.1596 16.308 39.0498C17.1527 39.9399 18.2984 40.44 19.4929 40.44C20.6875 40.44 21.8332 39.9399 22.6778 39.0498C23.5225 38.1596 23.9971 36.9523 23.9971 35.6934V31.1937C23.9971 30.6901 24.1869 30.2072 24.5248 29.8511ZM7.31548 12.6819L4.97333 11.258C4.55762 11.0062 4.06403 10.9388 3.60114 11.0705C3.13825 11.2023 2.74399 11.5224 2.50507 11.9605C2.26616 12.3986 2.20217 12.9187 2.32718 13.4065C2.4522 13.8943 2.75597 14.3098 3.17168 14.5616L5.51383 15.9856C5.92752 16.2331 6.41732 16.2981 6.87635 16.1665C7.33539 16.0349 7.7264 15.7173 7.96407 15.2831C8.08394 15.0675 8.16226 14.8291 8.19453 14.5816C8.2268 14.3341 8.2124 14.0823 8.15215 13.8406C8.09189 13.599 7.98697 13.3722 7.8434 13.1734C7.69982 12.9746 7.52042 12.8076 7.31548 12.6819ZM6.35378 22.7962C6.0159 23.1522 5.55764 23.3523 5.07982 23.3523H2.37734C1.89951 23.3523 1.44125 23.1522 1.10338 22.7962C0.7655 22.4401 0.575684 21.9572 0.575684 21.4536C0.575684 20.9501 0.7655 20.4672 1.10338 20.1111C1.44125 19.755 1.89951 19.555 2.37734 19.555H5.07982C5.55764 19.555 6.0159 19.755 6.35378 20.1111C6.69165 20.4672 6.88147 20.9501 6.88147 21.4536C6.88147 21.9572 6.69165 22.4401 6.35378 22.7962ZM5.51384 26.9216L3.17169 28.3456C2.75598 28.5974 2.4522 29.0128 2.32718 29.5007C2.20217 29.9885 2.26616 30.5086 2.50507 30.9467C2.74399 31.3848 3.13826 31.7049 3.60115 31.8367C4.06404 31.9684 4.55763 31.901 4.97334 31.6492L7.3155 30.2252C7.73121 29.9734 8.03498 29.558 8.16 29.0702C8.28501 28.5823 8.22102 28.0622 7.98211 27.6241C7.74319 27.186 7.34892 26.8659 6.88603 26.7342C6.42314 26.6024 5.92955 26.6698 5.51384 26.9216ZM33.4748 15.9856C33.2002 16.1496 32.8896 16.2347 32.574 16.2324C32.1751 16.2354 31.7865 16.0987 31.4693 15.8438C31.152 15.589 30.924 15.2304 30.8209 14.8243C30.7179 14.4181 30.7456 13.9874 30.8999 13.5997C31.0541 13.212 31.3261 12.8892 31.6732 12.682L34.0153 11.258C34.431 11.0062 34.9246 10.9388 35.3875 11.0705C35.8504 11.2023 36.2446 11.5224 36.4835 11.9605C36.7225 12.3986 36.7864 12.9187 36.6614 13.4065C36.5364 13.8943 36.2326 14.3098 35.8169 14.5616L33.4748 15.9856ZM36.6074 19.555H33.9049C33.4271 19.555 32.9688 19.7551 32.631 20.1111C32.2931 20.4672 32.1033 20.9501 32.1033 21.4537C32.1033 21.9572 32.2931 22.4402 32.631 22.7962C32.9688 23.1523 33.4271 23.3523 33.9049 23.3523H36.6074C37.0852 23.3523 37.5435 23.1523 37.8814 22.7962C38.2192 22.4402 38.4091 21.9572 38.4091 21.4537C38.4091 20.9501 38.2192 20.4672 37.8814 20.1111C37.5435 19.7551 37.0852 19.555 36.6074 19.555ZM33.4724 26.9216L35.8145 28.3456C36.2302 28.5974 36.534 29.0128 36.659 29.5007C36.784 29.9885 36.72 30.5086 36.4811 30.9467C36.2422 31.3848 35.8479 31.7049 35.385 31.8367C34.9222 31.9684 34.4286 31.901 34.0129 31.6492L31.6707 30.2252C31.255 29.9734 30.9512 29.558 30.8262 29.0702C30.7012 28.5823 30.7652 28.0622 31.0041 27.6241C31.243 27.186 31.6373 26.8659 32.1002 26.7342C32.5631 26.6024 33.0567 26.6698 33.4724 26.9216Z" fill="#A4925A"/>
</svg>
