<svg width="48" height="49" viewBox="0 0 48 49" fill="none" xmlns="http://www.w3.org/2000/svg">
<path fill-rule="evenodd" clip-rule="evenodd" d="M10.9731 2.22078C10.9731 1.25429 11.7566 0.470789 12.7231 0.470779C13.5487 0.470771 14.346 0.829002 14.965 1.18618C15.6377 1.57432 16.3477 2.10876 17.0535 2.73629C18.4678 3.99393 19.988 5.73553 21.2948 7.75015C22.8621 10.1665 23.918 12.3877 24.5756 14.2412C24.5851 14.268 24.5945 14.2947 24.6039 14.3213C26.2855 12.988 28.6935 11.5114 31.6507 10.6112C36.1267 9.24865 39.0518 9.0008 40.1789 9.1202C41.0691 9.21449 41.7446 9.96533 41.7446 10.8605V14.3391C41.8466 14.3358 41.9504 14.3413 42.055 14.3565C44.5682 14.7201 46.4889 15.7179 47.2662 16.2901C47.7142 16.6199 47.9787 17.1431 47.9787 17.6994V45.6899C47.9787 46.2866 47.6747 46.8421 47.1721 47.1638C46.6696 47.4855 46.0378 47.5289 45.4959 47.2791C44.5352 46.8361 41.1351 45.7618 36.4523 45.7618C31.9118 45.7618 26.7219 47.6587 24.7159 48.6127C24.2015 48.8574 23.6002 48.8364 23.1041 48.5564C21.9796 47.9217 18.3892 46.359 13.8807 45.7459C9.56066 45.1583 4.41616 46.5434 2.40243 47.3221C1.86414 47.5303 1.25784 47.4596 0.781815 47.1333C0.305785 46.807 0.0212402 46.267 0.0212402 45.6899V17.3637C0.0212402 16.6673 0.434253 16.0371 1.07288 15.7591C2.68469 15.0576 6.69857 13.6924 10.9731 13.3284V2.22078ZM41.7446 17.8498V40.3488C41.7446 41.273 41.026 42.0379 40.1036 42.0954C39.7001 42.1206 39.065 42.1884 38.2902 42.3116C40.7759 42.4464 42.8943 42.837 44.4787 43.2565V18.7042C43.8616 18.4058 42.9114 18.0414 41.7446 17.8498ZM25.4712 43.557C27.2709 42.5167 29.5182 41.3194 31.5091 40.5211C33.9069 39.5597 36.4648 39.0317 38.2446 38.7793V12.6941C37.0432 12.8443 35.1826 13.1946 32.67 13.9595C29.1491 15.0312 26.5845 17.087 25.4703 18.2299C25.4768 18.3929 25.4771 18.5485 25.4712 18.696V43.557ZM18.497 38.637C20.0322 40.4308 21.0389 42.323 21.5559 44.065C19.644 43.3675 17.1498 42.6582 14.3523 42.2778C10.5235 41.7571 6.34674 42.5074 3.52124 43.2874V18.5558C5.21411 17.9444 8.03005 17.13 10.9731 16.8429V31.9391C10.9731 32.6649 11.4212 33.3153 12.0993 33.5741C13.7314 34.1968 15.9211 35.6272 18.497 38.637ZM21.9712 37.3753V18.6571C21.9712 18.6279 21.9719 18.5988 21.9734 18.5697C21.9958 18.1209 21.8538 17.037 21.2771 15.4116C20.7167 13.8322 19.7863 11.8561 18.3584 9.65482C17.2131 7.88924 15.8953 6.38998 14.7277 5.35181C14.6413 5.27499 14.5564 5.20129 14.4731 5.1307V30.7992C16.5099 31.812 18.763 33.5651 21.1561 36.3612C21.4409 36.694 21.7127 37.0324 21.9712 37.3753Z" fill="#B3A369"/>
</svg>
