<svg width="46" height="42" viewBox="0 0 46 42" fill="none" xmlns="http://www.w3.org/2000/svg">
<path fill-rule="evenodd" clip-rule="evenodd" d="M15.75 2.15308C15.75 1.18658 14.9665 0.403076 14 0.403076C13.0335 0.403076 12.25 1.18658 12.25 2.15308V2.65308C12.25 2.92148 12.3104 3.17576 12.4184 3.40308H3C1.34315 3.40308 0 4.74622 0 6.40308V38.4031C0 40.0599 1.34315 41.4031 3 41.4031H43C44.6569 41.4031 46 40.0599 46 38.4031V6.40308C46 4.74622 44.6569 3.40308 43 3.40308H33.5816C33.6896 3.17576 33.75 2.92148 33.75 2.65308V2.15308C33.75 1.18658 32.9665 0.403076 32 0.403076C31.0335 0.403076 30.25 1.18658 30.25 2.15308V2.65308C30.25 2.92148 30.3104 3.17576 30.4184 3.40308H15.5816C15.6896 3.17576 15.75 2.92148 15.75 2.65308V2.15308ZM3.5 37.9031V14.1531L42.5 14.1531V37.9031H3.5ZM42.5 10.6531L3.5 10.6531V6.90308H42.5V10.6531ZM30.1156 18.485C28.0836 16.8582 24.9441 17.1026 23 18.9871C21.0559 17.1026 17.9164 16.8549 15.8844 18.485C13.2406 20.6038 13.6273 24.0583 15.5117 25.8892L21.6781 31.8709C22.0297 32.2123 22.5008 32.4031 23 32.4031C23.5027 32.4031 23.9703 32.2156 24.3219 31.8742L30.4883 25.8926C32.3691 24.0616 32.7629 20.6072 30.1156 18.485Z" fill="#A4925A"/>
</svg>
