<svg width="50" height="41" viewBox="0 0 50 41" fill="none" xmlns="http://www.w3.org/2000/svg">
<path fill-rule="evenodd" clip-rule="evenodd" d="M13.1127 9.41148C16.5737 4.13945 22.5385 0.649994 29.3002 0.649994C39.9667 0.649994 48.6502 9.3335 48.6502 20C48.6502 22.9158 48.0049 25.7561 46.7826 28.265L49.0911 35.7446L49.1054 35.8065C49.6611 38.2146 47.5552 40.763 44.8468 39.8602L44.8339 39.8559L37.8172 37.3955C35.253 38.61 32.3324 39.35 29.3002 39.35C27.0074 39.35 24.8063 38.9488 22.7633 38.2129C20.8599 39.0763 18.767 39.55 16.5002 39.55C14.1539 39.55 11.9225 38.9991 9.89078 38.0849L4.65363 39.8602C3.48044 40.2513 2.37024 39.8291 1.67579 39.1624C0.99215 38.5061 0.539662 37.4554 0.791893 36.3204L0.806838 36.2531L2.52349 30.6514C1.60478 28.6685 1.15022 26.5199 1.15022 24.3C1.15022 16.9489 6.24876 10.9688 13.1088 9.39435L13.1127 9.41148ZM10.9359 13.8998C7.1721 15.8819 4.65022 19.7583 4.65022 24.3C4.65022 26.2301 5.0875 28.0484 5.94883 29.6849L6.28474 30.3232L4.4762 36.2247L10.1298 34.3083L10.7828 34.6348C12.575 35.5308 14.5086 36.05 16.5002 36.05C17.1233 36.05 17.7262 36.0044 18.3096 35.9163C13.2629 32.4199 9.9502 26.5882 9.9502 20C9.9502 17.8697 10.2966 15.8185 10.9359 13.8998ZM29.3002 4.14999C20.5667 4.14999 13.4502 11.2665 13.4502 20C13.4502 28.7335 20.5667 35.85 29.3002 35.85C31.9923 35.85 34.6172 35.1307 36.8928 33.9474L37.5647 33.598L45.6396 36.4295L43.0111 27.9133L43.3614 27.2665C44.5167 25.1337 45.1502 22.622 45.1502 20C45.1502 11.2665 38.0337 4.14999 29.3002 4.14999ZM29.4998 15.2C31.0998 13.5 33.7998 13.3 35.4998 14.8C37.6998 16.7 37.3998 19.8 35.7998 21.4L30.5998 26.7C30.2998 27 29.8998 27.2 29.4998 27.2C29.0998 27.2 28.6998 27 28.3998 26.7L23.1998 21.4C21.5998 19.8 21.2998 16.7 23.4998 14.8C25.1998 13.3 27.8998 13.5 29.4998 15.2Z" fill="#A4925A"/>
</svg>
