<svg width="50" height="44" viewBox="0 0 50 44" fill="none" xmlns="http://www.w3.org/2000/svg">
<path fill-rule="evenodd" clip-rule="evenodd" d="M35 3.92302H15C8.65977 3.92302 3.52 9.06279 3.52 15.403V28.403C3.52 34.7432 8.65977 39.883 15 39.883H35C41.3402 39.883 46.48 34.7432 46.48 28.403V15.403C46.48 9.06279 41.3402 3.92302 35 3.92302ZM15 0.403015C6.71573 0.403015 0 7.11874 0 15.403V28.403C0 36.6873 6.71573 43.403 15 43.403H35C43.2843 43.403 50 36.6873 50 28.403V15.403C50 7.11874 43.2843 0.403015 35 0.403015H15ZM30 19.0936L38 14.4748V28.3312L30 23.7124V29.403H14V13.403H30V19.0936Z" fill="#A4925A"/>
</svg>
