<svg width="20" height="16" viewBox="0 0 20 16" fill="none" xmlns="http://www.w3.org/2000/svg">
<path d="M19.513 8.32174L13.0174 14.8435C12.8087 15.0522 12.5478 15.1565 12.287 15.1565C12.0261 15.1565 11.7652 15.0522 11.5565 14.8435C11.1391 14.4261 11.1391 13.7739 11.5565 13.3565L16.2783 8.63478H1.04348C0.469565 8.63478 0 8.16522 0 7.5913C0 7.01739 0.469565 6.54783 1.04348 6.54783H16.2783L11.5304 1.8C11.113 1.38261 11.113 0.730435 11.5304 0.313043C11.9478 -0.104348 12.6 -0.104348 13.0174 0.313043L19.513 6.83478C19.9304 7.25217 19.9304 7.93043 19.513 8.32174Z" fill="#222222"/>
</svg>
