<svg xmlns="http://www.w3.org/2000/svg" width="430" height="355" viewBox="0 0 430 355" fill="none">
  <path xmlns="http://www.w3.org/2000/svg" opacity="0.1" d="M1332 204.601L1332 323.47C1332.01 326.301 1332.75 329.081 1334.17 331.532C1335.58 333.983 1337.61 336.019 1340.06 337.437L1442.92 396.872C1445.37 398.284 1448.15 399.027 1450.98 399.027C1453.81 399.027 1456.59 398.284 1459.04 396.872L1561.88 337.437C1564.33 336.023 1566.36 333.988 1567.78 331.536C1569.19 329.084 1569.94 326.302 1569.94 323.47L1569.94 204.601C1569.94 201.765 1569.2 198.977 1567.79 196.521C1566.37 194.064 1564.33 192.025 1561.88 190.609L1459.04 131.174C1456.59 129.75 1453.81 129 1450.98 129C1448.15 129 1445.37 129.75 1442.92 131.174L1340.06 190.609C1337.61 192.029 1335.58 194.069 1334.16 196.525C1332.75 198.98 1332 201.766 1332 204.601V204.601Z" fill="white" style="     transform: translate(-1140px, -49px); "/>
  <path opacity="0.1" d="M1140 76.3788L1140 116.282C1140 117.233 1140.25 118.166 1140.73 118.989C1141.2 119.812 1141.88 120.495 1142.71 120.971L1177.24 140.923C1178.06 141.397 1178.99 141.646 1179.94 141.646C1180.89 141.646 1181.82 141.397 1182.65 140.923L1217.17 120.971C1217.99 120.496 1218.67 119.813 1219.15 118.99C1219.62 118.167 1219.87 117.233 1219.87 116.282L1219.88 76.3788C1219.88 75.4267 1219.63 74.4911 1219.15 73.6664C1218.68 72.8417 1217.99 72.1572 1217.17 71.6818L1182.65 51.7301C1181.83 51.2519 1180.89 51 1179.94 51C1178.99 51 1178.06 51.2519 1177.24 51.73L1142.71 71.6818C1141.88 72.1585 1141.2 72.8433 1140.73 73.6677C1140.25 74.4921 1140 75.4271 1140 76.3788V76.3788Z" fill="white" style="     transform: translate(-1140px, -49px);     /* transform: translateY(10px); */ "/>
</svg>
