<svg width="184" height="50" viewBox="0 0 184 50" fill="none" xmlns="http://www.w3.org/2000/svg">
<path d="M124.756 13.5469V15.2959H117.962V13.5469H124.756ZM118.507 8.20312V21H116.301V8.20312H118.507ZM126.452 8.20312V21H124.255V8.20312H126.452Z" fill="#003057"/>
<path d="M128.465 16.3506V16.1484C128.465 15.4629 128.564 14.8271 128.764 14.2412C128.963 13.6494 129.25 13.1367 129.625 12.7031C130.006 12.2637 130.469 11.9238 131.014 11.6836C131.564 11.4375 132.186 11.3145 132.877 11.3145C133.574 11.3145 134.195 11.4375 134.74 11.6836C135.291 11.9238 135.757 12.2637 136.138 12.7031C136.519 13.1367 136.809 13.6494 137.008 14.2412C137.207 14.8271 137.307 15.4629 137.307 16.1484V16.3506C137.307 17.0361 137.207 17.6719 137.008 18.2578C136.809 18.8438 136.519 19.3564 136.138 19.7959C135.757 20.2295 135.294 20.5693 134.749 20.8154C134.204 21.0557 133.586 21.1758 132.895 21.1758C132.197 21.1758 131.573 21.0557 131.022 20.8154C130.478 20.5693 130.015 20.2295 129.634 19.7959C129.253 19.3564 128.963 18.8438 128.764 18.2578C128.564 17.6719 128.465 17.0361 128.465 16.3506ZM130.583 16.1484V16.3506C130.583 16.7783 130.627 17.1826 130.715 17.5635C130.803 17.9443 130.94 18.2783 131.128 18.5654C131.315 18.8525 131.556 19.0781 131.849 19.2422C132.142 19.4062 132.49 19.4883 132.895 19.4883C133.287 19.4883 133.627 19.4062 133.914 19.2422C134.207 19.0781 134.447 18.8525 134.635 18.5654C134.822 18.2783 134.96 17.9443 135.048 17.5635C135.142 17.1826 135.188 16.7783 135.188 16.3506V16.1484C135.188 15.7266 135.142 15.3281 135.048 14.9531C134.96 14.5723 134.819 14.2354 134.626 13.9424C134.438 13.6494 134.198 13.4209 133.905 13.2568C133.618 13.0869 133.275 13.002 132.877 13.002C132.479 13.002 132.133 13.0869 131.84 13.2568C131.553 13.4209 131.315 13.6494 131.128 13.9424C130.94 14.2354 130.803 14.5723 130.715 14.9531C130.627 15.3281 130.583 15.7266 130.583 16.1484Z" fill="#003057"/>
<path d="M141.183 13.5205V21H139.064V11.4902H141.06L141.183 13.5205ZM140.805 15.8936L140.119 15.8848C140.125 15.2109 140.219 14.5928 140.4 14.0303C140.588 13.4678 140.846 12.9844 141.174 12.5801C141.508 12.1758 141.906 11.8652 142.369 11.6484C142.832 11.4258 143.348 11.3145 143.916 11.3145C144.373 11.3145 144.786 11.3789 145.155 11.5078C145.53 11.6309 145.85 11.833 146.113 12.1143C146.383 12.3955 146.588 12.7617 146.729 13.2129C146.869 13.6582 146.939 14.2061 146.939 14.8564V21H144.812V14.8477C144.812 14.3906 144.745 14.0303 144.61 13.7666C144.481 13.4971 144.291 13.3066 144.039 13.1953C143.793 13.0781 143.485 13.0195 143.116 13.0195C142.753 13.0195 142.428 13.0957 142.141 13.248C141.854 13.4004 141.61 13.6084 141.411 13.8721C141.218 14.1357 141.068 14.4404 140.963 14.7861C140.857 15.1318 140.805 15.501 140.805 15.8936Z" fill="#003057"/>
<path d="M148.697 16.3506V16.1484C148.697 15.4629 148.797 14.8271 148.996 14.2412C149.195 13.6494 149.482 13.1367 149.857 12.7031C150.238 12.2637 150.701 11.9238 151.246 11.6836C151.797 11.4375 152.418 11.3145 153.109 11.3145C153.807 11.3145 154.428 11.4375 154.973 11.6836C155.523 11.9238 155.989 12.2637 156.37 12.7031C156.751 13.1367 157.041 13.6494 157.24 14.2412C157.439 14.8271 157.539 15.4629 157.539 16.1484V16.3506C157.539 17.0361 157.439 17.6719 157.24 18.2578C157.041 18.8438 156.751 19.3564 156.37 19.7959C155.989 20.2295 155.526 20.5693 154.981 20.8154C154.437 21.0557 153.818 21.1758 153.127 21.1758C152.43 21.1758 151.806 21.0557 151.255 20.8154C150.71 20.5693 150.247 20.2295 149.866 19.7959C149.485 19.3564 149.195 18.8438 148.996 18.2578C148.797 17.6719 148.697 17.0361 148.697 16.3506ZM150.815 16.1484V16.3506C150.815 16.7783 150.859 17.1826 150.947 17.5635C151.035 17.9443 151.173 18.2783 151.36 18.5654C151.548 18.8525 151.788 19.0781 152.081 19.2422C152.374 19.4062 152.723 19.4883 153.127 19.4883C153.52 19.4883 153.859 19.4062 154.146 19.2422C154.439 19.0781 154.68 18.8525 154.867 18.5654C155.055 18.2783 155.192 17.9443 155.28 17.5635C155.374 17.1826 155.421 16.7783 155.421 16.3506V16.1484C155.421 15.7266 155.374 15.3281 155.28 14.9531C155.192 14.5723 155.052 14.2354 154.858 13.9424C154.671 13.6494 154.431 13.4209 154.138 13.2568C153.851 13.0869 153.508 13.002 153.109 13.002C152.711 13.002 152.365 13.0869 152.072 13.2568C151.785 13.4209 151.548 13.6494 151.36 13.9424C151.173 14.2354 151.035 14.5723 150.947 14.9531C150.859 15.3281 150.815 15.7266 150.815 16.1484Z" fill="#003057"/>
<path d="M161.441 13.3008V21H159.323V11.4902H161.345L161.441 13.3008ZM164.351 11.4287L164.333 13.3975C164.204 13.374 164.063 13.3564 163.911 13.3447C163.765 13.333 163.618 13.3271 163.472 13.3271C163.108 13.3271 162.789 13.3799 162.514 13.4854C162.238 13.585 162.007 13.7314 161.819 13.9248C161.638 14.1123 161.497 14.3408 161.397 14.6104C161.298 14.8799 161.239 15.1816 161.222 15.5156L160.738 15.5508C160.738 14.9531 160.797 14.3994 160.914 13.8896C161.031 13.3799 161.207 12.9316 161.441 12.5449C161.682 12.1582 161.98 11.8564 162.338 11.6396C162.701 11.4229 163.12 11.3145 163.595 11.3145C163.724 11.3145 163.861 11.3262 164.008 11.3496C164.16 11.373 164.274 11.3994 164.351 11.4287Z" fill="#003057"/>
<path d="M171.013 18.4248C171.013 18.2139 170.96 18.0234 170.854 17.8535C170.749 17.6777 170.547 17.5195 170.248 17.3789C169.955 17.2383 169.521 17.1094 168.947 16.9922C168.443 16.8809 167.98 16.749 167.559 16.5967C167.143 16.4385 166.785 16.248 166.486 16.0254C166.188 15.8027 165.956 15.5391 165.792 15.2344C165.628 14.9297 165.546 14.5781 165.546 14.1797C165.546 13.793 165.631 13.4268 165.801 13.0811C165.971 12.7354 166.214 12.4307 166.53 12.167C166.847 11.9033 167.23 11.6953 167.682 11.543C168.139 11.3906 168.648 11.3145 169.211 11.3145C170.008 11.3145 170.69 11.4492 171.259 11.7188C171.833 11.9824 172.272 12.3428 172.577 12.7998C172.882 13.251 173.034 13.7607 173.034 14.3291H170.916C170.916 14.0771 170.852 13.8428 170.723 13.626C170.6 13.4033 170.412 13.2246 170.16 13.0898C169.908 12.9492 169.592 12.8789 169.211 12.8789C168.848 12.8789 168.546 12.9375 168.306 13.0547C168.071 13.166 167.896 13.3125 167.778 13.4941C167.667 13.6758 167.611 13.875 167.611 14.0918C167.611 14.25 167.641 14.3936 167.699 14.5225C167.764 14.6455 167.869 14.7598 168.016 14.8652C168.162 14.9648 168.361 15.0586 168.613 15.1465C168.871 15.2344 169.193 15.3193 169.58 15.4014C170.307 15.5537 170.931 15.75 171.452 15.9902C171.979 16.2246 172.384 16.5293 172.665 16.9043C172.946 17.2734 173.087 17.7422 173.087 18.3105C173.087 18.7324 172.996 19.1191 172.814 19.4707C172.639 19.8164 172.381 20.1182 172.041 20.376C171.701 20.6279 171.294 20.8242 170.819 20.9648C170.351 21.1055 169.823 21.1758 169.237 21.1758C168.376 21.1758 167.646 21.0234 167.049 20.7188C166.451 20.4082 165.997 20.0127 165.687 19.5322C165.382 19.0459 165.229 18.542 165.229 18.0205H167.277C167.301 18.4131 167.409 18.7266 167.603 18.9609C167.802 19.1895 168.048 19.3564 168.341 19.4619C168.64 19.5615 168.947 19.6113 169.264 19.6113C169.645 19.6113 169.964 19.5615 170.222 19.4619C170.479 19.3564 170.676 19.2158 170.811 19.04C170.945 18.8584 171.013 18.6533 171.013 18.4248Z" fill="#003057"/>
<path d="M121.161 37.2275H117.83V35.4785H121.161C121.741 35.4785 122.21 35.3848 122.567 35.1973C122.925 35.0098 123.186 34.752 123.35 34.4238C123.52 34.0898 123.604 33.709 123.604 33.2812C123.604 32.877 123.52 32.499 123.35 32.1475C123.186 31.79 122.925 31.5029 122.567 31.2861C122.21 31.0693 121.741 30.9609 121.161 30.9609H118.507V42H116.301V29.2031H121.161C122.151 29.2031 122.992 29.3789 123.684 29.7305C124.381 30.0762 124.911 30.5566 125.274 31.1719C125.638 31.7812 125.819 32.4785 125.819 33.2637C125.819 34.0898 125.638 34.7988 125.274 35.3906C124.911 35.9824 124.381 36.4365 123.684 36.7529C122.992 37.0693 122.151 37.2275 121.161 37.2275Z" fill="#003057"/>
<path d="M129.713 34.3008V42H127.595V32.4902H129.616L129.713 34.3008ZM132.622 32.4287L132.604 34.3975C132.476 34.374 132.335 34.3564 132.183 34.3447C132.036 34.333 131.89 34.3271 131.743 34.3271C131.38 34.3271 131.061 34.3799 130.785 34.4854C130.51 34.585 130.278 34.7314 130.091 34.9248C129.909 35.1123 129.769 35.3408 129.669 35.6104C129.569 35.8799 129.511 36.1816 129.493 36.5156L129.01 36.5508C129.01 35.9531 129.068 35.3994 129.186 34.8896C129.303 34.3799 129.479 33.9316 129.713 33.5449C129.953 33.1582 130.252 32.8564 130.609 32.6396C130.973 32.4229 131.392 32.3145 131.866 32.3145C131.995 32.3145 132.133 32.3262 132.279 32.3496C132.432 32.373 132.546 32.3994 132.622 32.4287Z" fill="#003057"/>
<path d="M133.316 37.3506V37.1484C133.316 36.4629 133.416 35.8271 133.615 35.2412C133.814 34.6494 134.102 34.1367 134.477 33.7031C134.857 33.2637 135.32 32.9238 135.865 32.6836C136.416 32.4375 137.037 32.3145 137.729 32.3145C138.426 32.3145 139.047 32.4375 139.592 32.6836C140.143 32.9238 140.608 33.2637 140.989 33.7031C141.37 34.1367 141.66 34.6494 141.859 35.2412C142.059 35.8271 142.158 36.4629 142.158 37.1484V37.3506C142.158 38.0361 142.059 38.6719 141.859 39.2578C141.66 39.8438 141.37 40.3564 140.989 40.7959C140.608 41.2295 140.146 41.5693 139.601 41.8154C139.056 42.0557 138.438 42.1758 137.746 42.1758C137.049 42.1758 136.425 42.0557 135.874 41.8154C135.329 41.5693 134.866 41.2295 134.485 40.7959C134.104 40.3564 133.814 39.8438 133.615 39.2578C133.416 38.6719 133.316 38.0361 133.316 37.3506ZM135.435 37.1484V37.3506C135.435 37.7783 135.479 38.1826 135.566 38.5635C135.654 38.9443 135.792 39.2783 135.979 39.5654C136.167 39.8525 136.407 40.0781 136.7 40.2422C136.993 40.4062 137.342 40.4883 137.746 40.4883C138.139 40.4883 138.479 40.4062 138.766 40.2422C139.059 40.0781 139.299 39.8525 139.486 39.5654C139.674 39.2783 139.812 38.9443 139.899 38.5635C139.993 38.1826 140.04 37.7783 140.04 37.3506V37.1484C140.04 36.7266 139.993 36.3281 139.899 35.9531C139.812 35.5723 139.671 35.2354 139.478 34.9424C139.29 34.6494 139.05 34.4209 138.757 34.2568C138.47 34.0869 138.127 34.002 137.729 34.002C137.33 34.002 136.984 34.0869 136.691 34.2568C136.404 34.4209 136.167 34.6494 135.979 34.9424C135.792 35.2354 135.654 35.5723 135.566 35.9531C135.479 36.3281 135.435 36.7266 135.435 37.1484Z" fill="#003057"/>
<path d="M150.024 32.4902H151.949V41.7363C151.949 42.5918 151.768 43.3184 151.404 43.916C151.041 44.5137 150.534 44.9678 149.884 45.2783C149.233 45.5947 148.48 45.7529 147.625 45.7529C147.262 45.7529 146.857 45.7002 146.412 45.5947C145.973 45.4893 145.545 45.3193 145.129 45.085C144.719 44.8564 144.376 44.5547 144.101 44.1797L145.094 42.9316C145.434 43.3359 145.809 43.6318 146.219 43.8193C146.629 44.0068 147.06 44.1006 147.511 44.1006C147.997 44.1006 148.41 44.0098 148.75 43.8281C149.096 43.6523 149.362 43.3916 149.55 43.0459C149.737 42.7002 149.831 42.2783 149.831 41.7803V34.6436L150.024 32.4902ZM143.564 37.3506V37.166C143.564 36.4453 143.652 35.7891 143.828 35.1973C144.004 34.5996 144.256 34.0869 144.584 33.6592C144.912 33.2256 145.311 32.8945 145.779 32.666C146.248 32.4316 146.778 32.3145 147.37 32.3145C147.985 32.3145 148.51 32.4258 148.943 32.6484C149.383 32.8711 149.749 33.1904 150.042 33.6064C150.335 34.0166 150.563 34.5088 150.728 35.083C150.897 35.6514 151.023 36.2842 151.105 36.9814V37.5703C151.029 38.25 150.9 38.8711 150.719 39.4336C150.537 39.9961 150.297 40.4824 149.998 40.8926C149.699 41.3027 149.33 41.6191 148.891 41.8418C148.457 42.0645 147.944 42.1758 147.353 42.1758C146.772 42.1758 146.248 42.0557 145.779 41.8154C145.316 41.5752 144.918 41.2383 144.584 40.8047C144.256 40.3711 144.004 39.8613 143.828 39.2754C143.652 38.6836 143.564 38.042 143.564 37.3506ZM145.683 37.166V37.3506C145.683 37.7842 145.724 38.1885 145.806 38.5635C145.894 38.9385 146.025 39.2695 146.201 39.5566C146.383 39.8379 146.611 40.0605 146.887 40.2246C147.168 40.3828 147.499 40.4619 147.88 40.4619C148.378 40.4619 148.785 40.3564 149.102 40.1455C149.424 39.9346 149.67 39.6504 149.84 39.293C150.016 38.9297 150.139 38.5254 150.209 38.0801V36.4893C150.174 36.1436 150.101 35.8213 149.989 35.5225C149.884 35.2236 149.74 34.9629 149.559 34.7402C149.377 34.5117 149.148 34.3359 148.873 34.2129C148.598 34.084 148.272 34.0195 147.897 34.0195C147.517 34.0195 147.186 34.1016 146.904 34.2656C146.623 34.4297 146.392 34.6553 146.21 34.9424C146.034 35.2295 145.902 35.5635 145.814 35.9443C145.727 36.3252 145.683 36.7324 145.683 37.166Z" fill="#003057"/>
<path d="M156.273 34.3008V42H154.155V32.4902H156.177L156.273 34.3008ZM159.183 32.4287L159.165 34.3975C159.036 34.374 158.896 34.3564 158.743 34.3447C158.597 34.333 158.45 34.3271 158.304 34.3271C157.94 34.3271 157.621 34.3799 157.346 34.4854C157.07 34.585 156.839 34.7314 156.651 34.9248C156.47 35.1123 156.329 35.3408 156.229 35.6104C156.13 35.8799 156.071 36.1816 156.054 36.5156L155.57 36.5508C155.57 35.9531 155.629 35.3994 155.746 34.8896C155.863 34.3799 156.039 33.9316 156.273 33.5449C156.514 33.1582 156.812 32.8564 157.17 32.6396C157.533 32.4229 157.952 32.3145 158.427 32.3145C158.556 32.3145 158.693 32.3262 158.84 32.3496C158.992 32.373 159.106 32.3994 159.183 32.4287Z" fill="#003057"/>
<path d="M165.555 40.0928V35.5576C165.555 35.2178 165.493 34.9248 165.37 34.6787C165.247 34.4326 165.06 34.2422 164.808 34.1074C164.562 33.9727 164.251 33.9053 163.876 33.9053C163.53 33.9053 163.231 33.9639 162.979 34.0811C162.728 34.1982 162.531 34.3564 162.391 34.5557C162.25 34.7549 162.18 34.9805 162.18 35.2324H160.07C160.07 34.8574 160.161 34.4941 160.343 34.1426C160.524 33.791 160.788 33.4775 161.134 33.2021C161.479 32.9268 161.893 32.71 162.373 32.5518C162.854 32.3936 163.393 32.3145 163.99 32.3145C164.705 32.3145 165.338 32.4346 165.889 32.6748C166.445 32.915 166.882 33.2783 167.198 33.7646C167.521 34.2451 167.682 34.8486 167.682 35.5752V39.8027C167.682 40.2363 167.711 40.626 167.77 40.9717C167.834 41.3115 167.925 41.6074 168.042 41.8594V42H165.871C165.771 41.7715 165.692 41.4814 165.634 41.1299C165.581 40.7725 165.555 40.4268 165.555 40.0928ZM165.862 36.2168L165.88 37.5264H164.359C163.967 37.5264 163.621 37.5645 163.322 37.6406C163.023 37.7109 162.774 37.8164 162.575 37.957C162.376 38.0977 162.227 38.2676 162.127 38.4668C162.027 38.666 161.978 38.8916 161.978 39.1436C161.978 39.3955 162.036 39.627 162.153 39.8379C162.271 40.043 162.44 40.2041 162.663 40.3213C162.892 40.4385 163.167 40.4971 163.489 40.4971C163.923 40.4971 164.301 40.4092 164.623 40.2334C164.951 40.0518 165.209 39.832 165.396 39.5742C165.584 39.3105 165.684 39.0615 165.695 38.8271L166.381 39.7676C166.311 40.0078 166.19 40.2656 166.021 40.541C165.851 40.8164 165.628 41.0801 165.353 41.332C165.083 41.5781 164.758 41.7803 164.377 41.9385C164.002 42.0967 163.568 42.1758 163.076 42.1758C162.455 42.1758 161.901 42.0527 161.415 41.8066C160.929 41.5547 160.548 41.2178 160.272 40.7959C159.997 40.3682 159.859 39.8848 159.859 39.3457C159.859 38.8418 159.953 38.3965 160.141 38.0098C160.334 37.6172 160.615 37.2891 160.984 37.0254C161.359 36.7617 161.816 36.5625 162.355 36.4277C162.895 36.2871 163.51 36.2168 164.201 36.2168H165.862Z" fill="#003057"/>
<path d="M172.015 34.4238V42H169.896V32.4902H171.892L172.015 34.4238ZM171.672 36.8936L170.951 36.8848C170.951 36.2285 171.033 35.6221 171.197 35.0654C171.361 34.5088 171.602 34.0254 171.918 33.6152C172.234 33.1992 172.627 32.8799 173.096 32.6572C173.57 32.4287 174.118 32.3145 174.739 32.3145C175.173 32.3145 175.568 32.3789 175.926 32.5078C176.289 32.6309 176.603 32.8271 176.866 33.0967C177.136 33.3662 177.341 33.7119 177.481 34.1338C177.628 34.5557 177.701 35.0654 177.701 35.6631V42H175.583V35.8477C175.583 35.3848 175.513 35.0215 175.372 34.7578C175.237 34.4941 175.041 34.3066 174.783 34.1953C174.531 34.0781 174.229 34.0195 173.878 34.0195C173.479 34.0195 173.14 34.0957 172.858 34.248C172.583 34.4004 172.357 34.6084 172.182 34.8721C172.006 35.1357 171.877 35.4404 171.795 35.7861C171.713 36.1318 171.672 36.501 171.672 36.8936ZM177.569 36.3311L176.576 36.5508C176.576 35.9766 176.655 35.4346 176.813 34.9248C176.978 34.4092 177.215 33.958 177.525 33.5713C177.842 33.1787 178.231 32.8711 178.694 32.6484C179.157 32.4258 179.688 32.3145 180.285 32.3145C180.771 32.3145 181.205 32.3818 181.586 32.5166C181.973 32.6455 182.301 32.8506 182.57 33.1318C182.84 33.4131 183.045 33.7793 183.186 34.2305C183.326 34.6758 183.396 35.2148 183.396 35.8477V42H181.27V35.8389C181.27 35.3584 181.199 34.9863 181.059 34.7227C180.924 34.459 180.73 34.2773 180.479 34.1777C180.227 34.0723 179.925 34.0195 179.573 34.0195C179.245 34.0195 178.955 34.0811 178.703 34.2041C178.457 34.3213 178.249 34.4883 178.079 34.7051C177.909 34.916 177.78 35.1592 177.692 35.4346C177.61 35.71 177.569 36.0088 177.569 36.3311Z" fill="#003057"/>
<path fill-rule="evenodd" clip-rule="evenodd" d="M97 50L97 -4.37114e-08L98 0L98 50L97 50Z" fill="#B3A369"/>
<path d="M31.4463 16.7273V28.9683H38.0234L38.7189 25.2915H41.6825C40.5961 30.8951 35.0053 34.7759 27.9191 34.7759C27.4327 34.785 26.9418 34.7668 26.4554 34.717C22.5282 34.4177 18.9192 33.1574 16.292 31.1671C13.392 28.9773 11.8693 26.044 11.883 22.6937C11.9057 19.0939 13.4784 15.6755 16.2056 13.3135C18.9919 10.9106 22.5237 9.53692 26.2055 9.42357H26.9236C31.569 9.49611 36.0507 11.1328 39.6507 14.0615C39.8279 14.2111 39.8689 14.2429 39.9143 14.2746C40.0052 14.3381 40.087 14.4061 40.1688 14.4786L40.2688 14.5602H47.8369V1.36269H40.1461V5.14378C36.9144 3.08096 31.3917 1 24.9418 1H24.8418C17.7965 1.03174 11.0557 3.85168 6.09671 8.83873C2.11496 12.919 -0.0622787 17.8471 0.00135657 22.7934C0.0740826 28.1069 2.63767 33.0576 7.23305 36.7345C11.6239 40.2526 17.5829 42.2701 23.5691 42.2701C24.31 42.2701 25.06 42.2383 25.7964 42.1794C31.7281 41.6943 36.9871 40.3659 40.7007 38.362V39.9942H48.8505V25.3141H51.6596V42.3426H47.4142V50H66.3593V42.3426H62.1139V25.3096H71.7092L72.3774 28.9864H79V16.7455L31.4463 16.7273Z" fill="#B3A369"/>
</svg>
