<svg width="783" height="1047" viewBox="0 0 783 1047" fill="none" xmlns="http://www.w3.org/2000/svg">
<g opacity="0.05">
<mask id="mask0_2007_160433" style="mask-type:alpha" maskUnits="userSpaceOnUse" x="0" y="0" width="784" height="1047">
<rect width="783" height="1047" transform="matrix(1 -8.74228e-08 -8.74228e-08 -1 0.00012207 1047)" fill="#C4C4C4"/>
</mask>
<g mask="url(#mask0_2007_160433)">
<path d="M355.266 668.385L355.266 766.35C355.262 768.683 354.645 770.974 353.479 772.994C352.312 775.014 350.636 776.693 348.619 777.861L263.794 826.843C261.771 828.007 259.479 828.62 257.146 828.62C254.813 828.62 252.521 828.007 250.499 826.843L165.694 777.861C163.674 776.696 161.996 775.018 160.829 772.998C159.662 770.977 159.047 768.684 159.047 766.35L159.047 668.385C159.044 666.048 159.656 663.751 160.824 661.726C161.991 659.701 163.671 658.021 165.694 656.854L250.499 607.871C252.518 606.697 254.811 606.079 257.146 606.079C259.481 606.079 261.775 606.697 263.794 607.871L348.619 656.854C350.639 658.024 352.317 659.705 353.484 661.729C354.651 663.753 355.265 666.048 355.266 668.385V668.385Z" fill="#54585A"/>
<path d="M463.336 854.11L463.336 952.075C463.332 954.408 462.716 956.699 461.549 958.719C460.383 960.74 458.707 962.418 456.689 963.586L371.864 1012.57C369.842 1013.73 367.55 1014.34 365.217 1014.34C362.884 1014.34 360.592 1013.73 358.569 1012.57L273.765 963.586C271.744 962.421 270.066 960.743 268.899 958.723C267.732 956.702 267.118 954.409 267.117 952.075L267.117 854.11C267.114 851.773 267.727 849.476 268.894 847.451C270.061 845.426 271.741 843.746 273.765 842.579L358.569 793.596C360.588 792.423 362.882 791.804 365.217 791.804C367.552 791.804 369.845 792.423 371.864 793.596L456.689 842.579C458.71 843.749 460.387 845.43 461.554 847.454C462.721 849.478 463.336 851.774 463.336 854.11V854.11Z" fill="#54585A"/>
<path d="M463.336 480.619L463.336 578.584C463.332 580.917 462.716 583.208 461.549 585.228C460.383 587.248 458.707 588.926 456.689 590.095L371.864 639.077C369.842 640.241 367.549 640.854 365.217 640.854C362.884 640.854 360.592 640.241 358.569 639.077L273.765 590.095C271.744 588.93 270.066 587.252 268.899 585.231C267.732 583.211 267.118 580.918 267.117 578.584L267.117 480.619C267.114 478.282 267.727 475.985 268.894 473.96C270.061 471.935 271.741 470.255 273.765 469.088L358.569 420.105C360.588 418.931 362.882 418.313 365.217 418.313C367.551 418.313 369.845 418.931 371.864 420.105L456.689 469.088C458.71 470.258 460.387 471.939 461.554 473.963C462.721 475.987 463.335 478.282 463.336 480.619V480.619Z" fill="#54585A"/>
<path d="M245.157 480.619L245.157 578.584C245.152 580.917 244.536 583.208 243.369 585.228C242.203 587.248 240.527 588.926 238.509 590.095L153.684 639.077C151.662 640.241 149.37 640.854 147.037 640.854C144.704 640.854 142.412 640.241 140.39 639.077L55.5849 590.095C53.5644 588.93 51.8863 587.252 50.7193 585.231C49.5524 583.211 48.9379 580.918 48.9376 578.584L48.9376 480.619C48.9343 478.282 49.5471 475.985 50.7142 473.96C51.8813 471.935 53.5614 470.255 55.5849 469.088L140.39 420.105C142.409 418.931 144.702 418.313 147.037 418.313C149.372 418.313 151.665 418.931 153.684 420.105L238.509 469.088C240.53 470.258 242.208 471.939 243.374 473.963C244.541 475.987 245.156 478.282 245.157 480.619V480.619Z" fill="#54585A"/>
<path d="M573.446 668.385L573.446 766.35C573.441 768.683 572.825 770.974 571.658 772.994C570.492 775.014 568.816 776.693 566.798 777.861L481.973 826.843C479.951 828.007 477.659 828.62 475.326 828.62C472.993 828.62 470.701 828.007 468.679 826.843L383.874 777.861C381.854 776.696 380.175 775.018 379.008 772.998C377.841 770.977 377.227 768.684 377.227 766.35L377.227 668.385C377.223 666.048 377.836 663.751 379.003 661.726C380.17 659.701 381.851 658.021 383.874 656.854L468.679 607.871C470.698 606.697 472.991 606.079 475.326 606.079C477.661 606.079 479.954 606.697 481.973 607.871L566.798 656.854C568.819 658.024 570.497 659.705 571.664 661.729C572.83 663.753 573.445 666.048 573.446 668.385V668.385Z" fill="#54585A"/>
<path d="M573.446 292.853L573.446 390.818C573.441 393.151 572.825 395.442 571.658 397.462C570.492 399.482 568.816 401.16 566.798 402.329L481.973 451.311C479.951 452.475 477.659 453.088 475.326 453.088C472.993 453.088 470.701 452.475 468.679 451.311L383.874 402.329C381.853 401.163 380.175 399.486 379.008 397.465C377.841 395.445 377.227 393.152 377.227 390.818L377.227 292.853C377.223 290.515 377.836 288.218 379.003 286.194C380.17 284.169 381.85 282.489 383.874 281.322L468.679 232.339C470.698 231.165 472.991 230.547 475.326 230.547C477.661 230.547 479.954 231.165 481.973 232.339L566.798 281.322C568.819 282.492 570.497 284.173 571.663 286.197C572.83 288.221 573.445 290.516 573.446 292.853V292.853Z" fill="#54585A"/>
<path d="M683.555 101.005L683.555 198.97C683.551 201.303 682.934 203.594 681.768 205.614C680.601 207.634 678.925 209.312 676.908 210.481L592.083 259.463C590.06 260.627 587.768 261.24 585.435 261.24C583.102 261.24 580.81 260.627 578.788 259.463L493.983 210.481C491.963 209.316 490.285 207.638 489.118 205.617C487.951 203.597 487.336 201.304 487.336 198.97L487.336 101.005C487.333 98.6675 487.945 96.3705 489.113 94.3459C490.28 92.3213 491.96 90.6407 493.983 89.4737L578.788 40.4913C580.807 39.3173 583.1 38.699 585.435 38.699C587.77 38.699 590.064 39.3173 592.083 40.4913L676.908 89.4737C678.928 90.6438 680.606 92.3251 681.773 94.3491C682.94 96.373 683.554 98.6684 683.555 101.005V101.005Z" fill="#54585A"/>
<path d="M355.266 292.853L355.266 390.818C355.262 393.151 354.645 395.442 353.479 397.462C352.312 399.482 350.636 401.16 348.619 402.329L263.794 451.311C261.771 452.475 259.479 453.088 257.146 453.088C254.813 453.088 252.521 452.475 250.499 451.311L165.694 402.329C163.674 401.163 161.996 399.486 160.829 397.465C159.662 395.445 159.047 393.152 159.047 390.818L159.047 292.853C159.044 290.515 159.656 288.218 160.824 286.194C161.991 284.169 163.671 282.489 165.694 281.322L250.499 232.339C252.518 231.165 254.811 230.547 257.146 230.547C259.481 230.547 261.775 231.165 263.794 232.339L348.619 281.322C350.639 282.492 352.317 284.173 353.484 286.197C354.651 288.221 355.265 290.516 355.266 292.853V292.853Z" fill="#54585A"/>
<path d="M465.375 101.005L465.375 198.97C465.371 201.303 464.755 203.594 463.588 205.614C462.422 207.634 460.746 209.312 458.728 210.481L373.903 259.463C371.881 260.627 369.589 261.24 367.256 261.24C364.923 261.24 362.631 260.627 360.608 259.463L275.804 210.481C273.783 209.316 272.105 207.638 270.938 205.617C269.771 203.597 269.157 201.304 269.156 198.97L269.156 101.005C269.153 98.6675 269.766 96.3705 270.933 94.3459C272.1 92.3213 273.78 90.6407 275.804 89.4737L360.608 40.4913C362.627 39.3173 364.921 38.699 367.256 38.699C369.591 38.699 371.884 39.3173 373.903 40.4913L458.728 89.4737C460.749 90.6438 462.426 92.3251 463.593 94.3491C464.76 96.373 465.375 98.6684 465.375 101.005V101.005Z" fill="#54585A"/>
<path d="M681.516 854.11L681.516 952.075C681.512 954.408 680.895 956.699 679.729 958.719C678.562 960.74 676.886 962.418 674.869 963.586L590.044 1012.57C588.021 1013.73 585.729 1014.34 583.396 1014.34C581.063 1014.34 578.771 1013.73 576.749 1012.57L491.944 963.586C489.924 962.421 488.246 960.743 487.079 958.723C485.912 956.702 485.297 954.409 485.297 952.075L485.297 854.11C485.294 851.773 485.906 849.476 487.074 847.451C488.241 845.426 489.921 843.746 491.944 842.579L576.749 793.596C578.768 792.423 581.061 791.804 583.396 791.804C585.731 791.804 588.025 792.423 590.044 793.596L674.869 842.579C676.889 843.749 678.567 845.43 679.734 847.454C680.901 849.478 681.515 851.774 681.516 854.11V854.11Z" fill="#54585A"/>
<path d="M681.516 480.619L681.516 578.584C681.512 580.917 680.895 583.208 679.729 585.228C678.562 587.248 676.886 588.926 674.869 590.095L590.044 639.077C588.021 640.241 585.729 640.854 583.396 640.854C581.063 640.854 578.771 640.241 576.749 639.077L491.944 590.095C489.924 588.93 488.246 587.252 487.079 585.231C485.912 583.211 485.297 580.918 485.297 578.584L485.297 480.619C485.294 478.282 485.906 475.985 487.074 473.96C488.241 471.935 489.921 470.255 491.944 469.088L576.749 420.105C578.768 418.931 581.061 418.313 583.396 418.313C585.731 418.313 588.025 418.931 590.044 420.105L674.869 469.088C676.889 470.258 678.567 471.939 679.734 473.963C680.901 475.987 681.515 478.282 681.516 480.619V480.619Z" fill="#54585A"/>
<path d="M791.625 668.385L791.625 766.35C791.621 768.683 791.005 770.974 789.838 772.994C788.672 775.014 786.996 776.693 784.978 777.861L700.153 826.843C698.131 828.007 695.839 828.62 693.506 828.62C691.173 828.62 688.881 828.007 686.858 826.843L602.054 777.861C600.033 776.696 598.355 775.018 597.188 772.998C596.021 770.977 595.407 768.684 595.406 766.35L595.406 668.385C595.403 666.048 596.016 663.751 597.183 661.726C598.35 659.701 600.03 658.021 602.054 656.854L686.858 607.871C688.877 606.697 691.171 606.079 693.506 606.079C695.841 606.079 698.134 606.697 700.153 607.871L784.978 656.854C786.999 658.024 788.677 659.705 789.843 661.729C791.01 663.753 791.625 666.048 791.625 668.385V668.385Z" fill="#54585A"/>
<path d="M791.625 292.853L791.625 390.818C791.621 393.151 791.005 395.442 789.838 397.462C788.672 399.482 786.996 401.16 784.978 402.329L700.153 451.311C698.131 452.475 695.838 453.088 693.506 453.088C691.173 453.088 688.881 452.475 686.858 451.311L602.054 402.329C600.033 401.163 598.355 399.486 597.188 397.465C596.021 395.445 595.407 393.152 595.406 390.818L595.406 292.853C595.403 290.515 596.016 288.218 597.183 286.194C598.35 284.169 600.03 282.489 602.054 281.322L686.858 232.339C688.877 231.165 691.171 230.547 693.506 230.547C695.841 230.547 698.134 231.165 700.153 232.339L784.978 281.322C786.999 282.492 788.676 284.173 789.843 286.197C791.01 288.221 791.624 290.516 791.625 292.853V292.853Z" fill="#54585A"/>
<path d="M901.735 103.046L901.735 201.011C901.73 203.344 901.114 205.635 899.947 207.655C898.781 209.675 897.105 211.353 895.087 212.522L810.262 261.504C808.24 262.668 805.948 263.281 803.615 263.281C801.282 263.281 798.99 262.668 796.968 261.504L712.163 212.522C710.142 211.356 708.464 209.679 707.297 207.658C706.13 205.637 705.516 203.345 705.516 201.011L705.516 103.046C705.512 100.708 706.125 98.4113 707.292 96.3867C708.459 94.3621 710.139 92.6814 712.163 91.5145L796.968 42.532C798.987 41.3581 801.28 40.7397 803.615 40.7397C805.95 40.7397 808.243 41.3581 810.262 42.532L895.087 91.5145C897.108 92.6846 898.786 94.3659 899.952 96.3898C901.119 98.4137 901.734 100.709 901.735 103.046V103.046Z" fill="#54585A"/>
<path d="M899.696 854.11L899.696 952.075C899.691 954.408 899.075 956.699 897.908 958.719C896.742 960.74 895.066 962.418 893.048 963.586L808.223 1012.57C806.201 1013.73 803.909 1014.34 801.576 1014.34C799.243 1014.34 796.951 1013.73 794.929 1012.57L710.124 963.586C708.104 962.421 706.425 960.743 705.258 958.723C704.091 956.702 703.477 954.409 703.477 952.075L703.477 854.11C703.473 851.773 704.086 849.476 705.253 847.451C706.42 845.426 708.101 843.746 710.124 842.579L794.929 793.596C796.948 792.423 799.241 791.804 801.576 791.804C803.911 791.804 806.204 792.423 808.223 793.596L893.048 842.579C895.069 843.749 896.747 845.43 897.914 847.454C899.08 849.478 899.695 851.774 899.696 854.11V854.11Z" fill="#54585A"/>
<path d="M899.696 480.619L899.696 578.584C899.691 580.917 899.075 583.208 897.908 585.228C896.742 587.248 895.066 588.926 893.048 590.095L808.223 639.077C806.201 640.241 803.909 640.854 801.576 640.854C799.243 640.854 796.951 640.241 794.929 639.077L710.124 590.095C708.104 588.93 706.425 587.252 705.258 585.231C704.091 583.211 703.477 580.918 703.477 578.584L703.477 480.619C703.473 478.282 704.086 475.985 705.253 473.96C706.42 471.935 708.101 470.255 710.124 469.088L794.929 420.105C796.948 418.931 799.241 418.313 801.576 418.313C803.911 418.313 806.204 418.931 808.223 420.105L893.048 469.088C895.069 470.258 896.747 471.939 897.914 473.963C899.08 475.987 899.695 478.282 899.696 480.619V480.619Z" fill="#54585A"/>
</g>
</g>
</svg>
