<svg width="33" height="38" viewBox="0 0 33 38" fill="none" xmlns="http://www.w3.org/2000/svg">
<path d="M33 27.3609V10.6329C33 10.2344 32.8966 9.84285 32.7003 9.4978C32.5041 9.15275 32.2219 8.86632 31.882 8.66735L17.6197 0.303347C17.2795 0.104597 16.8941 0 16.5017 0C16.1094 0 15.7239 0.104597 15.3838 0.303347L1.11795 8.66735C0.77861 8.86686 0.496751 9.15341 0.300565 9.49834C0.104378 9.84327 0.000736212 10.2345 0 10.6329V27.3609C0.000135667 27.7599 0.1035 28.1519 0.299717 28.4975C0.495933 28.843 0.778108 29.1301 1.11795 29.3299L15.3838 37.694C15.7233 37.8944 16.109 38 16.5017 38C16.8944 38 17.2801 37.8944 17.6197 37.694L31.882 29.3299C32.2224 29.1307 32.5049 28.8437 32.7012 28.498C32.8975 28.1523 33.0006 27.7601 33 27.3609V27.3609Z" fill="#EAEDE9"/>
</svg>
