<?xml version="1.0" encoding="utf-8"?>
<!-- Generator: Adobe Illustrator 26.0.3, SVG Export Plug-In . SVG Version: 6.00 Build 0)  -->
<svg version="1.1" id="Layer_1" xmlns="http://www.w3.org/2000/svg" xmlns:xlink="http://www.w3.org/1999/xlink" x="0px" y="0px"
	 viewBox="0 0 783 982" style="enable-background:new 0 0 783 982;" xml:space="preserve">
<style type="text/css">
	.st0{opacity:5.000000e-02;}
	.st1{clip-path:url(#SVGID_00000007419584039552732660000000862269470539568522_);fill:#54585A;}
</style>
<g class="st0">
	<defs>
		<rect id="SVGID_1_" x="0.7" y="-0.7" class="st0" width="783" height="983"/>
	</defs>
	<clipPath id="SVGID_00000126285819423433965420000002269220108734689200_">
		<use xlink:href="#SVGID_1_"  style="overflow:visible;"/>
	</clipPath>
	<path style="clip-path:url(#SVGID_00000126285819423433965420000002269220108734689200_);fill:#54585A;" d="M428.4,346
		c0,2.3,0.6,4.6,1.8,6.7c1.2,2,2.8,3.7,4.9,4.9l84.8,49c2,1.2,4.3,1.8,6.6,1.8c2.3,0,4.6-0.6,6.6-1.8l84.8-49c2-1.2,3.7-2.8,4.9-4.9
		c1.2-2,1.8-4.3,1.8-6.7v-98c0-2.3-0.6-4.6-1.8-6.6c-1.2-2-2.8-3.7-4.9-4.9l-84.8-49c-2-1.2-4.3-1.8-6.6-1.8s-4.6,0.6-6.6,1.8
		l-84.8,49c-2,1.2-3.7,2.8-4.9,4.9c-1.2,2-1.8,4.3-1.8,6.6V346L428.4,346z"/>
	<path style="clip-path:url(#SVGID_00000126285819423433965420000002269220108734689200_);fill:#54585A;" d="M320.3,160.3
		c0,2.3,0.6,4.6,1.8,6.7c1.2,2,2.8,3.7,4.9,4.9l84.8,49c2,1.2,4.3,1.8,6.6,1.8c2.3,0,4.6-0.6,6.6-1.8l84.8-49c2-1.2,3.7-2.8,4.9-4.9
		c1.2-2,1.8-4.3,1.8-6.7v-98c0-2.3-0.6-4.6-1.8-6.6c-1.2-2-2.8-3.7-4.9-4.9l-84.8-49c-2-1.2-4.3-1.8-6.6-1.8c-2.3,0-4.6,0.6-6.6,1.8
		l-84.8,49c-2,1.2-3.7,2.8-4.9,4.9c-1.2,2-1.8,4.3-1.8,6.6V160.3L320.3,160.3z"/>
	<path style="clip-path:url(#SVGID_00000126285819423433965420000002269220108734689200_);fill:#54585A;" d="M320.3,533.7
		c0,2.3,0.6,4.6,1.8,6.7c1.2,2,2.8,3.7,4.9,4.9l84.8,49c2,1.2,4.3,1.8,6.6,1.8c2.3,0,4.6-0.6,6.6-1.8l84.8-49c2-1.2,3.7-2.8,4.9-4.9
		c1.2-2,1.8-4.3,1.8-6.7v-98c0-2.3-0.6-4.6-1.8-6.6c-1.2-2-2.8-3.7-4.9-4.9l-84.8-49c-2-1.2-4.3-1.8-6.6-1.8c-2.3,0-4.6,0.6-6.6,1.8
		l-84.8,49c-2,1.2-3.7,2.8-4.9,4.9c-1.2,2-1.8,4.3-1.8,6.6V533.7L320.3,533.7z"/>
	<path style="clip-path:url(#SVGID_00000126285819423433965420000002269220108734689200_);fill:#54585A;" d="M538.5,533.7
		c0,2.3,0.6,4.6,1.8,6.7c1.2,2,2.8,3.7,4.9,4.9l84.8,49c2,1.2,4.3,1.8,6.6,1.8c2.3,0,4.6-0.6,6.6-1.8l84.8-49c2-1.2,3.7-2.8,4.9-4.9
		c1.2-2,1.8-4.3,1.8-6.7v-98c0-2.3-0.6-4.6-1.8-6.6c-1.2-2-2.8-3.7-4.9-4.9l-84.8-49c-2-1.2-4.3-1.8-6.6-1.8s-4.6,0.6-6.6,1.8
		l-84.8,49c-2,1.2-3.7,2.8-4.9,4.9c-1.2,2-1.8,4.3-1.8,6.6V533.7L538.5,533.7z"/>
	<path style="clip-path:url(#SVGID_00000126285819423433965420000002269220108734689200_);fill:#54585A;" d="M210.2,346
		c0,2.3,0.6,4.6,1.8,6.7c1.2,2,2.8,3.7,4.9,4.9l84.8,49c2,1.2,4.3,1.8,6.6,1.8c2.3,0,4.6-0.6,6.6-1.8l84.8-49c2-1.2,3.7-2.8,4.9-4.9
		c1.2-2,1.8-4.3,1.8-6.7v-98c0-2.3-0.6-4.6-1.8-6.6s-2.8-3.7-4.9-4.9l-84.8-49c-2-1.2-4.3-1.8-6.6-1.8c-2.3,0-4.6,0.6-6.6,1.8
		l-84.8,49c-2,1.2-3.7,2.8-4.9,4.9c-1.2,2-1.8,4.3-1.8,6.6V346L210.2,346z"/>
	<path style="clip-path:url(#SVGID_00000126285819423433965420000002269220108734689200_);fill:#54585A;" d="M210.2,721.5
		c0,2.3,0.6,4.6,1.8,6.7c1.2,2,2.8,3.7,4.9,4.9l84.8,49c2,1.2,4.3,1.8,6.6,1.8c2.3,0,4.6-0.6,6.6-1.8l84.8-49c2-1.2,3.7-2.8,4.9-4.9
		c1.2-2,1.8-4.3,1.8-6.7v-98c0-2.3-0.6-4.6-1.8-6.6s-2.8-3.7-4.9-4.9L315,563c-2-1.2-4.3-1.8-6.6-1.8c-2.3,0-4.6,0.6-6.6,1.8
		l-84.8,49c-2,1.2-3.7,2.8-4.9,4.9c-1.2,2-1.8,4.3-1.8,6.6V721.5L210.2,721.5z"/>
	<path style="clip-path:url(#SVGID_00000126285819423433965420000002269220108734689200_);fill:#54585A;" d="M100.1,913.4
		c0,2.3,0.6,4.6,1.8,6.7c1.2,2,2.8,3.7,4.9,4.9l84.8,49c2,1.2,4.3,1.8,6.6,1.8s4.6-0.6,6.6-1.8l84.8-49c2-1.2,3.7-2.8,4.9-4.9
		c1.2-2,1.8-4.3,1.8-6.7v-98c0-2.3-0.6-4.6-1.8-6.6c-1.2-2-2.8-3.7-4.9-4.9l-84.8-49c-2-1.2-4.3-1.8-6.6-1.8s-4.6,0.6-6.6,1.8
		l-84.8,49c-2,1.2-3.7,2.8-4.9,4.9c-1.2,2-1.8,4.3-1.8,6.6V913.4L100.1,913.4z"/>
	<path style="clip-path:url(#SVGID_00000126285819423433965420000002269220108734689200_);fill:#54585A;" d="M428.4,721.5
		c0,2.3,0.6,4.6,1.8,6.7c1.2,2,2.8,3.7,4.9,4.9l84.8,49c2,1.2,4.3,1.8,6.6,1.8c2.3,0,4.6-0.6,6.6-1.8l84.8-49c2-1.2,3.7-2.8,4.9-4.9
		c1.2-2,1.8-4.3,1.8-6.7v-98c0-2.3-0.6-4.6-1.8-6.6c-1.2-2-2.8-3.7-4.9-4.9l-84.8-49c-2-1.2-4.3-1.8-6.6-1.8s-4.6,0.6-6.6,1.8
		l-84.8,49c-2,1.2-3.7,2.8-4.9,4.9c-1.2,2-1.8,4.3-1.8,6.6V721.5L428.4,721.5z"/>
	<path style="clip-path:url(#SVGID_00000126285819423433965420000002269220108734689200_);fill:#54585A;" d="M318.3,913.4
		c0,2.3,0.6,4.6,1.8,6.7c1.2,2,2.8,3.7,4.9,4.9l84.8,49c2,1.2,4.3,1.8,6.6,1.8c2.3,0,4.6-0.6,6.6-1.8l84.8-49c2-1.2,3.7-2.8,4.9-4.9
		c1.2-2,1.8-4.3,1.8-6.7v-98c0-2.3-0.6-4.6-1.8-6.6c-1.2-2-2.8-3.7-4.9-4.9l-84.8-49c-2-1.2-4.3-1.8-6.6-1.8c-2.3,0-4.6,0.6-6.6,1.8
		l-84.8,49c-2,1.2-3.7,2.8-4.9,4.9c-1.2,2-1.8,4.3-1.8,6.6V913.4L318.3,913.4z"/>
	<path style="clip-path:url(#SVGID_00000126285819423433965420000002269220108734689200_);fill:#54585A;" d="M102.2,160.3
		c0,2.3,0.6,4.6,1.8,6.7c1.2,2,2.8,3.7,4.9,4.9l84.8,49c2,1.2,4.3,1.8,6.6,1.8s4.6-0.6,6.6-1.8l84.8-49c2-1.2,3.7-2.8,4.9-4.9
		c1.2-2,1.8-4.3,1.8-6.7v-98c0-2.3-0.6-4.6-1.8-6.6c-1.2-2-2.8-3.7-4.9-4.9l-84.8-49c-2-1.2-4.3-1.8-6.6-1.8s-4.6,0.6-6.6,1.8
		l-84.8,49c-2,1.2-3.7,2.8-4.9,4.9c-1.2,2-1.8,4.3-1.8,6.6V160.3L102.2,160.3z"/>
	<path style="clip-path:url(#SVGID_00000126285819423433965420000002269220108734689200_);fill:#54585A;" d="M102.2,533.7
		c0,2.3,0.6,4.6,1.8,6.7c1.2,2,2.8,3.7,4.9,4.9l84.8,49c2,1.2,4.3,1.8,6.6,1.8s4.6-0.6,6.6-1.8l84.8-49c2-1.2,3.7-2.8,4.9-4.9
		c1.2-2,1.8-4.3,1.8-6.7v-98c0-2.3-0.6-4.6-1.8-6.6c-1.2-2-2.8-3.7-4.9-4.9l-84.8-49c-2-1.2-4.3-1.8-6.6-1.8s-4.6,0.6-6.6,1.8
		l-84.8,49c-2,1.2-3.7,2.8-4.9,4.9c-1.2,2-1.8,4.3-1.8,6.6V533.7L102.2,533.7z"/>
	<path style="clip-path:url(#SVGID_00000126285819423433965420000002269220108734689200_);fill:#54585A;" d="M-8,346
		c0,2.3,0.6,4.6,1.8,6.7c1.2,2,2.8,3.7,4.9,4.9l84.8,49c2,1.2,4.3,1.8,6.6,1.8c2.3,0,4.6-0.6,6.6-1.8l84.8-49c2-1.2,3.7-2.8,4.9-4.9
		c1.2-2,1.8-4.3,1.8-6.7v-98c0-2.3-0.6-4.6-1.8-6.6s-2.8-3.7-4.9-4.9l-84.8-49c-2-1.2-4.3-1.8-6.6-1.8c-2.3,0-4.6,0.6-6.6,1.8
		l-84.8,49c-2,1.2-3.7,2.8-4.9,4.9c-1.2,2-1.8,4.3-1.8,6.6V346L-8,346z"/>
	<path style="clip-path:url(#SVGID_00000126285819423433965420000002269220108734689200_);fill:#54585A;" d="M-8,721.5
		c0,2.3,0.6,4.6,1.8,6.7c1.2,2,2.8,3.7,4.9,4.9l84.8,49c2,1.2,4.3,1.8,6.6,1.8c2.3,0,4.6-0.6,6.6-1.8l84.8-49c2-1.2,3.7-2.8,4.9-4.9
		c1.2-2,1.8-4.3,1.8-6.7v-98c0-2.3-0.6-4.6-1.8-6.6s-2.8-3.7-4.9-4.9l-84.8-49c-2-1.2-4.3-1.8-6.6-1.8c-2.3,0-4.6,0.6-6.6,1.8
		l-84.8,49c-2,1.2-3.7,2.8-4.9,4.9s-1.8,4.3-1.8,6.6V721.5L-8,721.5z"/>
	<path style="clip-path:url(#SVGID_00000126285819423433965420000002269220108734689200_);fill:#54585A;" d="M-118.1,911.3
		c0,2.3,0.6,4.6,1.8,6.7c1.2,2,2.8,3.7,4.9,4.9l84.8,49c2,1.2,4.3,1.8,6.6,1.8c2.3,0,4.6-0.6,6.6-1.8l84.8-49c2-1.2,3.7-2.8,4.9-4.9
		c1.2-2,1.8-4.3,1.8-6.7v-98c0-2.3-0.6-4.6-1.8-6.6c-1.2-2-2.8-3.7-4.9-4.9l-84.8-49c-2-1.2-4.3-1.8-6.6-1.8s-4.6,0.6-6.6,1.8
		l-84.8,49c-2,1.2-3.7,2.8-4.9,4.9c-1.2,2-1.8,4.3-1.8,6.6V911.3L-118.1,911.3z"/>
	<path style="clip-path:url(#SVGID_00000126285819423433965420000002269220108734689200_);fill:#54585A;" d="M-116,160.3
		c0,2.3,0.6,4.6,1.8,6.7c1.2,2,2.8,3.7,4.9,4.9l84.8,49c2,1.2,4.3,1.8,6.6,1.8c2.3,0,4.6-0.6,6.6-1.8l84.8-49c2-1.2,3.7-2.8,4.9-4.9
		c1.2-2,1.8-4.3,1.8-6.7v-98c0-2.3-0.6-4.6-1.8-6.6s-2.8-3.7-4.9-4.9l-84.8-49c-2-1.2-4.3-1.8-6.6-1.8s-4.6,0.6-6.6,1.8l-84.8,49
		c-2,1.2-3.7,2.8-4.9,4.9c-1.2,2-1.8,4.3-1.8,6.6V160.3L-116,160.3z"/>
	<path style="clip-path:url(#SVGID_00000126285819423433965420000002269220108734689200_);fill:#54585A;" d="M-116,533.7
		c0,2.3,0.6,4.6,1.8,6.7c1.2,2,2.8,3.7,4.9,4.9l84.8,49c2,1.2,4.3,1.8,6.6,1.8c2.3,0,4.6-0.6,6.6-1.8l84.8-49c2-1.2,3.7-2.8,4.9-4.9
		s1.8-4.3,1.8-6.7v-98c0-2.3-0.6-4.6-1.8-6.6c-1.2-2-2.8-3.7-4.9-4.9l-84.8-49c-2-1.2-4.3-1.8-6.6-1.8s-4.6,0.6-6.6,1.8l-84.8,49
		c-2,1.2-3.7,2.8-4.9,4.9c-1.2,2-1.8,4.3-1.8,6.6V533.7L-116,533.7z"/>
</g>
</svg>
