<svg width="32" height="37" viewBox="0 0 32 37" fill="none" xmlns="http://www.w3.org/2000/svg">
<path d="M32 26.6409V10.3531C31.9993 9.96516 31.8988 9.58423 31.7085 9.24838C31.5183 8.91253 31.245 8.63352 30.9159 8.43927L17.0824 0.295364C16.7526 0.101845 16.3788 0 15.9983 0C15.6179 0 15.2441 0.101845 14.9143 0.295364L1.08407 8.43927C0.754561 8.633 0.48088 8.91188 0.290571 9.24786C0.100262 9.58383 4.36321e-05 9.96503 2.20346e-06 10.3531V26.6409C-0.000541113 27.0295 0.0994008 27.4114 0.289739 27.748C0.480077 28.0847 0.754072 28.3641 1.08407 28.5581L14.9143 36.702C15.2435 36.8972 15.6175 37 15.9983 37C16.3791 37 16.7531 36.8972 17.0824 36.702L30.9159 28.5581C31.2455 28.3636 31.5191 28.084 31.7094 27.7475C31.8996 27.411 31.9999 27.0294 32 26.6409Z" fill="#003057"/>
</svg>
