<svg width="296" height="322" viewBox="0 0 296 322" fill="none" xmlns="http://www.w3.org/2000/svg">
<path opacity="0.1" d="M57.5565 76.5735L57.5564 195.443C57.5617 198.274 58.3091 201.054 59.7237 203.505C61.1383 205.956 63.1705 207.992 65.6172 209.41L168.478 268.844C170.931 270.257 173.71 271 176.539 271C179.368 271 182.147 270.257 184.6 268.844L287.436 209.41C289.886 207.996 291.921 205.961 293.336 203.509C294.752 201.057 295.497 198.275 295.497 195.443L295.497 76.5735C295.501 73.7372 294.758 70.9501 293.343 68.4934C291.927 66.0368 289.89 63.9976 287.436 62.5816L184.6 3.14698C182.152 1.72252 179.371 0.972232 176.539 0.972232C173.708 0.972231 170.927 1.72252 168.478 3.14698L65.6172 62.5816C63.1669 64.0014 61.1323 66.0415 59.7175 68.4973C58.3027 70.953 57.5574 73.7382 57.5565 76.5735V76.5735Z" fill="white"/>
<path opacity="0.1" d="M0.028271 256.188L0.0282675 296.092C0.0300494 297.042 0.280935 297.976 0.755796 298.798C1.23066 299.621 1.91286 300.305 2.73422 300.781L37.264 320.732C38.0873 321.207 39.0203 321.456 39.9699 321.456C40.9196 321.456 41.8526 321.207 42.6759 320.732L77.1974 300.781C78.0199 300.306 78.703 299.623 79.178 298.8C79.6531 297.977 79.9032 297.043 79.9033 296.092L79.9033 256.188C79.9047 255.236 79.6552 254.301 79.1801 253.476C78.705 252.651 78.0211 251.967 77.1974 251.491L42.6759 231.54C41.854 231.061 40.9204 230.81 39.97 230.81C39.0195 230.81 38.0859 231.061 37.264 231.54L2.73422 251.491C1.91165 251.968 1.22866 252.653 0.753723 253.477C0.278789 254.302 0.0285994 255.237 0.028271 256.188V256.188Z" fill="white"/>
</svg>
